<?xml version="1.0" encoding="utf-8"?>
<!-- Generator: Adobe Illustrator 24.3.0, SVG Export Plug-In . SVG Version: 6.00 Build 0)  -->
<svg version="1.1" xmlns="http://www.w3.org/2000/svg" xmlns:xlink="http://www.w3.org/1999/xlink" x="0px" y="0px" width="1920px"
	 height="1080px" viewBox="0 0 1920 1080" enable-background="new 0 0 1920 1080" xml:space="preserve">
<g id="bg">
	<rect y="0" transform="matrix(-1 -1.224647e-16 1.224647e-16 -1 1920 1080)" fill="#8153FE" width="1920" height="1080"/>
	<ellipse fill="#5412A7" cx="960" cy="874.33" rx="223.24" ry="11.44"/>
</g>
<g id="tail">
	<g>
		<path fill="#1F003B" d="M988.35,734.45c0.32,1.11,0.33,1.18,0.43,1.55l0.19,0.78l0.25,1.19c0.14,0.75,0.23,1.29,0.32,1.9
			c0.08,0.55,0.14,1.1,0.19,1.61c0.05,0.49,0.09,1,0.11,1.48c0.11,1.91,0.06,3.58-0.06,5.21c-0.27,3.21-0.89,6.08-1.68,8.66
			c-1.61,5.15-3.88,9.21-6.17,12.49c-2.33,3.27-4.72,5.84-7.01,7.99c-2.3,2.15-4.51,3.9-6.65,5.43c-2.13,1.53-4.22,2.84-6.22,3.96
			c-2.02,1.15-3.96,2.15-5.86,3.06c-3.81,1.78-7.44,3.23-10.98,4.47c-3.54,1.22-6.97,2.25-10.35,3.16
			c-3.38,0.88-6.68,1.63-9.96,2.32c-6.54,1.29-12.92,2.31-19.21,3.01c-12.58,1.48-24.83,2.01-36.94,2.12
			c-6.05-0.01-12.06-0.03-18.04-0.26l-8.95-0.38l-5.39-0.24c-2.22-0.13-4.44-0.33-6.67-0.64c-8.9-1.18-17.62-3.95-25.14-7.68
			c-7.57-3.7-14-8.15-19.52-12.64c-5.55-4.48-10.25-9.02-14.54-13.33c-4.3-4.29-8.11-8.45-11.79-12.19
			c-7.29-7.59-13.79-13.73-20.44-18.03c-3.34-2.16-6.75-3.9-10.48-5.27c-3.72-1.38-7.81-2.32-12.27-2.93l-1.64-0.22
			c-10.09-1.38-17.14-10.68-15.76-20.76c1.08-7.87,7.02-13.91,14.35-15.51c6.96-1.51,14.42-2.22,22.01-1.71
			c7.58,0.46,15.23,2.08,22.36,4.56c7.14,2.49,13.77,5.78,19.76,9.36c6.02,3.56,11.4,7.44,16.41,11.17
			c4.96,3.79,9.57,7.4,13.83,10.74c4.27,3.31,8.28,6.25,11.93,8.6c3.68,2.32,6.99,4.03,9.87,5.07c2.91,1.01,5.33,1.48,7.82,1.58
			c0.62,0.03,1.26,0.02,1.9,0l3.2-0.18l8.24-0.52c5.48-0.42,10.93-0.73,16.33-1.21c10.79-0.86,21.42-1.94,31.59-3.28
			c5.08-0.7,10.03-1.45,14.74-2.34c4.69-0.87,9.17-1.88,13-2.97c1.91-0.54,3.66-1.09,5.09-1.62c0.71-0.25,1.36-0.49,1.87-0.7
			c0.54-0.21,0.91-0.38,1.16-0.43c0.25-0.06,0.33-0.04,0.17,0.21c-0.15,0.25-0.56,0.73-1.18,1.7c-0.58,0.99-1.44,2.51-2.14,4.95
			c-0.34,1.22-0.65,2.68-0.77,4.47c-0.06,0.92-0.06,1.87,0.01,3.07c0.02,0.3,0.05,0.63,0.08,0.94c0.04,0.34,0.08,0.71,0.14,1.08
			c0.06,0.44,0.13,0.8,0.23,1.37l0.2,0.93l0.16,0.65c0.09,0.32,0.08,0.36,0.39,1.42c-4.75-15.87,4.26-32.59,20.13-37.34
			S983.59,718.58,988.35,734.45z"/>
		<path fill="#F90B3C" d="M969.19,740.19l0.16,0.56l0.07,0.3l0.11,0.48c0.06,0.31,0.1,0.55,0.14,0.81c0.07,0.49,0.12,0.95,0.15,1.39
			c0.06,0.88,0.04,1.68-0.01,2.46c-0.12,1.55-0.41,2.99-0.81,4.32c-0.81,2.65-2.01,4.89-3.33,6.79c-2.69,3.78-5.74,6.37-8.73,8.52
			c-1.5,1.08-3.02,2.03-4.54,2.87c-1.52,0.86-3.03,1.62-4.54,2.34c-3.02,1.41-6.03,2.62-9.03,3.66c-6.02,2.03-11.99,3.52-17.93,4.77
			c-5.95,1.17-11.87,2.12-17.78,2.79c-11.81,1.41-23.55,2.01-35.23,2.22c-5.84,0.06-11.67,0.09-17.49-0.05l-8.71-0.24l-4.66-0.17
			c-1.69-0.09-3.39-0.24-5.07-0.47c-6.75-0.89-13.33-2.95-19.25-5.85c-5.94-2.88-11.26-6.48-16.07-10.32
			c-9.65-7.7-17.51-16.26-25.56-24.04c-8-7.82-16.15-15.03-25.57-20.17c-4.7-2.57-9.7-4.57-14.96-5.98
			c-5.26-1.41-10.78-2.09-16.41-2.32l-0.01,0c-1.02-0.04-1.8-0.9-1.76-1.92c0.04-0.86,0.66-1.56,1.47-1.73
			c11.54-2.37,24.18-1.49,35.75,2.75c5.78,2.09,11.28,4.88,16.42,8.07c5.17,3.16,9.98,6.73,14.62,10.33
			c9.23,7.25,17.76,14.82,26.53,20.81c4.39,2.97,8.82,5.53,13.33,7.38c4.51,1.84,9.07,3.02,13.71,3.41c1.16,0.1,2.33,0.15,3.5,0.16
			c0.61-0.01,1.12,0,1.81-0.02l2.12-0.09l8.48-0.39c5.64-0.32,11.27-0.59,16.88-1c11.21-0.76,22.36-1.77,33.3-3.18
			c5.47-0.72,10.87-1.55,16.18-2.57c5.3-0.98,10.5-2.16,15.38-3.68c4.88-1.43,9.54-3.26,13.07-5.38c1.76-1.02,3.18-2.16,3.92-2.99
			c0.4-0.4,0.6-0.69,0.71-0.76c0.05-0.03,0.07,0,0.1,0.13c0.02,0.07,0.04,0.15,0.07,0.32l0.06,0.32l0.06,0.28l0.05,0.22l0.17,0.6
			c-1.58-5.29,1.42-10.86,6.71-12.45C962.03,731.89,967.6,734.9,969.19,740.19z"/>
	</g>
</g>
<g id="body">
	<polygon fill="#A3463F" stroke="#1F003B" stroke-width="20" stroke-miterlimit="10" points="863.37,772.67 885.26,864.33 
		913.94,864.33 947.83,772.67 	"/>
	
		<path fill="#F90B3C" stroke="#1F003B" stroke-width="20" stroke-linecap="round" stroke-linejoin="round" stroke-miterlimit="10" d="
		M822.18,864.33L822.18,864.33h103.76v-28.15h-75.6C834.79,836.18,822.18,848.78,822.18,864.33z"/>
	<polygon fill="#A3463F" stroke="#1F003B" stroke-width="20" stroke-miterlimit="10" points="1055.63,772.67 1033.74,864.33 
		1005.06,864.33 971.17,772.67 	"/>
	
		<path fill="#F90B3C" stroke="#1F003B" stroke-width="20" stroke-linecap="round" stroke-linejoin="round" stroke-miterlimit="10" d="
		M1096.82,864.33L1096.82,864.33H993.06v-28.15h75.6C1084.21,836.18,1096.82,848.78,1096.82,864.33z"/>
	<path fill="#A3463F" stroke="#1F003B" stroke-width="20" stroke-miterlimit="10" d="M959.5,472.54h-53.9
		c0,0-39.32,54.72-53.03,78.08c-11.76,20.04-51.93,99.81-2.1,152.68l12.9,69.37h96.13h96.13l12.9-69.37
		c49.84-52.87,9.66-132.64-2.1-152.68c-13.7-23.36-53.03-78.08-53.03-78.08H959.5z"/>
	<path fill="#FDC286" d="M1001.69,739.43c5.67-4.89,8.33-22.62-13.81-25.54c-20.59-2.72-25.93,1.14-24.5,8.61
		C965.44,733.23,988.67,750.65,1001.69,739.43z"/>
	<path fill="#FDC286" d="M955.5,667.99c0,0-8.07,13.37-32.68,19.1c-17.23,4.01-18.89,25.26,6.42,22.98
		C967.39,706.62,955.5,667.99,955.5,667.99z"/>
	<path fill="#FDC286" d="M963.5,667.99c0,0,8.07,13.37,32.68,19.1c17.23,4.01,18.89,25.26-6.42,22.98
		C951.61,706.62,963.5,667.99,963.5,667.99z"/>
	<path fill="#FDC286" d="M917.31,739.43c-5.67-4.89-8.33-22.62,13.81-25.54c20.59-2.72,25.93,1.14,24.5,8.61
		C953.56,733.23,930.33,750.65,917.31,739.43z"/>
	<polygon fill="#1F003B" stroke="#1F003B" stroke-width="20" stroke-miterlimit="10" points="959.5,772.67 863.37,772.67 
		867.11,788.34 937.29,801.17 981.71,801.17 1051.89,788.34 1055.63,772.67 	"/>
</g>
<g id="head">
	<g>
		<path fill="#F77568" d="M794.41,362.53c-40.01,0-76.71-28.72-81.82-64.01c-4.67-32.26,4.83-65.71,25.41-89.48
			c17.69-20.43,42.25-31.68,69.17-31.68c1.66,0,3.35,0.04,5.03,0.13c30.03,1.49,56.24,18.58,70.09,45.71
			c14.35,28.1,12.61,61.92-4.54,88.26C856.3,344.39,826.7,362.53,794.41,362.53C794.41,362.53,794.41,362.53,794.41,362.53z"/>
		<path fill="#1F003B" d="M807.16,187.36c1.49,0,3,0.04,4.53,0.11c58.3,2.89,89.36,69.84,57.67,118.52
			c-21.9,33.65-49.54,46.54-74.95,46.54c-36.08,0-67.66-25.99-71.92-55.45C714.96,245.16,748.36,187.36,807.16,187.36
			 M807.16,167.36c-29.86,0-57.11,12.48-76.73,35.14c-22.45,25.94-32.82,62.37-27.74,97.46c2.83,19.56,14,37.89,31.46,51.62
			c17.18,13.52,38.58,20.96,60.26,20.96c35.79,0,68.37-19.76,91.72-55.63c9.74-14.96,15.21-32.22,15.82-49.91
			c0.58-16.71-3.14-33.43-10.76-48.35c-15.5-30.36-44.85-49.48-78.5-51.15C810.84,167.4,808.98,167.36,807.16,167.36L807.16,167.36z
			"/>
	</g>
	<path fill="#F90B3C" d="M848.48,289.3c9.27-96.42-81.15-81.68-81.15-81.68s-9.93,5.96-10.6,13.66s52.27,27.8,40.17,42.15
		c-12.7,15.06-23.95,39.67,5.7,63.99C830.74,350.5,846.96,305.14,848.48,289.3z"/>
	<path fill="#FFDD94" d="M869.36,305.99c31.69-48.69,0.63-115.63-57.67-118.52c-29.47-1.46-52.92,11.37-68.52,30.99
		c0,0,42.04-33.81,93.57,12.88C867.26,258.99,869.36,305.99,869.36,305.99z"/>
	<g>
		<path fill="#1F003B" d="M848.48,289.3c-0.92-2.96-1.59-5.84-2.2-8.67c-0.79-2.83-1.43-5.6-2.09-8.32l-1.14-4.02
			c-0.38-1.33-0.66-2.66-1.14-3.93c-0.87-2.57-1.56-5.13-2.57-7.54c-1.74-4.92-3.97-9.41-6.42-13.53c-0.32-0.51-0.64-1.01-0.94-1.53
			c-0.31-0.51-0.59-1.04-0.97-1.5c-0.72-0.94-1.38-1.91-2.06-2.86l-2.25-2.67c-0.35-0.47-0.77-0.87-1.18-1.28l-1.22-1.24
			c-6.55-6.54-14.94-11.47-24.68-15.3c-4.86-1.9-10.01-3.59-15.39-5.09c-2.69-0.74-5.44-1.46-8.25-2.16l-8.65-2.05
			c2.68-1.52,5.54-2.6,8.44-3.52c2.91-0.92,5.89-1.56,8.91-2.09c6.05-0.95,12.29-1.15,18.57-0.42c6.28,0.71,12.6,2.36,18.63,5.09
			c6.02,2.72,11.73,6.56,16.54,11.38l1.76,1.85c0.58,0.62,1.18,1.22,1.68,1.91c1.04,1.35,2.1,2.68,3.08,4.05
			c0.89,1.44,1.79,2.87,2.64,4.32c0.45,0.71,0.79,1.48,1.16,2.23l1.06,2.27c2.66,6.09,4.36,12.46,4.86,18.77
			c0.42,3.15,0.33,6.28,0.27,9.38c0.02,1.55-0.2,3.08-0.38,4.61c-0.2,1.53-0.37,3.04-0.59,4.55c-0.6,3-1.31,5.95-2.14,8.84
			C850.84,283.71,849.78,286.55,848.48,289.3z"/>
	</g>
	<g>
		<path fill="#FFDD94" d="M912.35,305.09c-18.94,0-34-4.42-44.74-13.12c-7.4-6-10.34-17.11-7.86-29.7
			c3.1-15.71,14.23-32.36,31.33-46.87c21.08-17.87,50.68-32.62,87.99-43.84c0.95-0.29,1.92-0.42,2.88-0.42
			c2.68,0,5.29,1.08,7.2,3.06c2.6,2.7,3.47,6.62,2.27,10.17l-2.85,8.36c10.41-2.67,23.82-5.2,37.37-5.2c3.82,0,7.54,0.2,11.04,0.61
			c4.26,0.49,7.73,3.63,8.63,7.82c0.91,4.19-0.96,8.49-4.63,10.69c-0.08,0.05-4.11,2.48-9.24,6.15c6.3,2.09,12.26,5.4,15.72,10.65
			c3.55,5.38,4.02,11.95,1.32,18.49c-8.19,19.89-40.35,36.48-53.8,42.69C966.83,297.63,936.7,305.09,912.35,305.09z"/>
		<path fill="#1F003B" d="M981.95,181.13L981.95,181.13 M981.95,181.13l-9.23,27.05c0,0,26.65-10.66,53.21-10.66
			c3.32,0,6.64,0.17,9.91,0.54c0,0-16.86,10.12-26.98,21.2c0,0,38.22,0.57,30.69,18.86c-9.81,23.83-77.77,56.95-127.2,56.95
			c-15.38,0-28.96-3.2-38.44-10.89C859.75,272.71,869.56,214.93,981.95,181.13 M981.95,161.13c-0.41,0-0.81,0.01-1.22,0.04
			c-1.73,0.1-3.41,0.43-4.99,0.95c-38.42,11.6-69.07,26.96-91.12,45.65c-24.13,20.46-32.18,39.88-34.68,52.56
			c-3.21,16.29,1.04,31.02,11.38,39.4c12.57,10.19,29.74,15.36,51.04,15.36c25.75,0,57.4-7.79,86.84-21.38
			c18.03-8.32,49.66-25.62,58.86-47.96c3.93-9.56,3.12-19.69-2.22-27.8c-1.5-2.28-3.3-4.34-5.39-6.2
			c4.41-4.71,6.37-11.38,4.95-17.91c-1.81-8.37-8.76-14.66-17.27-15.64c-3.88-0.45-7.98-0.67-12.18-0.67
			c-8.26,0-16.46,0.87-24.04,2.15c-0.73-10.12-8.97-18.15-19.18-18.53C982.47,161.14,982.21,161.13,981.95,161.13L981.95,161.13z"/>
	</g>
	<g>
		<path fill="#F77568" d="M1150.59,362.53c-32.3,0-61.89-18.14-83.33-51.08c-17.15-26.34-18.88-60.16-4.54-88.26
			c13.85-27.13,40.06-44.22,70.09-45.71c1.68-0.08,3.37-0.13,5.03-0.13c26.92,0,51.48,11.25,69.17,31.68
			c20.58,23.77,30.08,57.22,25.41,89.48C1227.3,333.82,1190.6,362.53,1150.59,362.53z"/>
		<path fill="#1F003B" d="M1137.84,187.36c58.79,0,92.19,57.8,84.68,109.73c-4.26,29.46-35.85,55.45-71.92,55.45
			c-25.41,0-53.05-12.89-74.95-46.54c-31.69-48.69-0.63-115.63,57.67-118.52C1134.84,187.39,1136.35,187.36,1137.84,187.36
			 M1137.84,167.36C1137.84,167.36,1137.84,167.36,1137.84,167.36C1137.84,167.36,1137.84,167.36,1137.84,167.36
			C1137.84,167.36,1137.84,167.36,1137.84,167.36L1137.84,167.36c-1.83,0-3.68,0.05-5.52,0.14c-33.65,1.67-63,20.79-78.5,51.15
			c-7.62,14.93-11.34,31.65-10.76,48.35c0.61,17.69,6.09,34.95,15.82,49.91c23.35,35.87,55.92,55.63,91.72,55.63
			c21.68,0,43.08-7.44,60.26-20.96c17.46-13.73,28.63-32.07,31.46-51.62c5.08-35.09-5.29-71.52-27.74-97.46
			C1194.95,179.84,1167.7,167.36,1137.84,167.36L1137.84,167.36L1137.84,167.36z"/>
	</g>
	<path fill="#F90B3C" d="M1096.52,289.3c-9.27-96.42,81.15-81.68,81.15-81.68s9.93,5.96,10.6,13.66s-52.27,27.8-40.17,42.15
		c12.7,15.06,23.95,39.67-5.7,63.99C1114.26,350.5,1098.04,305.14,1096.52,289.3z"/>
	<path fill="#FFDD94" d="M1075.64,305.99c-31.69-48.69-0.63-115.63,57.67-118.52c29.47-1.46,52.92,11.37,68.52,30.99
		c0,0-42.04-33.81-93.57,12.88C1077.74,258.99,1075.64,305.99,1075.64,305.99z"/>
	<g>
		<path fill="#1F003B" d="M1096.52,289.3c-1.3-2.75-2.36-5.58-3.34-8.46c-0.83-2.89-1.53-5.85-2.14-8.84
			c-0.22-1.5-0.39-3.02-0.59-4.55c-0.18-1.53-0.39-3.06-0.38-4.61c-0.06-3.1-0.15-6.23,0.27-9.38c0.5-6.31,2.2-12.68,4.86-18.77
			l1.06-2.27c0.36-0.75,0.7-1.52,1.16-2.23c0.85-1.45,1.75-2.88,2.64-4.32c0.99-1.38,2.05-2.7,3.08-4.05
			c0.5-0.69,1.1-1.29,1.68-1.91l1.76-1.85c4.81-4.81,10.52-8.66,16.54-11.38c6.03-2.73,12.35-4.38,18.63-5.09
			c6.28-0.73,12.52-0.53,18.57,0.42c3.02,0.53,6,1.17,8.91,2.09c2.9,0.92,5.76,1.99,8.44,3.52l-8.65,2.05
			c-2.81,0.7-5.56,1.41-8.25,2.16c-5.38,1.5-10.53,3.18-15.39,5.09c-9.73,3.83-18.13,8.76-24.68,15.3l-1.22,1.24
			c-0.41,0.41-0.83,0.81-1.18,1.28l-2.25,2.67c-0.68,0.96-1.34,1.92-2.06,2.86c-0.38,0.46-0.66,0.99-0.97,1.5
			c-0.3,0.51-0.63,1.02-0.94,1.53c-2.45,4.13-4.68,8.62-6.42,13.53c-1.02,2.4-1.7,4.97-2.57,7.54c-0.47,1.27-0.75,2.61-1.14,3.93
			l-1.14,4.02c-0.67,2.72-1.31,5.49-2.09,8.32C1098.11,283.46,1097.43,286.34,1096.52,289.3z"/>
	</g>
	<g>
		<path fill="#FFC384" d="M959.5,554.62c-48.14,0-93.48-15.38-127.67-43.31c-34.78-28.41-53.93-66.37-53.93-106.87
			c0-40.5,19.15-78.46,53.93-106.87c34.19-27.93,79.53-43.31,127.67-43.31s93.48,15.38,127.67,43.31
			c34.78,28.41,53.93,66.36,53.93,106.87c0,40.5-19.15,78.46-53.93,106.87C1052.98,539.24,1007.64,554.62,959.5,554.62z"/>
		<path fill="#1F003B" d="M959.5,264.26c94.77,0,171.6,62.76,171.6,140.18s-76.83,140.18-171.6,140.18s-171.6-62.76-171.6-140.18
			S864.73,264.26,959.5,264.26 M959.5,244.26c-50.43,0-98.02,16.18-133.99,45.57c-17.89,14.61-31.98,31.72-41.88,50.85
			c-10.43,20.15-15.72,41.6-15.72,63.76c0,22.16,5.29,43.61,15.72,63.76c9.91,19.13,24,36.24,41.88,50.85
			c35.97,29.39,83.56,45.57,133.99,45.57s98.02-16.18,133.99-45.57c17.89-14.61,31.98-31.72,41.88-50.85
			c10.43-20.15,15.72-41.6,15.72-63.76c0-22.16-5.29-43.61-15.72-63.76c-9.91-19.13-24-36.24-41.88-50.85
			C1057.52,260.44,1009.93,244.26,959.5,244.26L959.5,244.26z"/>
	</g>
	<path fill="#A3463F" d="M1121.58,358.39c0.87,5.87,1.37,27.83,1.37,33.9c0,77.42-73.18,124.18-163.45,124.18
		s-163.45-46.76-163.45-124.18c0-6.07,0.5-28.04,1.37-33.9c-6.14,14.43-9.52,29.91-9.52,46.05c0,77.42,76.83,140.18,171.6,140.18
		s171.6-62.76,171.6-140.18C1131.1,388.3,1127.72,372.82,1121.58,358.39z"/>
	<g>
		<path fill="#EAA0FF" d="M936.5,287.38c-134.7,0-146.56,70.06-146.56,70.06c0-29.47,0.96-64.29,12.07-78.22
			c27.47-34.42,70.47-46.96,134.49-46.96s153.02,12.54,180.49,46.96c11.12,13.93,12.07,48.76,12.07,78.22
			C1129.06,357.44,1071.2,287.38,936.5,287.38"/>
		<path fill="#9700D1" d="M1127.71,317.45c-1.48-16.21-74.19-59.2-191.21-59.2s-143.73,42.99-145.21,59.2
			c-1.17,12.86-1.36,26.95-1.36,39.99c0,0,11.87-70.06,146.56-70.06s192.56,70.06,192.56,70.06
			C1129.06,344.4,1128.88,330.31,1127.71,317.45z"/>
		<g>
			<path fill="#1F003B" d="M936.5,288.18c-14.45,0.28-28.88,1.33-43.11,3.55c-14.21,2.23-28.26,5.57-41.58,10.73
				c-13.3,5.14-25.92,12.13-36.41,21.49c-5.24,4.67-9.91,9.93-13.73,15.71c-1.91,2.89-3.6,5.91-5.02,9.02
				c-0.71,1.56-1.35,3.14-1.89,4.73c-0.28,0.8-0.52,1.6-0.75,2.39c-0.11,0.4-0.21,0.79-0.31,1.18c-0.09,0.36-0.18,0.83-0.22,1.04
				l-7.14-0.6c-0.14-10.42-0.18-20.89,0.29-31.4c0.53-10.52,1.38-21.1,3.93-31.73c1.35-5.3,3.06-10.67,6.31-15.79
				c0.38-0.64,0.87-1.26,1.32-1.89c0.45-0.62,0.86-1.08,1.29-1.62c0.85-1.05,1.69-2.11,2.6-3.12c1.76-2.06,3.62-4.04,5.54-5.97
				c7.67-7.7,16.54-14.22,26.09-19.39c9.55-5.18,19.72-9,30.05-11.87c5.17-1.45,10.39-2.62,15.63-3.61
				c5.24-0.99,10.5-1.82,15.77-2.45c10.54-1.3,21.1-2.01,31.64-2.32c10.54-0.32,21.06-0.29,31.57,0.05
				c21.02,0.63,42.02,2.36,62.93,5.52c10.45,1.57,20.88,3.51,31.25,5.99c10.37,2.48,20.69,5.5,30.81,9.51
				c10.11,4,20.09,8.98,29.26,16.06c2.28,1.79,4.51,3.71,6.6,5.83c1.05,1.05,2.07,2.17,3.06,3.32c0.5,0.61,0.96,1.12,1.48,1.81
				c0.51,0.7,1.07,1.4,1.5,2.11c1.85,2.83,3.2,5.69,4.3,8.5c1.1,2.82,1.95,5.61,2.67,8.38c1.4,5.53,2.24,10.99,2.87,16.39
				c0.63,5.4,1.01,10.75,1.28,16.08c0.47,10.65,0.39,21.18,0.23,31.64l-0.31,20.43l-13.01-15.64l-0.37-0.45l-0.47-0.54l-0.99-1.11
				c-0.68-0.74-1.39-1.48-2.1-2.22c-1.44-1.47-2.93-2.92-4.46-4.34c-3.05-2.85-6.28-5.56-9.55-8.22
				c-6.57-5.3-13.54-10.2-20.78-14.69c-14.51-8.94-30.01-16.45-46.16-22.41c-8.08-2.96-16.29-5.64-24.63-7.93
				c-8.34-2.3-16.8-4.19-25.32-5.88C971.37,291.2,954,289.21,936.5,288.18v-1.6c17.57-1.02,35.29-0.6,52.92,1.3
				c8.82,0.94,17.6,2.32,26.33,4.07c8.72,1.77,17.4,3.87,25.94,6.51c17.09,5.22,33.79,12.08,49.5,20.95
				c7.87,4.41,15.5,9.29,22.82,14.69c3.66,2.7,7.21,5.58,10.67,8.6c1.73,1.51,3.43,3.07,5.11,4.68c0.84,0.81,1.67,1.63,2.5,2.48
				l1.24,1.3l0.63,0.69l0.7,0.8l-13.32,4.79c-0.17-10.33-0.48-20.6-1.19-30.71c-0.7-10.07-1.82-20.13-4.19-29.24
				c-1.18-4.5-2.77-8.8-4.79-11.86c-0.24-0.41-0.51-0.71-0.76-1.07c-0.26-0.35-0.67-0.81-0.99-1.21c-0.71-0.82-1.44-1.63-2.23-2.41
				c-1.57-1.56-3.25-3.08-5.05-4.52c-7.24-5.75-15.99-10.27-25.08-14.14c-18.33-7.61-38.22-12.62-58.3-16.27
				c-20.13-3.59-40.6-5.79-61.11-6.92c-10.26-0.53-20.54-0.76-30.78-0.65c-10.25,0.1-20.46,0.6-30.58,1.64
				c-5.06,0.51-10.09,1.2-15.08,2.04c-4.99,0.84-9.94,1.86-14.81,3.12c-9.74,2.5-19.22,5.86-28.07,10.37
				c-8.85,4.53-17.04,10.25-24.21,17.11c-1.79,1.71-3.53,3.49-5.2,5.34c-0.86,0.9-1.65,1.86-2.46,2.81
				c-0.39,0.46-0.85,0.97-1.17,1.4c-0.31,0.43-0.66,0.81-0.94,1.29c-2.44,3.61-4.14,8.22-5.45,12.94
				c-2.54,9.55-3.67,19.78-4.41,29.99c-0.72,10.24-0.99,20.57-1.13,30.94l-7.14-0.6c0.13-0.68,0.24-1.09,0.38-1.61
				c0.13-0.49,0.27-0.97,0.42-1.43c0.3-0.94,0.61-1.86,0.96-2.77c0.68-1.81,1.46-3.56,2.3-5.28c1.69-3.43,3.65-6.68,5.83-9.77
				c4.36-6.18,9.57-11.67,15.29-16.46c11.46-9.61,24.84-16.44,38.67-21.31c6.93-2.45,14-4.39,21.14-5.98
				c7.14-1.59,14.35-2.77,21.58-3.64c14.47-1.73,29.03-2.26,43.54-2.03V288.18z"/>
		</g>
	</g>
	<g>
		<path fill="none" d="M955.14,660.02"/>
	</g>
</g>
<g id="face">
	<g>
		<path fill="#FFFFFF" d="M928.5,439.08c0,7.84-14.7,14.22-30.92,14.31v63.77c0,10.91,8.85,19.76,19.76,19.76h22.33
			c10.91,0,19.76-8.85,19.76-19.76v-63.77C943.2,453.3,928.5,446.92,928.5,439.08z"/>
		<path fill="#1F003B" d="M928.5,439.08c-0.01,1.53-0.53,3.03-1.36,4.34c-0.83,1.31-1.88,2.5-3.03,3.58
			c-2.31,2.16-4.95,4.08-7.76,5.83c-2.81,1.73-5.82,3.22-8.96,4.39c-3.15,1.14-6.43,2-9.78,2.32l6.11-6.14
			c0.07,1.1-0.03,2.21-0.09,3.31c-0.07,1.1-0.05,2.21-0.05,3.31v6.62v13.25v26.49V513v3.31v0.83l0.04,0.59
			c0.04,0.38,0,0.78,0.09,1.15c0.35,3.06,1.83,5.92,4.01,8.1c2.21,2.17,5.13,3.51,8.18,3.87l1.16,0.06l0.29,0.02l0.41,0h0.83h3.31
			h6.62h6.62h3.31h0.83l0.41,0l0.29-0.02l1.16-0.06c3.05-0.35,5.97-1.7,8.18-3.87c2.17-2.18,3.66-5.05,4.01-8.1
			c0.09-0.38,0.05-0.77,0.09-1.15l0.04-0.59v-0.83V513v-6.62v-26.49v-13.25c0.01-4.42,0.02-8.83-0.1-13.25l6.07,6.1
			c-6.7-0.79-13.1-3.33-18.72-6.75c-2.8-1.73-5.45-3.61-7.77-5.77c-1.15-1.08-2.21-2.26-3.04-3.57
			C929.05,442.1,928.49,440.62,928.5,439.08z M928.5,439.08c0.03,0.76,0.18,1.51,0.45,2.23c0.28,0.71,0.71,1.34,1.16,1.94
			c0.97,1.16,2.18,2.07,3.5,2.78c2.64,1.41,5.62,2.05,8.58,2.3c2.97,0.24,5.93,0.14,8.82-0.09c2.89-0.22,5.71-0.59,8.46-0.94
			c2.96-0.37,5.67,1.72,6.05,4.69c0.03,0.27,0.05,0.53,0.04,0.79l-0.02,0.62c-0.12,4.42-0.11,8.83-0.1,13.25v13.25v26.49V513v3.31
			v0.83l-0.05,1.07c-0.05,0.72-0.04,1.44-0.17,2.15c-0.67,5.74-3.43,11.16-7.51,15.19c-4.09,4.04-9.6,6.62-15.33,7.24
			c-0.71,0.06-1.43,0.09-2.15,0.12l-0.54,0.02l-0.42,0h-0.83h-3.31h-6.62h-6.62h-3.31h-0.83l-0.42,0l-0.54-0.02
			c-0.72-0.03-1.43-0.06-2.15-0.12c-5.73-0.62-11.24-3.2-15.33-7.24c-4.08-4.03-6.84-9.46-7.51-15.19
			c-0.13-0.71-0.12-1.43-0.17-2.15l-0.05-1.07v-0.83V513v-6.62v-26.49v-13.25v-6.62c0-1.1,0.02-2.21-0.05-3.31
			c-0.06-1.1-0.15-2.21-0.09-3.31l0.05-0.77c0.19-3.16,2.9-5.56,6.06-5.37c1.37,0.08,2.76,0.33,4.17,0.47
			c1.41,0.15,2.83,0.29,4.27,0.41c2.88,0.23,5.84,0.35,8.81,0.12c2.95-0.24,5.94-0.84,8.59-2.24c1.32-0.7,2.53-1.61,3.5-2.76
			c0.45-0.6,0.88-1.23,1.17-1.93C928.33,440.6,928.48,439.84,928.5,439.08z"/>
	</g>
	<g>
		<path fill="#1F003B" d="M928.5,439.08c1.15,1.94,2.77,2.74,4.32,3.36c1.6,0.57,3.24,0.92,4.93,1.15c3.34,0.49,6.78,0.6,10.15,0.64
			c6.76,0.01,13.41-0.43,19.67-1.43c6.27-1.03,12.05-2.53,17.44-5.19c2.69-1.36,5.4-3.01,8.02-5.32c1.33-1.14,2.63-2.43,3.96-3.87
			c1.3-1.45,2.58-3.04,4.02-4.75c1.51,4.17,1.67,8.73,0.68,13.27c-0.98,4.53-3.27,8.95-6.42,12.62c-3.14,3.71-7.11,6.65-11.33,8.78
			c-4.23,2.14-8.72,3.52-13.22,4.22c-9.01,1.39-18.08,0.39-26.38-3.03c-4.13-1.73-8.11-4.1-11.48-7.45
			c-0.82-0.85-1.63-1.75-2.34-2.73c-0.7-1.01-1.36-2.04-1.84-3.2c-0.5-1.14-0.82-2.39-0.9-3.62
			C927.72,441.27,927.93,440.05,928.5,439.08z"/>
	</g>
	<circle fill="#1F003B" cx="849.52" cy="358.78" r="36"/>
	<path fill="#1F003B" d="M956.86,413.21c0,11.3-12.7,25.87-28.36,25.87s-28.36-14.57-28.36-25.87c0-11.3,12.7-20.46,28.36-20.46
		S956.86,401.92,956.86,413.21z"/>
	<g>
		<path fill="#1F003B" d="M856,423.66c1.43,1.72,2.71,3.31,4,4.76c1.33,1.43,2.62,2.73,3.95,3.87c2.62,2.31,5.33,3.97,8.02,5.33
			c5.4,2.66,11.19,4.16,17.46,5.17c6.26,0.98,12.9,1.42,19.66,1.41c3.37-0.04,6.8-0.15,10.14-0.64c1.69-0.23,3.32-0.58,4.93-1.14
			c1.55-0.61,3.17-1.4,4.33-3.34c0.58,0.97,0.79,2.19,0.73,3.43c-0.08,1.23-0.4,2.48-0.9,3.62c-0.48,1.16-1.14,2.19-1.84,3.21
			c-0.71,0.98-1.51,1.89-2.34,2.74c-3.37,3.35-7.35,5.73-11.48,7.46c-8.3,3.42-17.38,4.42-26.38,3.01
			c-4.5-0.71-8.98-2.09-13.21-4.24c-4.22-2.13-8.18-5.07-11.32-8.78c-3.15-3.68-5.43-8.09-6.42-12.61
			C854.35,432.39,854.5,427.83,856,423.66z"/>
	</g>
	<circle fill="#FFFFFF" cx="866.45" cy="338.13" r="8.16"/>
	<circle fill="#FFFFFF" cx="858.05" cy="356.33" r="6.11"/>
	<ellipse fill="#EAA0FF" cx="929.5" cy="400.83" rx="13.45" ry="8.07"/>
	<g>
		<path fill="#1F003B" d="M789.15,412.36c4.68-1.96,9.34-2.87,13.99-3.53c4.65-0.6,9.28-0.82,13.91-0.69
			c4.63,0.12,9.24,0.6,13.85,1.46c4.6,0.91,9.2,2.09,13.77,4.32c-4.68,1.97-9.34,2.89-13.99,3.54c-4.65,0.6-9.28,0.82-13.91,0.68
			c-4.63-0.13-9.24-0.61-13.85-1.47C798.31,415.75,793.72,414.58,789.15,412.36z"/>
	</g>
	<g>
		<path fill="#1F003B" d="M789.15,434.05c4.25-2.41,8.58-3.77,12.93-4.88c4.35-1.08,8.73-1.71,13.13-2.05
			c4.4-0.32,8.83-0.33,13.29,0.1c4.46,0.46,8.94,1.18,13.5,2.95c-4.25,2.42-8.58,3.79-12.93,4.89c-4.35,1.08-8.73,1.71-13.14,2.03
			c-4.41,0.31-8.83,0.32-13.29-0.11C798.19,436.53,793.71,435.81,789.15,434.05z"/>
	</g>
	<circle fill="#1F003B" cx="1007.48" cy="358.78" r="36"/>
	<circle fill="#FFFFFF" cx="1024.4" cy="338.13" r="8.16"/>
	<circle fill="#FFFFFF" cx="1016.01" cy="356.33" r="6.11"/>
	<g>
		<path fill="#1F003B" d="M1067.85,412.36c-4.57,2.22-9.16,3.39-13.77,4.31c-4.61,0.86-9.22,1.34-13.85,1.47
			c-4.63,0.14-9.26-0.08-13.91-0.68c-4.65-0.65-9.3-1.57-13.99-3.54c4.57-2.23,9.16-3.41,13.77-4.32c4.61-0.86,9.22-1.34,13.85-1.46
			c4.63-0.13,9.26,0.09,13.91,0.69C1058.51,409.49,1063.17,410.4,1067.85,412.36z"/>
	</g>
	<g>
		<path fill="#1F003B" d="M1067.85,434.05c-4.56,1.76-9.04,2.48-13.5,2.94c-4.46,0.43-8.89,0.42-13.29,0.11
			c-4.4-0.32-8.79-0.96-13.14-2.03c-4.35-1.1-8.68-2.47-12.93-4.89c4.56-1.77,9.04-2.5,13.5-2.95c4.46-0.43,8.89-0.42,13.29-0.1
			c4.4,0.33,8.79,0.97,13.13,2.05C1059.27,430.28,1063.6,431.65,1067.85,434.05z"/>
	</g>
	<g>
		<path fill="#1F003B" d="M928.5,439.08c1.67,5.58,2.51,11.15,3.13,16.73c0.59,5.58,0.86,11.15,0.86,16.73
			c0.01,5.58-0.27,11.15-0.85,16.73c-0.62,5.58-1.46,11.15-3.15,16.73c-1.68-5.58-2.52-11.15-3.15-16.73
			c-0.59-5.58-0.86-11.15-0.85-16.73c0-5.58,0.28-11.15,0.86-16.73C925.99,450.23,926.83,444.66,928.5,439.08z"/>
	</g>
</g>
<g id="hands">
	<path fill="#FDC286" d="M1056.43,550.62c84.28-22.47,99.52,56.02,99.52,56.02c54.65,15.03,56.36,55.65,52.65,76.5
		c-5.83,32.71-27.9,60.31-84.71,100.65c-17.68,12.55-42.17,8.43-54.64-9.3h0c-12.04-17.11-8.45-40.67,8.14-53.42l46.61-35.83
		c0,0-28.47-21.54-38.56-46.34c-7.25,14.29-51.71,55.79-121.59,21.12l-3.36-80.59C990.42,527.62,1056.43,550.62,1056.43,550.62z"/>
	<path fill="#FDC286" d="M862.57,550.62c-30.25-20.31-58.29-12.62-69.36-3.57c-27.88-29.44-60.96-5-60.96-5
		c0.55-29.87-25.54-88.62-25.54-88.62h-30.09c0.96,33.77-22.88,96.49,0,141.51c45.54,32.19,64.92,49.98,135.97,26.78
		c0,0,72.68,72.99,142.56,38.32l3.36-80.59C928.58,527.62,862.57,550.62,862.57,550.62z"/>
	<path fill="#A3463F" d="M941.05,637.52c-31.23,18.77-99.44-5.35-128.48-43.79c-38.31,23.67-91.15,23.87-135.96,1.2
		c45.54,32.19,64.92,49.98,135.97,26.78c0,0,74.68,72.99,144.56,38.32l1.36-80.59C947.83,614.02,956.32,628.35,941.05,637.52z"/>
	<path fill="#FFE6BE" d="M851.94,573.83c53.68-29.21,106.56,5.6,106.56,5.6C939.94,543.71,868.41,541.31,851.94,573.83z"/>
	<path fill="#FFE6BE" d="M1067.06,573.83c-53.68-29.21-106.56,5.6-106.56,5.6C979.06,543.71,1050.59,541.31,1067.06,573.83z"/>
	<path fill="#A3463F" d="M957.14,660.02h4.72c69.88,34.68,116.33-6.83,123.59-21.12c10.08,24.8,38.56,46.34,38.56,46.34
		l-46.61,35.83c-16.59,12.75-20.18,36.31-8.14,53.42h0c12.47,17.73,36.97,21.85,54.64,9.3c56.81-40.34,78.88-67.94,84.71-100.65v0
		c3.72-20.85,2-61.47-52.65-76.5c0,0,57.78,31.81,32.38,82.59c-3.36,6.72-6.08-3.98-4.65-17.17c-7.15,29.33-41.4,19.91-44.59,10.31
		c14.52-3.88,21.17-14.08,26.79-25.44c-43.12,11.37-67.7-18.54-78.74-43.4c-6.05,16.8-52.67,49.74-109.06,34.2
		c-15.27-4.21-16.14-41.06-17.59-68.3h-2"/>
	<g>
		<path fill="none" d="M841.61,721.08"/>
	</g>
	<g>
		<path fill="none" d="M849.75,774.49"/>
	</g>
	<g>
		<path fill="#1F003B" d="M960.5,579.44c1.62-4.28,3.55-8.59,6.21-12.49c1.21-2.05,2.75-3.85,4.22-5.75
			c0.78-0.91,1.6-1.78,2.41-2.67c0.42-0.43,0.82-0.89,1.25-1.31l1.33-1.23c0.9-0.8,1.76-1.68,2.72-2.42
			c0.95-0.76,1.92-1.5,2.89-2.24c0.99-0.72,2.02-1.36,3.04-2.05c1.01-0.7,2.08-1.31,3.15-1.91c4.28-2.42,8.84-4.39,13.53-5.89
			c4.69-1.53,9.52-2.58,14.38-3.31c4.87-0.73,9.77-0.99,14.66-1.02c4.89,0.03,9.78,0.31,14.62,0.97c2.43,0.33,4.85,0.7,7.27,1.2
			c1.21,0.25,2.43,0.5,3.65,0.8l1.85,0.47c0.66,0.18,1.19,0.32,2.04,0.59l0,0l-5.87-0.22c11.17-2.98,22.97-4.73,35.09-4.24
			c3.02,0.02,6.07,0.48,9.1,0.8c1.52,0.23,3.03,0.55,4.54,0.83c0.76,0.15,1.51,0.28,2.27,0.45l2.25,0.61l2.24,0.62l1.12,0.31
			c0.37,0.12,0.74,0.26,1.1,0.39l4.4,1.59c1.44,0.62,2.86,1.27,4.28,1.91l1.07,0.49l1.03,0.56l2.06,1.12
			c5.46,3.06,10.52,6.81,15.02,11.06c4.5,4.25,8.45,8.99,11.85,14.01c3.4,5.02,6.27,10.33,8.68,15.8c1.2,2.74,2.3,5.52,3.25,8.37
			c0.48,1.42,0.94,2.86,1.35,4.33c0.22,0.72,0.41,1.49,0.61,2.23c0.2,0.81,0.36,1.44,0.59,2.53l-7.16-7.74
			c4.53,1.33,9.07,2.72,13.51,4.59l1.67,0.67l1.65,0.75c1.1,0.51,2.21,1,3.3,1.54c2.17,1.13,4.34,2.24,6.45,3.54
			c4.22,2.55,8.3,5.48,12.07,8.86c3.75,3.4,7.19,7.24,10.14,11.45c2.95,4.21,5.43,8.77,7.31,13.53c1.89,4.76,3.21,9.69,4.03,14.65
			c0.84,4.96,1.14,9.95,1.03,14.88c-0.05,2.47-0.21,4.93-0.47,7.37c-0.26,2.43-0.6,4.91-1.11,7.27c-1.79,9.45-4.99,18.77-9.38,27.32
			c-4.38,8.57-9.82,16.38-15.74,23.55c-5.98,7.11-12.42,13.6-19.04,19.79l-5.04,4.51c-0.84,0.75-1.68,1.51-2.53,2.24l-2.58,2.16
			l-5.15,4.32l-5.24,4.16c-6.98,5.55-14.12,10.81-21.3,15.98c-0.92,0.66-1.75,1.28-2.74,1.96l-3.45,2.2
			c-1.16,0.72-2.42,1.28-3.63,1.91c-1.2,0.65-2.49,1.12-3.77,1.61c-5.12,1.94-10.56,3.06-16.03,3.22
			c-10.93,0.26-21.95-3.11-30.75-9.72c-8.75-6.62-15.29-16.06-18.03-26.73c-2.79-10.59-2.02-22.11,2.44-32.14
			c2.2-5.02,5.24-9.67,8.96-13.69c0.96-0.97,1.87-2.01,2.9-2.9l3.13-2.65l5.2-4l41.48-31.88l0.06,15.9
			c-1.26-0.97-2.24-1.77-3.31-2.65c-1.04-0.87-2.07-1.74-3.08-2.62c-2.03-1.76-4.01-3.57-5.95-5.41
			c-3.89-3.69-7.62-7.57-11.21-11.64c-3.56-4.11-6.93-8.46-10.06-13.07c-3.08-4.68-5.87-9.7-8.17-15.14l18.18,0.76l0,0.01
			c-0.96,1.85-1.97,3.46-3,4.87c-1.03,1.45-2.09,2.76-3.19,4.01c-2.19,2.51-4.48,4.76-6.9,6.84c-2.4,2.11-4.94,3.99-7.5,5.82
			c-2.61,1.75-5.28,3.4-8.04,4.87c-5.49,2.99-11.29,5.35-17.24,7.12c-1.47,0.48-2.98,0.84-4.48,1.22c-1.49,0.4-3.01,0.71-4.53,0.99
			c-0.76,0.14-1.52,0.29-2.28,0.42l-2.29,0.31l-2.29,0.31c-0.76,0.09-1.53,0.13-2.29,0.2c-12.24,1.15-24.44-0.35-35.85-3.54
			c-5.69-1.66-11.24-3.74-16.36-6.62c-5.17-2.75-9.96-6.18-14.25-10.22c2.98,0.33,5.76,0.97,8.57,1.45c2.81,0.47,5.52,1.1,8.27,1.54
			c5.43,1.07,10.8,1.89,16.1,2.65c10.63,1.35,21.25,1.19,31.35-0.87c0.63-0.13,1.26-0.24,1.89-0.38l1.87-0.47l1.86-0.47
			c0.62-0.17,1.22-0.38,1.83-0.56c1.22-0.37,2.45-0.71,3.64-1.16c1.2-0.42,2.41-0.82,3.57-1.33c4.71-1.89,9.21-4.22,13.46-6.87
			c4.24-2.68,8.23-5.72,11.79-9.08c1.76-1.69,3.49-3.4,4.95-5.18c0.73-0.89,1.45-1.77,2.04-2.62c0.64-0.86,1.09-1.66,1.47-2.29l0,0
			l10.4-17.4l7.78,18.16c1.67,3.9,3.8,7.79,6.29,11.59c2.57,3.77,5.41,7.46,8.5,11.02c3.12,3.54,6.43,6.98,9.89,10.27
			c1.73,1.65,3.5,3.26,5.31,4.82c0.9,0.79,1.81,1.55,2.71,2.31c0.88,0.73,1.88,1.53,2.63,2.11l10.35,7.99l-10.29,7.91l-41.48,31.88
			l-5.17,3.98c-0.61,0.54-1.23,1.06-1.86,1.58c-0.63,0.52-1.13,1.16-1.71,1.72c-2.19,2.38-3.98,5.11-5.29,8.08
			c-2.68,5.92-3.08,12.8-1.45,19.04c1.56,6.28,5.55,11.93,10.66,15.82c5.17,3.89,11.72,5.87,18.21,5.75
			c3.25-0.09,6.46-0.78,9.49-1.92c0.76-0.29,1.53-0.54,2.24-0.95c0.71-0.39,1.48-0.68,2.16-1.13c0.68-0.45,1.37-0.88,2.07-1.31
			c0.8-0.55,1.72-1.24,2.58-1.85c6.98-5.02,13.88-10.11,20.55-15.41l5-3.97l4.87-4.08l2.44-2.04c0.81-0.68,1.58-1.4,2.37-2.1
			l4.71-4.21c6.11-5.73,11.96-11.64,17.22-17.88c5.18-6.28,9.74-12.88,13.29-19.84c3.57-6.96,6.09-14.3,7.55-21.98
			c0.42-1.91,0.66-3.75,0.87-5.66c0.21-1.89,0.33-3.79,0.37-5.68c0.08-3.78-0.15-7.54-0.77-11.18c-1.2-7.29-3.85-14.11-7.98-19.96
			c-2.06-2.93-4.47-5.63-7.17-8.09c-2.72-2.44-5.75-4.62-8.99-6.58c-1.6-1-3.31-1.87-5.01-2.76c-0.86-0.42-1.76-0.81-2.63-1.22
			l-1.32-0.6l-1.36-0.54c-3.59-1.53-7.41-2.69-11.24-3.82l-5.92-1.75l-1.24-5.98c-0.05-0.24-0.21-0.92-0.33-1.42
			c-0.15-0.56-0.29-1.11-0.46-1.68c-0.32-1.13-0.68-2.27-1.07-3.41c-0.76-2.28-1.66-4.53-2.62-6.75c-1.95-4.42-4.25-8.67-6.92-12.6
			c-5.32-7.88-12.13-14.41-20.09-18.85l-1.5-0.82l-0.75-0.41l-0.78-0.35l-3.12-1.4l-3.23-1.16c-0.27-0.1-0.54-0.2-0.81-0.29
			l-0.84-0.22l-1.67-0.45l-1.67-0.46c-0.56-0.13-1.14-0.22-1.71-0.33c-1.15-0.2-2.28-0.46-3.43-0.64c-2.35-0.22-4.65-0.62-7.05-0.61
			c-9.51-0.39-19.37,0.99-29.08,3.59l-2.81,0.75l-3.05-0.97l0,0c-0.22-0.1-0.78-0.29-1.2-0.44l-1.42-0.47l-2.93-0.91
			c-1.98-0.58-4-1.11-6.02-1.61c-4.06-0.96-8.18-1.77-12.33-2.29c-8.29-1.13-16.7-1.29-24.93-0.11c-1.02,0.17-2.07,0.28-3.08,0.49
			l-3.06,0.64c-2,0.53-4.04,1.04-6,1.76c-3.97,1.31-7.84,3.03-11.53,5.18l-1.4,0.79c-0.46,0.28-0.89,0.59-1.34,0.88
			c-0.89,0.59-1.82,1.16-2.72,1.78c-1.7,1.34-3.52,2.59-5.14,4.08C966.63,572.68,963.61,576.01,960.5,579.44z"/>
	</g>
	<g>
		<path fill="#EAA0FF" d="M1111.23,695.06l49.04,60.59c-10.15,8.77-22.18,18.06-36.38,28.14l-46.5-62.72L1111.23,695.06z"/>
		<path fill="#9700D1" d="M1094.31,708.07l48.1,62.08c-5.72,4.39-11.88,8.93-18.52,13.65l-46.5-62.72L1094.31,708.07z"/>
		<path fill="none" stroke="#1F003B" stroke-width="20" stroke-linecap="round" stroke-linejoin="round" stroke-miterlimit="10" d="
			M1111.23,695.06l49.04,60.59c-10.15,8.77-22.18,18.06-36.38,28.14l-46.5-62.72L1111.23,695.06z"/>
	</g>
	<g>
		<path fill="#1F003B" d="M958.5,579.44c-3.06-3.46-6.23-6.68-9.59-9.56c-1.7-1.42-3.41-2.78-5.19-4.03
			c-1.8-1.21-3.58-2.42-5.44-3.45c-7.4-4.23-15.43-6.83-23.67-7.83c-8.23-1.02-16.58-0.62-24.81,0.44
			c-4.12,0.53-8.23,1.22-12.3,2.07c-2.03,0.42-4.05,0.89-6.05,1.39l-2.95,0.8l-1.43,0.42l-1.21,0.39l-4.78,1.55l-4.11-2.69
			c-4.58-3.01-9.38-5.53-14.36-7.37c-4.97-1.81-10.1-3.02-15.24-3.39c-5.13-0.38-10.27,0-15.11,1.19c-2.41,0.6-4.74,1.41-6.9,2.38
			c-2.13,0.99-4.11,2.18-5.55,3.37l-7.42,6.13l-6.77-7.04c-3.21-3.33-6.72-6.05-10.46-7.93c-3.75-1.87-7.71-2.92-11.87-3.1
			c-4.15-0.19-8.5,0.46-12.79,1.83c-2.14,0.68-4.27,1.54-6.33,2.54c-1.03,0.5-2.04,1.04-3.01,1.6c-0.49,0.28-0.96,0.57-1.41,0.86
			l-0.65,0.42l-0.41,0.28l-17.47,12.11l0.23-21.01c0.03-3.03-0.29-6.41-0.8-9.84c-0.52-3.44-1.19-6.97-1.99-10.51
			c-1.63-7.09-3.69-14.25-5.99-21.38c-2.31-7.13-4.84-14.24-7.54-21.3c-1.35-3.53-2.74-7.05-4.17-10.55
			c-1.42-3.47-2.91-7.04-4.37-10.34l10.12,6.58l-30.09,0.05l11.12-11.44c0.18,6.96-0.43,13.34-1.15,19.56
			c-0.74,6.21-1.68,12.23-2.65,18.17c-1.92,11.87-3.84,23.45-5.04,34.92c-1.18,11.45-1.68,22.79-0.7,33.71
			c0.98,10.9,3.49,21.35,8.13,30.52l-3.43-3.96l14.94,10.66c4.93,3.5,9.82,6.91,14.73,10.02c9.82,6.22,19.64,11.18,30.03,13.38
			c10.36,2.32,21.45,2.12,32.75,0.38c11.3-1.73,22.73-4.81,34.07-8.41l5.91-1.88l4.44,4.36l0.7,0.69l0.8,0.77l1.67,1.55
			c1.13,1.03,2.29,2.06,3.46,3.07c2.35,2.02,4.76,4,7.21,5.92c4.92,3.84,9.99,7.48,15.21,10.86c10.43,6.79,21.37,12.67,32.77,17.24
			c5.7,2.28,11.52,4.21,17.45,5.67c5.93,1.46,11.99,2.48,18.11,2.8c3.06,0.2,6.13,0.16,9.22,0.04c3.08-0.12,6.18-0.32,9.31-0.62
			c3.14-0.27,6.29-0.68,9.52-1.1c3.24-0.4,6.48-0.99,9.93-1.39c-4.91,4.84-10.91,8.45-17.35,10.99c-6.45,2.6-13.38,3.9-20.33,4.54
			c-6.97,0.65-14.02,0.56-20.99-0.18c-3.48-0.4-6.94-0.94-10.38-1.61c-3.42-0.72-6.81-1.57-10.16-2.52
			c-13.39-3.92-25.97-9.94-37.67-17.13c-5.84-3.62-11.49-7.51-16.93-11.68c-2.72-2.08-5.4-4.23-8.03-6.45
			c-1.32-1.11-2.62-2.24-3.92-3.4l-1.95-1.77l-0.98-0.92l-1.06-1.02l10.35,2.49c-11.97,3.94-24.24,7.43-37.17,9.56
			c-6.46,1.06-13.09,1.73-19.87,1.79c-6.77,0.05-13.7-0.56-20.49-1.98c-3.41-0.67-6.74-1.64-10.03-2.68
			c-3.26-1.11-6.48-2.33-9.55-3.73c-6.19-2.76-11.98-6-17.45-9.39c-10.94-6.82-20.88-14.11-30.84-21.1l-2.18-1.53l-1.24-2.43
			c-6.24-12.21-9.35-25.48-10.57-38.37c-1.22-12.94-0.67-25.63,0.54-37.98c1.23-12.35,3.18-24.41,5.03-36.18
			c0.91-5.88,1.81-11.69,2.53-17.36c0.69-5.65,1.19-11.23,1.07-16.24l-0.27-11.46l11.39,0.02l30.09,0.05l7.25,0.01l2.87,6.57
			c1.65,3.78,3.12,7.34,4.61,11.03c1.47,3.66,2.91,7.33,4.3,11.03c2.79,7.38,5.41,14.85,7.83,22.43c2.41,7.59,4.61,15.31,6.4,23.28
			c0.88,4,1.67,8.07,2.23,12.28c0.56,4.22,0.96,8.55,0.86,13.26l-17.24-8.9l0.73-0.52l0.58-0.39l1.11-0.71
			c0.73-0.46,1.46-0.88,2.19-1.29c1.46-0.82,2.92-1.58,4.42-2.29c2.98-1.41,6.07-2.62,9.26-3.6c6.38-1.96,13.27-2.99,20.3-2.58
			c7.02,0.37,14.08,2.33,20.3,5.54c6.24,3.21,11.59,7.57,16.07,12.34l-14.2-0.91c3.35-2.68,6.77-4.58,10.25-6.15
			c3.48-1.53,7.02-2.69,10.6-3.53c7.16-1.68,14.47-2.11,21.63-1.49c7.17,0.6,14.14,2.34,20.71,4.83c6.57,2.52,12.7,5.85,18.39,9.68
			l-8.89-1.14l1.08-0.35l0.94-0.29l1.84-0.52c1.21-0.33,2.42-0.63,3.62-0.91c2.41-0.57,4.82-1.02,7.24-1.41
			c4.85-0.75,9.74-1.17,14.66-1.2c9.83-0.04,19.77,1.45,29.17,4.64c9.38,3.16,18.26,8.07,25.35,14.73
			C950.31,562.47,955.51,570.72,958.5,579.44z"/>
	</g>
	<g>
		<path fill="#EAA0FF" d="M657.51,514.67l77.84,4.07c1.13-13.37,1.57-28.56,1.39-45.98l-78.07-0.76L657.51,514.67z"/>
		<path fill="#9700D1" d="M658.09,493.34l78.5,2.43c0.19-7.21,0.24-14.86,0.16-23.01l-78.07-0.76L658.09,493.34z"/>
		<path fill="none" stroke="#1F003B" stroke-width="20" stroke-linecap="round" stroke-linejoin="round" stroke-miterlimit="10" d="
			M657.51,514.67l77.84,4.07c1.13-13.37,1.57-28.56,1.39-45.98l-78.07-0.76L657.51,514.67z"/>
	</g>
	<g>
		<g>
			<path fill="#FFC384" d="M695.92,494.85c-5.91,0-12.95-1.15-21.52-3.52c-4.16-1.15-9.99-4.23-14.1-12.38
				c-7.29-14.45-5.56-37.47-1.57-47.86c2.63-6.86,9.76-15.03,28.8-15.03c10.47,0,21.43,2.47,27.03,3.94
				c14.89,3.92,21.79,24.25,19.64,40.84c-1.65,12.74-8,19.07-14.73,21.23C715,490.56,707.11,494.85,695.92,494.85z"/>
			<path fill="#1F003B" d="M687.52,426.07c8.06,0,17.15,1.68,24.48,3.62c15.21,4,17.54,43.28,1.8,43.28c-0.47,0-0.95-0.03-1.45-0.11
				c-1.79,6.53-5.06,12-16.43,12c-4.73,0-10.86-0.95-18.86-3.16c-13.9-3.84-13.4-35.55-9-47.01
				C670.53,428.24,678.37,426.07,687.52,426.07 M687.52,406.07c-7.58,0-13.98,1.08-19.58,3.29c-8.8,3.48-15.39,9.93-18.55,18.16
				c-4.75,12.39-6.71,38.72,1.98,55.95c5.76,11.41,14.26,15.82,20.37,17.51c9.45,2.61,17.36,3.88,24.18,3.88
				c8.45,0,22.06-2.2,30.46-14.82c4.21-2.09,7.92-5.25,10.84-9.31c3.63-5.06,5.94-11.31,6.88-18.59c1.18-9.12,0.04-19.29-3.14-27.91
				c-4.62-12.56-13.1-21.04-23.87-23.88C709.68,408.4,698.53,406.07,687.52,406.07L687.52,406.07z"/>
		</g>
		<path fill="#A3463F" d="M710.8,462.46c-6.44,9.35-46.63-6.6-44.15,4.49c1.64,7.3,4.88,13.22,10.41,14.75
			c27.24,7.52,32.76,0.4,35.29-8.84c7.68,1.1,11.56-6.47,12.13-15.59C722.87,465.38,712.7,473.93,710.8,462.46z"/>
	</g>
</g>
</svg>
