<?xml version="1.0" encoding="utf-8"?>
<!-- Generator: Adobe Illustrator 24.3.0, SVG Export Plug-In . SVG Version: 6.00 Build 0)  -->
<svg version="1.1" xmlns="http://www.w3.org/2000/svg" xmlns:xlink="http://www.w3.org/1999/xlink" x="0px" y="0px" width="1920px"
	 height="1080px" viewBox="0 0 1920 1080" enable-background="new 0 0 1920 1080" xml:space="preserve">
<g id="bg">
	<rect y="0" fill="#8153FE" width="1920" height="1080"/>
	<ellipse fill="#5412A7" cx="960" cy="874.33" rx="223.24" ry="11.44"/>
</g>
<g id="tail">
	<g>
		<path fill="#1F003B" d="M989.13,751.66c0.31-1.06,0.31-1.1,0.39-1.42l0.16-0.65l0.2-0.93c0.11-0.57,0.17-0.93,0.23-1.37
			c0.06-0.37,0.1-0.74,0.14-1.08c0.04-0.31,0.06-0.65,0.08-0.94c0.08-1.2,0.07-2.15,0.01-3.07c-0.12-1.79-0.43-3.25-0.77-4.47
			c-0.69-2.43-1.56-3.96-2.14-4.95c-0.62-0.97-1.03-1.45-1.18-1.7c-0.16-0.25-0.07-0.27,0.17-0.21c0.25,0.06,0.62,0.22,1.16,0.43
			c0.5,0.21,1.15,0.45,1.87,0.7c1.43,0.53,3.18,1.08,5.09,1.62c3.83,1.09,8.31,2.1,13,2.97c4.71,0.9,9.66,1.64,14.74,2.34
			c10.17,1.34,20.8,2.42,31.59,3.28c5.4,0.48,10.85,0.79,16.33,1.21l8.24,0.52l3.2,0.18c0.65,0.02,1.28,0.03,1.9,0
			c2.49-0.1,4.91-0.57,7.82-1.58c2.88-1.04,6.19-2.74,9.87-5.07c3.66-2.35,7.66-5.28,11.93-8.6c4.26-3.34,8.87-6.95,13.83-10.74
			c5.01-3.72,10.4-7.61,16.41-11.17c5.99-3.59,12.61-6.87,19.76-9.36c7.14-2.49,14.78-4.11,22.36-4.56
			c7.59-0.51,15.05,0.2,22.01,1.71c9.95,2.16,16.26,11.98,14.1,21.93c-1.69,7.77-8.04,13.32-15.48,14.35l-1.68,0.22
			c-4.46,0.61-8.54,1.55-12.27,2.93c-3.73,1.38-7.14,3.11-10.48,5.27c-6.65,4.31-13.15,10.44-20.44,18.03
			c-3.68,3.74-7.49,7.9-11.79,12.19c-4.28,4.31-8.98,8.85-14.54,13.33c-5.52,4.49-11.96,8.94-19.52,12.64
			c-7.52,3.73-16.24,6.49-25.14,7.68c-2.22,0.31-4.45,0.51-6.67,0.64l-5.39,0.24l-8.95,0.38c-5.98,0.24-11.99,0.26-18.04,0.26
			c-12.11-0.11-24.36-0.64-36.94-2.12c-6.29-0.7-12.68-1.73-19.21-3.01c-3.28-0.69-6.58-1.44-9.96-2.32
			c-3.38-0.91-6.81-1.94-10.35-3.16c-3.54-1.24-7.17-2.68-10.98-4.47c-1.9-0.91-3.84-1.91-5.86-3.06c-2-1.12-4.09-2.43-6.22-3.96
			c-2.14-1.53-4.35-3.27-6.65-5.43c-2.29-2.16-4.68-4.73-7.01-7.99c-2.29-3.28-4.57-7.34-6.17-12.49c-0.8-2.58-1.41-5.45-1.68-8.66
			c-0.12-1.63-0.17-3.3-0.06-5.21c0.03-0.47,0.07-0.99,0.11-1.48c0.05-0.52,0.11-1.06,0.19-1.61c0.09-0.62,0.17-1.15,0.32-1.9
			l0.25-1.19l0.19-0.78c0.1-0.37,0.1-0.44,0.43-1.55c4.75-15.87,21.47-24.89,37.34-20.13S993.88,735.79,989.13,751.66z"/>
		<path fill="#F90B3C" d="M969.97,745.93l0.17-0.6l0.05-0.22l0.06-0.28l0.06-0.32c0.03-0.16,0.05-0.24,0.07-0.32
			c0.03-0.13,0.05-0.16,0.1-0.13c0.11,0.07,0.31,0.36,0.71,0.76c0.74,0.83,2.16,1.97,3.92,2.99c3.53,2.12,8.19,3.94,13.07,5.38
			c4.88,1.52,10.08,2.7,15.38,3.68c5.3,1.01,10.71,1.84,16.18,2.57c10.94,1.41,22.08,2.42,33.3,3.18c5.61,0.41,11.24,0.68,16.88,1
			l8.48,0.39l2.12,0.09c0.69,0.03,1.2,0.01,1.81,0.02c1.17-0.01,2.34-0.05,3.5-0.16c4.65-0.39,9.2-1.57,13.71-3.41
			c4.51-1.85,8.94-4.41,13.33-7.38c8.77-5.99,17.29-13.56,26.53-20.81c4.64-3.6,9.46-7.16,14.62-10.33
			c5.14-3.18,10.64-5.98,16.42-8.07c11.57-4.24,24.21-5.12,35.75-2.75c1,0.2,1.64,1.18,1.43,2.17c-0.17,0.85-0.9,1.43-1.72,1.47
			l-0.01,0c-5.63,0.24-11.15,0.91-16.41,2.32c-5.26,1.41-10.26,3.41-14.96,5.98c-9.42,5.14-17.57,12.34-25.57,20.17
			c-8.06,7.78-15.91,16.35-25.56,24.04c-4.81,3.85-10.13,7.45-16.07,10.32c-5.91,2.91-12.5,4.96-19.25,5.85
			c-1.69,0.23-3.38,0.38-5.07,0.47l-4.66,0.17l-8.71,0.24c-5.82,0.14-11.64,0.11-17.49,0.05c-11.68-0.21-23.43-0.81-35.23-2.22
			c-5.91-0.68-11.83-1.62-17.78-2.79c-5.94-1.25-11.91-2.74-17.93-4.77c-3-1.04-6.01-2.24-9.03-3.66c-1.51-0.71-3.02-1.48-4.54-2.34
			c-1.52-0.84-3.04-1.79-4.54-2.87c-2.99-2.15-6.04-4.75-8.73-8.52c-1.31-1.9-2.52-4.14-3.33-6.79c-0.4-1.33-0.69-2.76-0.81-4.32
			c-0.05-0.79-0.07-1.58-0.01-2.46c0.03-0.44,0.08-0.9,0.15-1.39c0.04-0.26,0.08-0.5,0.14-0.81l0.11-0.48l0.07-0.3l0.16-0.56
			c1.58-5.29,7.16-8.3,12.45-6.71C968.55,735.06,971.56,740.63,969.97,745.93z"/>
	</g>
</g>
<g id="body">
	<polygon fill="#A3463F" stroke="#1F003B" stroke-width="20" stroke-miterlimit="10" points="1056.63,772.67 1034.74,864.33 
		1006.06,864.33 972.17,772.67 	"/>
	
		<path fill="#F90B3C" stroke="#1F003B" stroke-width="20" stroke-linecap="round" stroke-linejoin="round" stroke-miterlimit="10" d="
		M1097.82,864.33L1097.82,864.33H994.06v-28.15h75.6C1085.21,836.18,1097.82,848.78,1097.82,864.33z"/>
	<polygon fill="#A3463F" stroke="#1F003B" stroke-width="20" stroke-miterlimit="10" points="864.37,772.67 886.26,864.33 
		914.94,864.33 948.83,772.67 	"/>
	
		<path fill="#F90B3C" stroke="#1F003B" stroke-width="20" stroke-linecap="round" stroke-linejoin="round" stroke-miterlimit="10" d="
		M823.18,864.33L823.18,864.33h103.76v-28.15h-75.6C835.79,836.18,823.18,848.78,823.18,864.33z"/>
	<path fill="#A3463F" stroke="#1F003B" stroke-width="20" stroke-miterlimit="10" d="M960.5,472.54h53.9
		c0,0,39.32,54.72,53.03,78.08c11.76,20.04,51.93,99.81,2.1,152.68l-12.9,69.37H960.5h-96.13l-12.9-69.37
		c-49.84-52.87-9.66-132.64,2.1-152.68c13.7-23.36,53.03-78.08,53.03-78.08H960.5z"/>
	<path fill="#FDC286" d="M918.31,739.43c-5.67-4.89-8.33-22.62,13.81-25.54c20.59-2.72,25.93,1.14,24.5,8.61
		C954.56,733.23,931.33,750.65,918.31,739.43z"/>
	<path fill="#FDC286" d="M964.5,667.99c0,0,8.07,13.37,32.68,19.1c17.23,4.01,18.89,25.26-6.42,22.98
		C952.61,706.62,964.5,667.99,964.5,667.99z"/>
	<path fill="#FDC286" d="M956.5,667.99c0,0-8.07,13.37-32.68,19.1c-17.23,4.01-18.89,25.26,6.42,22.98
		C968.39,706.62,956.5,667.99,956.5,667.99z"/>
	<path fill="#FDC286" d="M1002.69,739.43c5.67-4.89,8.33-22.62-13.81-25.54c-20.59-2.72-25.93,1.14-24.5,8.61
		C966.44,733.23,989.67,750.65,1002.69,739.43z"/>
	<polygon fill="#1F003B" stroke="#1F003B" stroke-width="20" stroke-miterlimit="10" points="960.5,772.67 1056.63,772.67 
		1052.89,788.34 982.71,801.17 938.29,801.17 868.11,788.34 864.37,772.67 	"/>
</g>
<g id="head">
	<g>
		<path fill="#F77568" d="M1125.59,362.53c-32.3,0-61.89-18.14-83.33-51.08c-17.15-26.34-18.88-60.16-4.54-88.26
			c13.85-27.13,40.06-44.22,70.09-45.71c1.68-0.08,3.37-0.13,5.03-0.13c26.92,0,51.48,11.25,69.17,31.68
			c20.58,23.77,30.08,57.22,25.41,89.48C1202.3,333.82,1165.6,362.53,1125.59,362.53z"/>
		<path fill="#1F003B" d="M1112.84,187.36c58.79,0,92.19,57.8,84.68,109.73c-4.26,29.46-35.85,55.45-71.92,55.45
			c-25.41,0-53.05-12.89-74.95-46.54c-31.69-48.69-0.63-115.63,57.67-118.52C1109.84,187.39,1111.35,187.36,1112.84,187.36
			 M1112.84,167.36C1112.84,167.36,1112.84,167.36,1112.84,167.36C1112.84,167.36,1112.84,167.36,1112.84,167.36
			C1112.84,167.36,1112.84,167.36,1112.84,167.36L1112.84,167.36c-1.83,0-3.68,0.05-5.52,0.14c-33.65,1.67-63,20.79-78.5,51.15
			c-7.62,14.93-11.34,31.65-10.76,48.35c0.61,17.69,6.09,34.95,15.82,49.91c23.35,35.87,55.92,55.63,91.72,55.63
			c21.68,0,43.08-7.44,60.26-20.96c17.46-13.73,28.63-32.07,31.46-51.62c5.08-35.09-5.29-71.52-27.74-97.46
			C1169.95,179.84,1142.7,167.36,1112.84,167.36L1112.84,167.36L1112.84,167.36z"/>
	</g>
	<path fill="#F90B3C" d="M1071.52,289.3c-9.27-96.42,81.15-81.68,81.15-81.68s9.93,5.96,10.6,13.66s-52.27,27.8-40.17,42.15
		c12.7,15.06,23.95,39.67-5.7,63.99C1089.26,350.5,1073.04,305.14,1071.52,289.3z"/>
	<path fill="#FFDD94" d="M1050.64,305.99c-31.69-48.69-0.63-115.63,57.67-118.52c29.47-1.46,52.92,11.37,68.52,30.99
		c0,0-42.04-33.81-93.57,12.88C1052.74,258.99,1050.64,305.99,1050.64,305.99z"/>
	<g>
		<path fill="#1F003B" d="M1071.52,289.3c-1.3-2.75-2.36-5.58-3.34-8.46c-0.83-2.89-1.53-5.85-2.14-8.84
			c-0.22-1.5-0.39-3.02-0.59-4.55c-0.18-1.53-0.39-3.06-0.38-4.61c-0.06-3.1-0.15-6.23,0.27-9.38c0.5-6.31,2.2-12.68,4.86-18.77
			l1.06-2.27c0.36-0.75,0.7-1.52,1.16-2.23c0.85-1.45,1.75-2.88,2.64-4.32c0.99-1.38,2.05-2.7,3.08-4.05
			c0.5-0.69,1.1-1.29,1.68-1.91l1.76-1.85c4.81-4.81,10.52-8.66,16.54-11.38c6.03-2.73,12.35-4.38,18.63-5.09
			c6.28-0.73,12.52-0.53,18.57,0.42c3.02,0.53,6,1.17,8.91,2.09c2.9,0.92,5.76,1.99,8.44,3.52l-8.65,2.05
			c-2.81,0.7-5.56,1.41-8.25,2.16c-5.38,1.5-10.53,3.18-15.39,5.09c-9.73,3.83-18.13,8.76-24.68,15.3l-1.22,1.24
			c-0.41,0.41-0.83,0.81-1.18,1.28l-2.25,2.67c-0.68,0.96-1.34,1.92-2.06,2.86c-0.38,0.46-0.66,0.99-0.97,1.5
			c-0.3,0.51-0.63,1.02-0.94,1.53c-2.45,4.13-4.68,8.62-6.42,13.53c-1.02,2.4-1.7,4.97-2.57,7.54c-0.47,1.27-0.75,2.61-1.14,3.93
			l-1.14,4.02c-0.67,2.72-1.31,5.49-2.09,8.32C1073.11,283.46,1072.43,286.34,1071.52,289.3z"/>
	</g>
	<g>
		<path fill="#FFDD94" d="M912.35,305.09c-18.94,0-34-4.42-44.74-13.12c-7.4-6-10.34-17.11-7.86-29.7
			c3.1-15.71,14.23-32.36,31.33-46.87c21.08-17.87,50.68-32.62,87.99-43.84c0.95-0.29,1.92-0.42,2.88-0.42
			c2.68,0,5.29,1.08,7.2,3.06c2.6,2.7,3.47,6.62,2.27,10.17l-2.85,8.36c10.41-2.67,23.82-5.2,37.37-5.2c3.82,0,7.54,0.2,11.04,0.61
			c4.26,0.49,7.73,3.63,8.63,7.82c0.91,4.19-0.96,8.49-4.63,10.69c-0.08,0.05-4.11,2.48-9.24,6.15c6.3,2.09,12.26,5.4,15.72,10.65
			c3.55,5.38,4.02,11.95,1.32,18.49c-8.19,19.89-40.35,36.48-53.8,42.69C966.83,297.63,936.7,305.09,912.35,305.09z"/>
		<path fill="#1F003B" d="M981.95,181.13L981.95,181.13 M981.95,181.13l-9.23,27.05c0,0,26.65-10.66,53.21-10.66
			c3.32,0,6.64,0.17,9.91,0.54c0,0-16.86,10.12-26.98,21.2c0,0,38.22,0.57,30.69,18.86c-9.81,23.83-77.77,56.95-127.2,56.95
			c-15.38,0-28.96-3.2-38.44-10.89C859.75,272.71,869.56,214.93,981.95,181.13 M981.95,161.13c-0.41,0-0.81,0.01-1.22,0.04
			c-1.73,0.1-3.41,0.43-4.99,0.95c-38.42,11.6-69.07,26.96-91.12,45.65c-24.13,20.46-32.18,39.88-34.68,52.56
			c-3.21,16.29,1.04,31.02,11.38,39.4c12.57,10.19,29.74,15.36,51.04,15.36c25.75,0,57.4-7.79,86.84-21.38
			c18.03-8.32,49.66-25.62,58.86-47.96c3.93-9.56,3.12-19.69-2.22-27.8c-1.5-2.28-3.3-4.34-5.39-6.2
			c4.41-4.71,6.37-11.38,4.95-17.91c-1.81-8.37-8.76-14.66-17.27-15.64c-3.88-0.45-7.98-0.67-12.18-0.67
			c-8.26,0-16.46,0.87-24.04,2.15c-0.73-10.12-8.97-18.15-19.18-18.53C982.47,161.14,982.21,161.13,981.95,161.13L981.95,161.13z"/>
	</g>
	<g>
		<path fill="#F77568" d="M769.41,362.53c-40.01,0-76.71-28.72-81.82-64.01c-4.67-32.26,4.83-65.71,25.41-89.48
			c17.69-20.43,42.25-31.68,69.17-31.68c1.66,0,3.35,0.04,5.03,0.13c30.03,1.49,56.24,18.58,70.09,45.71
			c14.35,28.1,12.61,61.92-4.54,88.26C831.3,344.39,801.7,362.53,769.41,362.53C769.41,362.53,769.41,362.53,769.41,362.53z"/>
		<path fill="#1F003B" d="M782.16,187.36c1.49,0,3,0.04,4.53,0.11c58.3,2.89,89.36,69.84,57.67,118.52
			c-21.9,33.65-49.54,46.54-74.95,46.54c-36.08,0-67.66-25.99-71.92-55.45C689.96,245.16,723.36,187.36,782.16,187.36
			 M782.16,167.36c-29.86,0-57.11,12.48-76.73,35.14c-22.45,25.94-32.82,62.37-27.74,97.46c2.83,19.56,14,37.89,31.46,51.62
			c17.18,13.52,38.58,20.96,60.26,20.96c35.79,0,68.37-19.76,91.72-55.63c9.74-14.96,15.21-32.22,15.82-49.91
			c0.58-16.71-3.14-33.43-10.76-48.35c-15.5-30.36-44.85-49.48-78.5-51.15C785.84,167.4,783.98,167.36,782.16,167.36L782.16,167.36z
			"/>
	</g>
	<path fill="#F90B3C" d="M823.48,289.3c9.27-96.42-81.15-81.68-81.15-81.68s-9.93,5.96-10.6,13.66s52.27,27.8,40.17,42.15
		c-12.7,15.06-23.95,39.67,5.7,63.99C805.74,350.5,821.96,305.14,823.48,289.3z"/>
	<path fill="#FFDD94" d="M844.36,305.99c31.69-48.69,0.63-115.63-57.67-118.52c-29.47-1.46-52.92,11.37-68.52,30.99
		c0,0,42.04-33.81,93.57,12.88C842.26,258.99,844.36,305.99,844.36,305.99z"/>
	<g>
		<path fill="#1F003B" d="M823.48,289.3c-0.92-2.96-1.59-5.84-2.2-8.67c-0.79-2.83-1.43-5.6-2.09-8.32l-1.14-4.02
			c-0.38-1.33-0.66-2.66-1.14-3.93c-0.87-2.57-1.56-5.13-2.57-7.54c-1.74-4.92-3.97-9.41-6.42-13.53c-0.32-0.51-0.64-1.01-0.94-1.53
			c-0.31-0.51-0.59-1.04-0.97-1.5c-0.72-0.94-1.38-1.91-2.06-2.86l-2.25-2.67c-0.35-0.47-0.77-0.87-1.18-1.28l-1.22-1.24
			c-6.55-6.54-14.94-11.47-24.68-15.3c-4.86-1.9-10.01-3.59-15.39-5.09c-2.69-0.74-5.44-1.46-8.25-2.16l-8.65-2.05
			c2.68-1.52,5.54-2.6,8.44-3.52c2.91-0.92,5.89-1.56,8.91-2.09c6.05-0.95,12.29-1.15,18.57-0.42c6.28,0.71,12.6,2.36,18.63,5.09
			c6.02,2.72,11.73,6.56,16.54,11.38l1.76,1.85c0.58,0.62,1.18,1.22,1.68,1.91c1.04,1.35,2.1,2.68,3.08,4.05
			c0.89,1.44,1.79,2.87,2.64,4.32c0.45,0.71,0.79,1.48,1.16,2.23l1.06,2.27c2.66,6.09,4.36,12.46,4.86,18.77
			c0.42,3.15,0.33,6.28,0.27,9.38c0.02,1.55-0.2,3.08-0.38,4.61c-0.2,1.53-0.37,3.04-0.59,4.55c-0.6,3-1.31,5.95-2.14,8.84
			C825.84,283.71,824.78,286.55,823.48,289.3z"/>
	</g>
	<g>
		<path fill="#FFC384" d="M960.5,554.62c-48.14,0-93.48-15.38-127.67-43.31c-34.78-28.41-53.93-66.37-53.93-106.87
			c0-40.5,19.15-78.46,53.93-106.87c34.19-27.93,79.53-43.31,127.67-43.31s93.48,15.38,127.67,43.31
			c34.78,28.41,53.93,66.36,53.93,106.87c0,40.5-19.15,78.46-53.93,106.87C1053.98,539.24,1008.64,554.62,960.5,554.62z"/>
		<path fill="#1F003B" d="M960.5,264.26c94.77,0,171.6,62.76,171.6,140.18s-76.83,140.18-171.6,140.18s-171.6-62.76-171.6-140.18
			S865.73,264.26,960.5,264.26 M960.5,244.26c-50.43,0-98.02,16.18-133.99,45.57c-17.89,14.61-31.98,31.72-41.88,50.85
			c-10.43,20.15-15.72,41.6-15.72,63.76c0,22.16,5.29,43.61,15.72,63.76c9.91,19.13,24,36.24,41.88,50.85
			c35.97,29.39,83.56,45.57,133.99,45.57s98.02-16.18,133.99-45.57c17.89-14.61,31.98-31.72,41.88-50.85
			c10.43-20.15,15.72-41.6,15.72-63.76c0-22.16-5.29-43.61-15.72-63.76c-9.91-19.13-24-36.24-41.88-50.85
			C1058.52,260.44,1010.93,244.26,960.5,244.26L960.5,244.26z"/>
	</g>
	<path fill="#A3463F" d="M798.42,358.39c-0.87,5.87-1.37,27.83-1.37,33.9c0,77.42,73.18,124.18,163.45,124.18
		s163.45-46.76,163.45-124.18c0-6.07-0.5-28.04-1.37-33.9c6.14,14.43,9.52,29.91,9.52,46.05c0,77.42-76.83,140.18-171.6,140.18
		s-171.6-62.76-171.6-140.18C788.9,388.3,792.28,372.82,798.42,358.39z"/>
	<g>
		<path fill="#EAA0FF" d="M983.5,287.38c134.7,0,146.56,70.06,146.56,70.06c0-29.47-0.96-64.29-12.07-78.22
			c-27.47-34.42-70.47-46.96-134.49-46.96s-153.02,12.54-180.49,46.96c-11.12,13.93-12.07,48.76-12.07,78.22
			C790.94,357.44,848.8,287.38,983.5,287.38"/>
		<path fill="#9700D1" d="M792.29,317.45c1.48-16.21,74.19-59.2,191.21-59.2s143.73,42.99,145.21,59.2
			c1.17,12.86,1.36,26.95,1.36,39.99c0,0-11.87-70.06-146.56-70.06s-192.56,70.06-192.56,70.06
			C790.94,344.4,791.12,330.31,792.29,317.45z"/>
		<g>
			<path fill="#1F003B" d="M983.5,286.58c14.51-0.24,29.07,0.29,43.54,2.03c7.23,0.86,14.45,2.04,21.58,3.64
				c7.14,1.58,14.21,3.52,21.14,5.98c13.83,4.87,27.21,11.7,38.67,21.31c5.72,4.79,10.93,10.28,15.29,16.46
				c2.18,3.09,4.15,6.34,5.83,9.77c0.84,1.72,1.62,3.47,2.3,5.28c0.35,0.9,0.66,1.82,0.96,2.77c0.15,0.47,0.29,0.95,0.42,1.43
				c0.14,0.52,0.25,0.93,0.38,1.61l-7.14,0.6c-0.15-10.36-0.41-20.7-1.13-30.94c-0.74-10.21-1.87-20.44-4.41-29.99
				c-1.3-4.72-3-9.33-5.45-12.94c-0.29-0.47-0.63-0.86-0.94-1.29c-0.32-0.42-0.78-0.93-1.17-1.4c-0.81-0.95-1.6-1.91-2.46-2.81
				c-1.66-1.85-3.4-3.62-5.2-5.34c-7.17-6.86-15.36-12.59-24.21-17.11c-8.86-4.52-18.34-7.87-28.07-10.37
				c-4.87-1.26-9.82-2.27-14.81-3.12c-4.99-0.84-10.02-1.54-15.08-2.04c-10.12-1.04-20.34-1.54-30.58-1.64
				c-10.25-0.11-20.53,0.12-30.78,0.65c-20.51,1.13-40.98,3.33-61.11,6.92c-20.08,3.65-39.97,8.66-58.3,16.27
				c-9.09,3.87-17.84,8.39-25.08,14.14c-1.8,1.44-3.48,2.95-5.05,4.52c-0.79,0.78-1.52,1.59-2.23,2.41
				c-0.32,0.4-0.74,0.86-0.99,1.21c-0.25,0.36-0.52,0.66-0.76,1.07c-2.03,3.05-3.61,7.36-4.79,11.86
				c-2.37,9.11-3.5,19.17-4.19,29.24c-0.72,10.11-1.03,20.37-1.19,30.71l-13.32-4.79l0.7-0.8l0.63-0.69l1.24-1.3
				c0.83-0.85,1.66-1.67,2.5-2.48c1.68-1.61,3.38-3.17,5.11-4.68c3.46-3.02,7.01-5.89,10.67-8.6c7.32-5.4,14.96-10.28,22.82-14.69
				c15.71-8.87,32.41-15.73,49.5-20.95c8.54-2.64,17.22-4.75,25.94-6.51c8.73-1.75,17.51-3.13,26.33-4.07
				C948.21,285.98,965.93,285.56,983.5,286.58v1.6c-17.5,1.03-34.87,3.02-51.94,6.27c-8.52,1.68-16.98,3.58-25.32,5.88
				c-8.34,2.29-16.55,4.97-24.63,7.93c-16.15,5.96-31.65,13.48-46.16,22.41c-7.24,4.49-14.21,9.38-20.78,14.69
				c-3.28,2.66-6.5,5.37-9.55,8.22c-1.53,1.42-3.02,2.87-4.46,4.34c-0.72,0.74-1.42,1.48-2.1,2.22l-0.99,1.11l-0.47,0.54l-0.37,0.45
				l-13.01,15.64l-0.31-20.43c-0.16-10.45-0.24-20.99,0.23-31.64c0.27-5.33,0.65-10.68,1.28-16.08c0.63-5.4,1.48-10.86,2.87-16.39
				c0.72-2.77,1.57-5.56,2.67-8.38c1.1-2.81,2.45-5.67,4.3-8.5c0.43-0.71,0.99-1.41,1.5-2.11c0.52-0.69,0.98-1.2,1.48-1.81
				c0.99-1.15,2-2.27,3.06-3.32c2.09-2.13,4.32-4.05,6.6-5.83c9.17-7.08,19.15-12.05,29.26-16.06c10.12-4.01,20.44-7.03,30.81-9.51
				c10.37-2.48,20.8-4.42,31.25-5.99c20.9-3.16,41.9-4.89,62.93-5.52c10.51-0.33,21.03-0.37,31.57-0.05
				c10.54,0.31,21.1,1.03,31.64,2.32c5.27,0.63,10.53,1.46,15.77,2.45c5.24,0.99,10.46,2.17,15.63,3.61
				c10.33,2.86,20.51,6.69,30.05,11.87c9.54,5.17,18.42,11.69,26.09,19.39c1.92,1.92,3.77,3.91,5.54,5.97
				c0.91,1.01,1.75,2.07,2.6,3.12c0.43,0.55,0.84,1.01,1.29,1.62c0.45,0.63,0.94,1.24,1.32,1.89c3.25,5.12,4.96,10.5,6.31,15.79
				c2.55,10.63,3.41,21.21,3.93,31.73c0.46,10.52,0.43,20.98,0.29,31.4l-7.14,0.6c-0.03-0.21-0.13-0.68-0.22-1.04
				c-0.09-0.39-0.19-0.78-0.31-1.18c-0.22-0.79-0.47-1.59-0.75-2.39c-0.54-1.6-1.19-3.18-1.89-4.73c-1.42-3.12-3.11-6.14-5.02-9.02
				c-3.82-5.78-8.5-11.04-13.73-15.71c-10.49-9.37-23.11-16.35-36.41-21.49c-13.32-5.16-27.37-8.51-41.58-10.73
				c-14.23-2.22-28.66-3.27-43.11-3.55V286.58z"/>
		</g>
	</g>
</g>
<g id="face" display="none">
	<g display="inline">
		<path fill="#F90B3C" d="M991.5,439.08c-5.21,11.49-29,16.38-29,16.38s-12.58,37.8,16.55,37.16c29.14-0.64,29.86-38.54,29.86-38.54
			S994.34,451.5,991.5,439.08"/>
		<path fill="#1F003B" d="M991.5,439.08c-0.6,2.9-2.34,5.6-4.4,7.86c-1.05,1.12-2.17,2.18-3.36,3.15c-1.19,0.95-2.42,1.87-3.69,2.71
			c-1.27,0.83-2.58,1.61-3.9,2.36c-1.33,0.73-2.68,1.4-4.05,2.05c-1.36,0.66-2.76,1.23-4.17,1.79c-0.7,0.28-1.41,0.55-2.13,0.81
			c-0.74,0.27-1.4,0.51-2.26,0.75l3.89-3.46c-1.37,7.43-1.89,16.15,0.19,21.79c0.51,1.39,1.19,2.48,1.89,3.3
			c0.72,0.82,1.51,1.41,2.56,1.85c1.02,0.46,2.31,0.82,3.8,0.97c1.47,0.17,3.22,0.12,4.83,0.01c1.62-0.13,3.16-0.45,4.61-0.92
			c1.45-0.46,2.83-1.06,4.13-1.87c1.28-0.82,2.53-1.77,3.7-2.92c1.16-1.15,2.24-2.48,3.26-3.92c2.01-2.91,3.71-6.34,5.08-10.01
			c0.71-1.83,1.29-3.73,1.85-5.65c0.28-0.96,0.53-1.94,0.76-2.91l0.62-2.83l3.45,4.2c-0.44-0.12-0.66-0.2-0.97-0.31l-0.83-0.32
			c-0.55-0.22-1.07-0.45-1.6-0.69c-1.04-0.49-2.04-1.05-3.01-1.65c-1.94-1.19-3.74-2.63-5.3-4.28c-1.55-1.66-2.86-3.56-3.71-5.61
			c-0.45-1.01-0.74-2.08-0.96-3.13C991.57,441.18,991.5,440.12,991.5,439.08c0.96,1.85,2.08,3.5,3.47,4.83
			c1.35,1.34,2.88,2.42,4.51,3.26c1.61,0.86,3.33,1.48,5.07,1.96c0.87,0.24,1.76,0.42,2.64,0.57c0.44,0.08,0.88,0.15,1.31,0.19
			l0.63,0.06c0.18,0.01,0.46,0.04,0.52,0.02c1.27-0.46,2.68,0.19,3.15,1.46c0.08,0.21,0.12,0.42,0.14,0.64l0.17,2.1
			c0.11,1.34,0.16,2.42,0.16,3.61c0.01,1.17-0.02,2.33-0.07,3.49c-0.1,2.33-0.38,4.66-0.76,7c-0.82,4.66-2.19,9.37-4.55,13.89
			c-1.15,2.27-2.6,4.46-4.31,6.52c-1.71,2.06-3.71,3.98-5.99,5.58c-2.28,1.6-4.78,2.93-7.4,3.88c-2.63,0.92-5.33,1.51-8,1.78
			c-2.67,0.28-5.26,0.27-8.06-0.08c-2.77-0.36-5.73-1.07-8.57-2.53c-2.83-1.43-5.48-3.63-7.4-6.2c-1.96-2.57-3.15-5.44-3.88-8.17
			c-0.73-2.75-1.04-5.41-1.05-7.97c-0.02-2.56,0.17-5.02,0.52-7.41c0.37-2.39,0.89-4.7,1.51-6.97c0.31-1.13,0.67-2.25,1.05-3.36
			l0.59-1.66l0.68-1.75l0.27-0.69c0.61-1.58,2.05-2.6,3.63-2.77c1.17-0.12,2.6-0.31,3.92-0.52c1.34-0.21,2.68-0.48,4.02-0.73
			c1.34-0.26,2.68-0.56,4-0.89c1.33-0.32,2.65-0.67,3.95-1.07c2.61-0.79,5.18-1.72,7.6-2.97
			C987.36,442.93,989.68,441.39,991.5,439.08z"/>
	</g>
	<circle display="inline" fill="#1F003B" cx="1070.48" cy="358.78" r="36"/>
	<path display="inline" fill="#1F003B" d="M963.14,413.21c0,11.3,12.7,25.87,28.36,25.87s28.36-14.57,28.36-25.87
		c0-11.3-12.7-20.46-28.36-20.46S963.14,401.92,963.14,413.21z"/>
	<g display="inline">
		<path fill="#1F003B" d="M1064.99,423.83c-0.14,1.96-0.4,3.94-0.82,5.9c-0.44,1.96-1.03,3.9-1.79,5.8
			c-1.53,3.8-3.87,7.36-6.79,10.41c-2.91,3.07-6.45,5.55-10.23,7.46c-3.78,1.91-7.81,3.27-11.92,4.18
			c-4.12,0.88-8.31,1.3-12.51,1.33c-4.21,0.02-8.44-0.3-12.65-1.13c-4.22-0.84-8.43-2.07-12.67-4.16c-2.11-1.1-4.24-2.37-6.33-4.23
			c-2.05-1.84-4.26-4.34-5.48-8.18l0,0l14.7,1.76c-0.55,1.48-1.29,2.81-2.04,4.09c-0.78,1.24-1.63,2.39-2.54,3.46
			c-1.8,2.13-3.8,3.93-5.88,5.52c-4.18,3.15-8.77,5.44-13.57,7.04c-4.8,1.59-9.85,2.46-15,2.56c-2.57,0.05-5.17-0.14-7.76-0.5
			c-2.59-0.4-5.16-1.03-7.68-1.87c-2.51-0.88-4.96-1.98-7.28-3.31c-2.3-1.36-4.49-2.91-6.45-4.69c-3.94-3.54-7.03-7.81-9.1-12.29
			c-2.11-4.48-3.29-9.14-3.77-13.71c-0.46-4.58-0.29-9.09,0.59-13.47c0.11-0.57,0.67-0.95,1.25-0.83c0.32,0.06,0.58,0.27,0.72,0.54
			l0.01,0.02c2.05,3.86,3.96,7.54,6.11,10.87c2.13,3.33,4.41,6.33,6.9,8.8c4.95,5.03,10.5,7.73,16.45,8.81
			c5.95,1.08,12.52,0.54,18.85-1.15c3.17-0.83,6.25-1.98,9.09-3.33c1.41-0.67,2.74-1.41,3.96-2.16c1.2-0.76,2.27-1.51,3.17-2.2
			l11.24-8.52c2.52-1.91,6.11-1.42,8.02,1.1s1.41,6.11-1.1,8.02c-1.03,0.78-2.25,1.16-3.46,1.16c-0.15-0.14,0.01,0.55,0.71,1.34
			c0.66,0.8,1.74,1.69,2.94,2.51c2.45,1.65,5.5,3.06,8.7,4.13c6.42,2.14,13.51,3.2,20.45,2.76c6.93-0.38,13.82-2.31,19.41-6.42
			c5.64-4.05,9.65-10.48,11.59-17.76c0.14-0.54,0.69-0.86,1.23-0.72C1064.72,422.91,1065.02,423.36,1064.99,423.83z"/>
	</g>
	<g display="inline">
		<path fill="#1F003B" d="M910.63,426.22c-1.31-1.13-2.01-2.71-2.41-4.29c-0.4-1.6-0.43-3.26-0.16-4.94
			c0.29-1.67,0.92-3.35,1.98-4.91c1.05-1.55,2.58-2.96,4.41-3.9c1.83-0.95,3.92-1.37,5.83-1.28c1.92,0.08,3.66,0.61,5.15,1.38
			c2.92,1.64,5.04,3.98,6.1,7.17c-3.34,0.32-5.96,0.22-8.12,0.44c-1.06,0.12-1.95,0.28-2.66,0.49c-0.71,0.21-1.23,0.44-1.75,0.69
			c-0.51,0.26-1.05,0.56-1.68,1.04c-0.62,0.48-1.3,1.1-2.02,1.86c-0.74,0.75-1.48,1.65-2.25,2.65
			C912.26,423.68,911.48,424.75,910.63,426.22z"/>
	</g>
	<circle display="inline" fill="#FFFFFF" cx="1053.55" cy="338.13" r="8.16"/>
	<circle display="inline" fill="#FFFFFF" cx="1061.95" cy="356.33" r="6.11"/>
	<ellipse display="inline" fill="#EAA0FF" cx="990.5" cy="400.83" rx="13.45" ry="8.07"/>
	<g display="inline">
		<path fill="#1F003B" d="M1130.85,412.36c-4.57,2.22-9.16,3.39-13.77,4.31c-4.61,0.86-9.22,1.34-13.85,1.47
			c-4.63,0.14-9.26-0.08-13.91-0.68c-4.65-0.65-9.3-1.57-13.99-3.54c4.57-2.23,9.16-3.41,13.77-4.32c4.61-0.86,9.22-1.34,13.85-1.46
			c4.63-0.13,9.26,0.09,13.91,0.69C1121.51,409.49,1126.17,410.4,1130.85,412.36z"/>
	</g>
	<g display="inline">
		<path fill="#1F003B" d="M1130.85,434.05c-4.56,1.76-9.04,2.48-13.5,2.94c-4.46,0.43-8.89,0.42-13.29,0.11
			c-4.4-0.32-8.79-0.96-13.14-2.03c-4.35-1.1-8.68-2.47-12.93-4.89c4.56-1.77,9.04-2.5,13.5-2.95c4.46-0.43,8.89-0.42,13.29-0.1
			c4.4,0.33,8.79,0.97,13.13,2.05C1122.27,430.28,1126.6,431.65,1130.85,434.05z"/>
	</g>
	<g display="inline">
		<path fill="#1F003B" d="M852.15,412.36c4.68-1.96,9.34-2.87,13.99-3.53c4.65-0.6,9.28-0.82,13.91-0.69
			c4.63,0.12,9.24,0.6,13.85,1.46c4.6,0.91,9.2,2.09,13.77,4.32c-4.68,1.97-9.34,2.89-13.99,3.54c-4.65,0.6-9.28,0.82-13.91,0.68
			c-4.63-0.13-9.24-0.61-13.85-1.47C861.31,415.75,856.72,414.58,852.15,412.36z"/>
	</g>
	<g display="inline">
		<path fill="#1F003B" d="M852.15,434.05c4.25-2.41,8.58-3.77,12.93-4.88c4.35-1.08,8.73-1.71,13.13-2.05
			c4.4-0.32,8.83-0.33,13.29,0.1c4.46,0.46,8.94,1.18,13.5,2.95c-4.25,2.42-8.58,3.79-12.93,4.89c-4.35,1.08-8.73,1.71-13.14,2.03
			c-4.41,0.31-8.83,0.32-13.29-0.11C861.19,436.53,856.71,435.81,852.15,434.05z"/>
	</g>
	<g display="inline">
		<path fill="#1F003B" d="M881.27,365.25l0.66-0.62l0.56-0.5l1.1-0.94c0.73-0.61,1.46-1.2,2.2-1.77c1.48-1.14,2.99-2.22,4.54-3.25
			c3.11-2.06,6.39-3.92,9.9-5.49c3.51-1.57,7.27-2.85,11.28-3.64c2.02-0.37,4.08-0.62,6.2-0.7c2.12-0.04,4.26,0.02,6.41,0.37
			c1.06,0.14,2.16,0.39,3.17,0.63c0.97,0.28,1.93,0.51,2.91,0.84c0.99,0.36,1.95,0.65,2.94,1.11l1.47,0.65l1.48,0.78
			c1.95,1.09,3.91,2.43,5.66,4.21c1.75,1.74,3.27,3.87,4.32,6.17c1.06,2.3,1.66,4.73,1.88,7.05c0.22,2.32,0.1,4.54-0.22,6.62
			c-0.32,2.09-0.84,4.05-1.49,5.94c-0.33,0.94-0.68,1.86-1.08,2.77c-0.2,0.46-0.41,0.91-0.63,1.36l-0.35,0.69l-0.44,0.82
			c-1.71,3.21-5.7,4.43-8.92,2.71c-3.21-1.71-4.43-5.7-2.71-8.92c-0.02,0.03,0.06-0.17,0.1-0.28l0.16-0.42l0.31-0.89
			c0.2-0.61,0.37-1.23,0.53-1.85c0.3-1.24,0.5-2.46,0.56-3.61c0.14-2.32-0.29-4.21-1.07-5.42c-0.78-1.2-1.91-2.16-3.83-2.97
			l-0.71-0.3l-0.8-0.25c-0.5-0.2-1.13-0.3-1.69-0.46c-0.58-0.14-1.23-0.23-1.83-0.35c-0.58-0.07-1.09-0.15-1.65-0.16
			c-4.37-0.26-9.21,1.27-13.88,3.9c-2.33,1.31-4.62,2.88-6.81,4.63c-1.09,0.87-2.16,1.79-3.19,2.74c-0.52,0.47-1.01,0.95-1.49,1.43
			l-0.7,0.71l-0.32,0.34c-0.08,0.09-0.23,0.25-0.21,0.24c-3.85,3.96-10.18,4.06-14.14,0.21
			C877.52,375.55,877.43,369.22,881.27,365.25z"/>
	</g>
</g>
<g id="face_2">
	<circle fill="#1F003B" cx="1070.48" cy="358.78" r="36"/>
	<path fill="#1F003B" d="M963.14,413.21c0,11.3,12.7,25.87,28.36,25.87s28.36-14.57,28.36-25.87c0-11.3-12.7-20.46-28.36-20.46
		S963.14,401.92,963.14,413.21z"/>
	<g>
		<path fill="#1F003B" d="M1064.99,423.83c-0.14,1.96-0.4,3.94-0.82,5.9c-0.44,1.96-1.03,3.9-1.79,5.8
			c-1.53,3.8-3.87,7.36-6.79,10.41c-2.91,3.07-6.45,5.55-10.23,7.46c-3.78,1.91-7.81,3.27-11.92,4.18
			c-4.12,0.88-8.31,1.3-12.51,1.33c-4.21,0.02-8.44-0.3-12.65-1.13c-4.22-0.84-8.43-2.07-12.67-4.16c-2.11-1.1-4.24-2.37-6.33-4.23
			c-2.05-1.84-4.26-4.34-5.48-8.18l0,0l14.7,1.76c-0.55,1.48-1.29,2.81-2.04,4.09c-0.78,1.24-1.63,2.39-2.54,3.46
			c-1.8,2.13-3.8,3.93-5.88,5.52c-4.18,3.15-8.77,5.44-13.57,7.04c-4.8,1.59-9.85,2.46-15,2.56c-2.57,0.05-5.17-0.14-7.76-0.5
			c-2.59-0.4-5.16-1.03-7.68-1.87c-2.51-0.88-4.96-1.98-7.28-3.31c-2.3-1.36-4.49-2.91-6.45-4.69c-3.94-3.54-7.03-7.81-9.1-12.29
			c-2.11-4.48-3.29-9.14-3.77-13.71c-0.46-4.58-0.29-9.09,0.59-13.47c0.11-0.57,0.67-0.95,1.25-0.83c0.32,0.06,0.58,0.27,0.72,0.54
			l0.01,0.02c2.05,3.86,3.96,7.54,6.11,10.87c2.13,3.33,4.41,6.33,6.9,8.8c4.95,5.03,10.5,7.73,16.45,8.81
			c5.95,1.08,12.52,0.54,18.85-1.15c3.17-0.83,6.25-1.98,9.09-3.33c1.41-0.67,2.74-1.41,3.96-2.16c1.2-0.76,2.27-1.51,3.17-2.2
			l11.24-8.52c2.52-1.91,6.11-1.42,8.02,1.1s1.41,6.11-1.1,8.02c-1.03,0.78-2.25,1.16-3.46,1.16c-0.15-0.14,0.01,0.55,0.71,1.34
			c0.66,0.8,1.74,1.69,2.94,2.51c2.45,1.65,5.5,3.06,8.7,4.13c6.42,2.14,13.51,3.2,20.45,2.76c6.93-0.38,13.82-2.31,19.41-6.42
			c5.64-4.05,9.65-10.48,11.59-17.76c0.14-0.54,0.69-0.86,1.23-0.72C1064.72,422.91,1065.02,423.36,1064.99,423.83z"/>
	</g>
	<g>
		<path fill="#1F003B" d="M910.63,426.22c-1.31-1.13-2.01-2.71-2.41-4.29c-0.4-1.6-0.43-3.26-0.16-4.94
			c0.29-1.67,0.92-3.35,1.98-4.91c1.05-1.55,2.58-2.96,4.41-3.9c1.83-0.95,3.92-1.37,5.83-1.28c1.92,0.08,3.66,0.61,5.15,1.38
			c2.92,1.64,5.04,3.98,6.1,7.17c-3.34,0.32-5.96,0.22-8.12,0.44c-1.06,0.12-1.95,0.28-2.66,0.49c-0.71,0.21-1.23,0.44-1.75,0.69
			c-0.51,0.26-1.05,0.56-1.68,1.04c-0.62,0.48-1.3,1.1-2.02,1.86c-0.74,0.75-1.48,1.65-2.25,2.65
			C912.26,423.68,911.48,424.75,910.63,426.22z"/>
	</g>
	<circle fill="#FFFFFF" cx="1053.55" cy="338.13" r="8.16"/>
	<circle fill="#FFFFFF" cx="1061.95" cy="356.33" r="6.11"/>
	<ellipse fill="#EAA0FF" cx="990.5" cy="400.83" rx="13.45" ry="8.07"/>
	<g>
		<path fill="#1F003B" d="M1130.85,412.36c-4.57,2.22-9.16,3.39-13.77,4.31c-4.61,0.86-9.22,1.34-13.85,1.47
			c-4.63,0.14-9.26-0.08-13.91-0.68c-4.65-0.65-9.3-1.57-13.99-3.54c4.57-2.23,9.16-3.41,13.77-4.32c4.61-0.86,9.22-1.34,13.85-1.46
			c4.63-0.13,9.26,0.09,13.91,0.69C1121.51,409.49,1126.17,410.4,1130.85,412.36z"/>
	</g>
	<g>
		<path fill="#1F003B" d="M1130.85,434.05c-4.56,1.76-9.04,2.48-13.5,2.94c-4.46,0.43-8.89,0.42-13.29,0.11
			c-4.4-0.32-8.79-0.96-13.14-2.03c-4.35-1.1-8.68-2.47-12.93-4.89c4.56-1.77,9.04-2.5,13.5-2.95c4.46-0.43,8.89-0.42,13.29-0.1
			c4.4,0.33,8.79,0.97,13.13,2.05C1122.27,430.28,1126.6,431.65,1130.85,434.05z"/>
	</g>
	<g>
		<path fill="#1F003B" d="M852.15,412.36c4.68-1.96,9.34-2.87,13.99-3.53c4.65-0.6,9.28-0.82,13.91-0.69
			c4.63,0.12,9.24,0.6,13.85,1.46c4.6,0.91,9.2,2.09,13.77,4.32c-4.68,1.97-9.34,2.89-13.99,3.54c-4.65,0.6-9.28,0.82-13.91,0.68
			c-4.63-0.13-9.24-0.61-13.85-1.47C861.31,415.75,856.72,414.58,852.15,412.36z"/>
	</g>
	<g>
		<path fill="#1F003B" d="M852.15,434.05c4.25-2.41,8.58-3.77,12.93-4.88c4.35-1.08,8.73-1.71,13.13-2.05
			c4.4-0.32,8.83-0.33,13.29,0.1c4.46,0.46,8.94,1.18,13.5,2.95c-4.25,2.42-8.58,3.79-12.93,4.89c-4.35,1.08-8.73,1.71-13.14,2.03
			c-4.41,0.31-8.83,0.32-13.29-0.11C861.19,436.53,856.71,435.81,852.15,434.05z"/>
	</g>
	<g>
		<path fill="#1F003B" d="M881.27,365.25l0.66-0.62l0.56-0.5l1.1-0.94c0.73-0.61,1.46-1.2,2.2-1.77c1.48-1.14,2.99-2.22,4.54-3.25
			c3.11-2.06,6.39-3.92,9.9-5.49c3.51-1.57,7.27-2.85,11.28-3.64c2.02-0.37,4.08-0.62,6.2-0.7c2.12-0.04,4.26,0.02,6.41,0.37
			c1.06,0.14,2.16,0.39,3.17,0.63c0.97,0.28,1.93,0.51,2.91,0.84c0.99,0.36,1.95,0.65,2.94,1.11l1.47,0.65l1.48,0.78
			c1.95,1.09,3.91,2.43,5.66,4.21c1.75,1.74,3.27,3.87,4.32,6.17c1.06,2.3,1.66,4.73,1.88,7.05c0.22,2.32,0.1,4.54-0.22,6.62
			c-0.32,2.09-0.84,4.05-1.49,5.94c-0.33,0.94-0.68,1.86-1.08,2.77c-0.2,0.46-0.41,0.91-0.63,1.36l-0.35,0.69l-0.44,0.82
			c-1.71,3.21-5.7,4.43-8.92,2.71c-3.21-1.71-4.43-5.7-2.71-8.92c-0.02,0.03,0.06-0.17,0.1-0.28l0.16-0.42l0.31-0.89
			c0.2-0.61,0.37-1.23,0.53-1.85c0.3-1.24,0.5-2.46,0.56-3.61c0.14-2.32-0.29-4.21-1.07-5.42c-0.78-1.2-1.91-2.16-3.83-2.97
			l-0.71-0.3l-0.8-0.25c-0.5-0.2-1.13-0.3-1.69-0.46c-0.58-0.14-1.23-0.23-1.83-0.35c-0.58-0.07-1.09-0.15-1.65-0.16
			c-4.37-0.26-9.21,1.27-13.88,3.9c-2.33,1.31-4.62,2.88-6.81,4.63c-1.09,0.87-2.16,1.79-3.19,2.74c-0.52,0.47-1.01,0.95-1.49,1.43
			l-0.7,0.71l-0.32,0.34c-0.08,0.09-0.23,0.25-0.21,0.24c-3.85,3.96-10.18,4.06-14.14,0.21
			C877.52,375.55,877.43,369.22,881.27,365.25z"/>
	</g>
	<g>
		<path fill="#FFFFFF" d="M991.5,439.08c0,7.84,14.7,14.22,30.92,14.31v63.77c0,10.91-8.85,19.76-19.76,19.76h-22.33
			c-10.91,0-19.76-8.85-19.76-19.76v-63.77C976.8,453.3,991.5,446.92,991.5,439.08z"/>
		<path fill="#1F003B" d="M991.5,439.08c0.02,0.76,0.17,1.52,0.44,2.23c0.28,0.71,0.71,1.34,1.17,1.93c0.97,1.15,2.19,2.06,3.5,2.76
			c2.65,1.4,5.64,2,8.59,2.24c2.97,0.23,5.92,0.11,8.81-0.12c1.44-0.11,2.86-0.25,4.27-0.41c1.41-0.14,2.8-0.38,4.17-0.47
			c3.16-0.19,5.87,2.22,6.06,5.37l0.05,0.77c0.07,1.1-0.03,2.21-0.09,3.31c-0.07,1.1-0.05,2.21-0.05,3.31v6.62v13.25v26.49V513v3.31
			v0.83l-0.05,1.07c-0.05,0.72-0.04,1.44-0.17,2.15c-0.67,5.74-3.43,11.16-7.51,15.19c-4.09,4.04-9.6,6.62-15.33,7.24
			c-0.71,0.06-1.43,0.09-2.15,0.12l-0.54,0.02l-0.42,0h-0.83h-3.31h-6.62h-6.62h-3.31h-0.83l-0.42,0l-0.54-0.02
			c-0.72-0.03-1.43-0.06-2.15-0.12c-5.73-0.62-11.24-3.2-15.33-7.24c-4.08-4.03-6.84-9.46-7.51-15.19
			c-0.13-0.71-0.12-1.43-0.17-2.15l-0.05-1.07v-0.83V513v-6.62v-26.49v-13.25c0.01-4.42,0.02-8.83-0.1-13.25l-0.02-0.59
			c-0.08-2.99,2.28-5.47,5.26-5.55c0.27-0.01,0.56,0.01,0.82,0.04c2.75,0.35,5.57,0.72,8.46,0.94c2.89,0.23,5.85,0.33,8.82,0.09
			c2.96-0.25,5.94-0.89,8.58-2.3c1.31-0.7,2.53-1.62,3.5-2.78c0.45-0.6,0.88-1.23,1.16-1.94
			C991.32,440.59,991.47,439.84,991.5,439.08z M991.5,439.08c0.01,1.53-0.55,3.02-1.36,4.34c-0.83,1.31-1.89,2.49-3.04,3.57
			c-2.32,2.15-4.97,4.04-7.77,5.77c-5.62,3.42-12.02,5.96-18.72,6.75l6.07-6.1c-0.12,4.42-0.11,8.83-0.1,13.25v13.25v26.49V513v3.31
			v0.83l0.04,0.59c0.04,0.38,0,0.78,0.09,1.15c0.35,3.06,1.83,5.92,4.01,8.1c2.21,2.17,5.13,3.51,8.18,3.87l1.16,0.06l0.29,0.02
			l0.41,0h0.83h3.31h6.62h6.62h3.31h0.83l0.41,0l0.29-0.02l1.16-0.06c3.05-0.35,5.97-1.7,8.18-3.87c2.17-2.18,3.66-5.05,4.01-8.1
			c0.09-0.38,0.05-0.77,0.09-1.15l0.04-0.59v-0.83V513v-6.62v-26.49v-13.25v-6.62c0-1.1,0.02-2.21-0.05-3.31
			c-0.06-1.1-0.15-2.21-0.09-3.31l6.11,6.14c-3.35-0.31-6.63-1.18-9.78-2.32c-3.14-1.17-6.15-2.66-8.96-4.39
			c-2.8-1.74-5.44-3.66-7.76-5.83c-1.15-1.09-2.2-2.27-3.03-3.58C992.03,442.11,991.51,440.61,991.5,439.08z"/>
	</g>
	<g>
		<path fill="#1F003B" d="M991.5,439.08c1.67,5.58,2.51,11.15,3.13,16.73c0.59,5.58,0.86,11.15,0.86,16.73
			c0.01,5.58-0.27,11.15-0.85,16.73c-0.62,5.58-1.46,11.15-3.15,16.73c-1.68-5.58-2.52-11.15-3.15-16.73
			c-0.59-5.58-0.86-11.15-0.85-16.73c0-5.58,0.28-11.15,0.86-16.73C988.99,450.23,989.83,444.66,991.5,439.08z"/>
	</g>
</g>
<g id="hands">
	<path fill="#FDC286" d="M863.57,550.62c-84.28-22.47-99.52,56.02-99.52,56.02c-54.65,15.03-56.36,55.65-52.65,76.5
		c5.83,32.71,27.9,60.31,84.71,100.65c17.68,12.55,42.17,8.43,54.64-9.3h0c12.04-17.11,8.45-40.67-8.14-53.42L796,685.24
		c0,0,28.47-21.54,38.56-46.34c7.25,14.29,51.71,55.79,121.59,21.12l3.36-80.59C929.58,527.62,863.57,550.62,863.57,550.62z"/>
	<path fill="#FDC286" d="M1057.43,550.62c30.25-20.31,58.29-12.62,69.36-3.57c27.88-29.44,60.96-5,60.96-5
		c-0.55-29.87,25.54-88.62,25.54-88.62h30.09c-0.96,33.77,22.88,96.49,0,141.51c-45.54,32.19-64.92,49.98-135.97,26.78
		c0,0-72.68,72.99-142.56,38.32l-3.36-80.59C991.42,527.62,1057.43,550.62,1057.43,550.62z"/>
	<path fill="#A3463F" d="M978.95,637.52c31.23,18.77,99.45-5.35,128.48-43.79c38.31,23.67,91.15,23.87,135.96,1.2
		c-45.54,32.19-64.92,49.98-135.97,26.78c0,0-74.68,72.99-144.56,38.32l-1.36-80.59C972.17,614.02,963.68,628.35,978.95,637.52z"/>
	<path fill="#FFE6BE" d="M1068.06,573.83c-53.68-29.21-106.56,5.6-106.56,5.6C980.06,543.71,1051.59,541.31,1068.06,573.83z"/>
	<path fill="#FFE6BE" d="M852.94,573.83c53.68-29.21,106.56,5.6,106.56,5.6C940.94,543.71,869.41,541.31,852.94,573.83z"/>
	<path fill="#A3463F" d="M962.86,660.02h-4.72c-69.88,34.68-116.33-6.83-123.59-21.12C824.47,663.7,796,685.24,796,685.24
		l46.61,35.83c16.59,12.75,20.18,36.31,8.14,53.42h0c-12.47,17.73-36.97,21.85-54.64,9.3c-56.81-40.34-78.88-67.94-84.71-100.65v0
		c-3.72-20.85-2-61.47,52.65-76.5c0,0-57.78,31.81-32.38,82.59c3.36,6.72,6.08-3.98,4.65-17.17c7.15,29.33,41.4,19.91,44.59,10.31
		c-14.52-3.88-21.17-14.08-26.79-25.44c43.12,11.37,67.7-18.54,78.74-43.4c6.05,16.8,52.67,49.74,109.06,34.2
		c15.27-4.21,16.14-41.06,17.59-68.3h2"/>
	<g>
		<path fill="none" d="M1078.39,721.08"/>
	</g>
	<g>
		<path fill="none" d="M1070.25,774.49"/>
	</g>
	<g>
		<path fill="#1F003B" d="M959.5,579.44c-3.11-3.42-6.13-6.76-9.55-9.59c-1.62-1.5-3.45-2.75-5.14-4.08
			c-0.89-0.62-1.82-1.19-2.72-1.78c-0.45-0.29-0.88-0.61-1.34-0.88l-1.4-0.79c-3.69-2.15-7.55-3.87-11.53-5.18
			c-1.96-0.72-3.99-1.22-6-1.76l-3.06-0.64c-1.01-0.21-2.06-0.32-3.08-0.49c-8.23-1.18-16.64-1.02-24.93,0.11
			c-4.15,0.53-8.27,1.34-12.33,2.29c-2.03,0.5-4.04,1.03-6.02,1.61l-2.93,0.91l-1.42,0.47c-0.42,0.15-0.98,0.34-1.2,0.44l0,0
			l-3.05,0.97l-2.81-0.75c-9.72-2.6-19.57-3.97-29.08-3.59c-2.4-0.01-4.71,0.39-7.05,0.61c-1.16,0.18-2.29,0.43-3.43,0.64
			c-0.57,0.11-1.15,0.2-1.71,0.33l-1.67,0.46l-1.67,0.45l-0.84,0.22c-0.27,0.09-0.54,0.19-0.81,0.29l-3.23,1.16l-3.12,1.4
			l-0.78,0.35l-0.75,0.41l-1.5,0.82c-7.95,4.43-14.77,10.97-20.09,18.85c-2.66,3.93-4.97,8.18-6.92,12.6
			c-0.97,2.21-1.86,4.47-2.62,6.75c-0.39,1.14-0.75,2.28-1.07,3.41c-0.17,0.57-0.31,1.12-0.46,1.68c-0.13,0.5-0.29,1.18-0.34,1.42
			l-1.24,5.98l-5.92,1.75c-3.83,1.13-7.65,2.29-11.24,3.82l-1.36,0.54l-1.32,0.6c-0.88,0.41-1.77,0.8-2.63,1.22
			c-1.7,0.89-3.41,1.76-5.01,2.76c-3.24,1.95-6.27,4.14-8.99,6.58c-2.7,2.46-5.11,5.16-7.17,8.09c-4.14,5.84-6.78,12.67-7.98,19.96
			c-0.62,3.64-0.85,7.4-0.77,11.18c0.04,1.89,0.16,3.79,0.37,5.68c0.21,1.9,0.45,3.75,0.87,5.66c1.46,7.68,3.99,15.01,7.55,21.98
			c3.55,6.97,8.12,13.56,13.29,19.84c5.26,6.24,11.11,12.15,17.22,17.88l4.71,4.21c0.79,0.7,1.56,1.41,2.37,2.1l2.44,2.04l4.87,4.08
			l5,3.97c6.67,5.3,13.57,10.4,20.55,15.41c0.85,0.61,1.77,1.3,2.58,1.85c0.7,0.43,1.38,0.87,2.07,1.31
			c0.68,0.45,1.45,0.74,2.16,1.13c0.71,0.41,1.48,0.66,2.24,0.95c3.03,1.14,6.24,1.83,9.49,1.92c6.49,0.12,13.04-1.86,18.21-5.75
			c5.11-3.9,9.1-9.55,10.66-15.82c1.63-6.24,1.23-13.11-1.45-19.04c-1.31-2.97-3.1-5.7-5.29-8.08c-0.58-0.56-1.09-1.2-1.71-1.72
			c-0.63-0.52-1.24-1.05-1.86-1.58l-5.17-3.98l-41.48-31.88l-10.29-7.91l10.35-7.99c0.75-0.58,1.74-1.38,2.63-2.11
			c0.91-0.76,1.82-1.52,2.71-2.31c1.8-1.56,3.57-3.18,5.31-4.82c3.47-3.29,6.77-6.73,9.89-10.27c3.09-3.56,5.92-7.25,8.5-11.02
			c2.49-3.8,4.62-7.69,6.29-11.59l7.78-18.16l10.4,17.4l0,0c0.38,0.63,0.83,1.43,1.47,2.29c0.6,0.85,1.31,1.74,2.04,2.62
			c1.46,1.79,3.19,3.5,4.95,5.18c3.56,3.36,7.55,6.4,11.79,9.08c4.26,2.65,8.76,4.98,13.46,6.87c1.17,0.51,2.37,0.9,3.57,1.33
			c1.19,0.45,2.42,0.79,3.64,1.16c0.61,0.18,1.22,0.39,1.83,0.56l1.86,0.47l1.87,0.47c0.63,0.14,1.26,0.25,1.89,0.38
			c10.09,2.07,20.71,2.22,31.35,0.87c5.3-0.76,10.67-1.59,16.1-2.65c2.75-0.44,5.46-1.07,8.27-1.54c2.81-0.48,5.59-1.12,8.57-1.45
			c-4.28,4.05-9.08,7.47-14.25,10.22c-5.12,2.88-10.67,4.96-16.36,6.62c-11.41,3.19-23.62,4.69-35.85,3.54
			c-0.76-0.07-1.53-0.12-2.29-0.2l-2.29-0.31l-2.29-0.31c-0.76-0.12-1.52-0.28-2.28-0.42c-1.52-0.28-3.03-0.59-4.53-0.99
			c-1.5-0.38-3.01-0.74-4.48-1.22c-5.95-1.76-11.75-4.12-17.24-7.12c-2.76-1.47-5.43-3.12-8.04-4.87c-2.56-1.83-5.1-3.7-7.5-5.82
			c-2.42-2.08-4.71-4.34-6.9-6.84c-1.1-1.25-2.16-2.56-3.19-4.01c-1.03-1.41-2.04-3.02-3-4.87l0-0.01l18.18-0.76
			c-2.3,5.44-5.09,10.46-8.17,15.14c-3.14,4.61-6.5,8.97-10.06,13.07c-3.58,4.07-7.32,7.95-11.21,11.64
			c-1.95,1.85-3.92,3.65-5.95,5.41c-1.01,0.88-2.04,1.75-3.08,2.62c-1.07,0.88-2.05,1.68-3.31,2.65l0.06-15.9l41.48,31.88l5.2,4
			l3.13,2.65c1.03,0.89,1.94,1.93,2.9,2.9c3.72,4.03,6.76,8.68,8.96,13.69c4.47,10.03,5.23,21.54,2.44,32.14
			c-2.74,10.67-9.28,20.11-18.03,26.73c-8.8,6.61-19.82,9.97-30.75,9.72c-5.47-0.15-10.91-1.28-16.03-3.22
			c-1.28-0.49-2.57-0.96-3.77-1.61c-1.21-0.63-2.47-1.18-3.63-1.91l-3.45-2.2c-0.99-0.68-1.82-1.31-2.74-1.96
			c-7.18-5.17-14.31-10.43-21.3-15.98l-5.24-4.16l-5.15-4.32l-2.58-2.16c-0.86-0.73-1.69-1.49-2.53-2.24l-5.04-4.51
			c-6.62-6.19-13.06-12.68-19.04-19.79c-5.91-7.17-11.36-14.98-15.74-23.55c-4.39-8.55-7.59-17.87-9.38-27.32
			c-0.5-2.36-0.85-4.84-1.11-7.27c-0.27-2.44-0.43-4.9-0.47-7.37c-0.11-4.93,0.19-9.92,1.03-14.88c0.82-4.96,2.15-9.89,4.03-14.65
			c1.88-4.76,4.36-9.32,7.31-13.53c2.95-4.21,6.39-8.05,10.14-11.45c3.77-3.38,7.85-6.32,12.07-8.86c2.1-1.31,4.28-2.42,6.45-3.54
			c1.09-0.54,2.2-1.03,3.3-1.54l1.65-0.75l1.67-0.67c4.44-1.88,8.98-3.27,13.51-4.59l-7.16,7.74c0.22-1.09,0.39-1.72,0.59-2.53
			c0.2-0.75,0.39-1.51,0.61-2.23c0.42-1.47,0.87-2.91,1.35-4.33c0.95-2.85,2.05-5.63,3.25-8.37c2.41-5.47,5.28-10.77,8.68-15.8
			c3.4-5.02,7.35-9.76,11.85-14.01c4.5-4.25,9.56-8,15.02-11.06l2.06-1.12l1.03-0.56l1.07-0.49c1.43-0.64,2.85-1.3,4.28-1.91
			l4.4-1.59c0.37-0.13,0.73-0.27,1.1-0.39l1.12-0.31l2.24-0.62l2.25-0.61c0.75-0.18,1.51-0.3,2.27-0.45
			c1.51-0.28,3.03-0.6,4.54-0.83c3.03-0.32,6.08-0.78,9.1-0.8c12.12-0.49,23.92,1.26,35.09,4.24l-5.87,0.22l0,0
			c0.85-0.27,1.38-0.41,2.04-0.59l1.85-0.47c1.22-0.31,2.43-0.55,3.65-0.8c2.42-0.49,4.84-0.87,7.27-1.2
			c4.85-0.65,9.74-0.93,14.63-0.97c4.89,0.03,9.79,0.29,14.66,1.02c4.86,0.73,9.69,1.78,14.38,3.31c4.69,1.5,9.25,3.47,13.53,5.89
			c1.07,0.6,2.14,1.2,3.15,1.91c1.02,0.69,2.06,1.33,3.04,2.05c0.97,0.74,1.94,1.48,2.89,2.24c0.96,0.74,1.82,1.62,2.72,2.42
			l1.33,1.23c0.43,0.42,0.83,0.88,1.25,1.31c0.81,0.89,1.63,1.77,2.41,2.67c1.47,1.9,3.01,3.7,4.22,5.75
			C955.95,570.84,957.88,575.15,959.5,579.44z"/>
	</g>
	<g>
		<path fill="#EAA0FF" d="M808.77,695.06l-49.04,60.59c10.15,8.77,22.18,18.06,36.38,28.14l46.5-62.72L808.77,695.06z"/>
		<path fill="#9700D1" d="M825.69,708.07l-48.1,62.08c5.72,4.39,11.88,8.93,18.52,13.65l46.5-62.72L825.69,708.07z"/>
		<path fill="none" stroke="#1F003B" stroke-width="20" stroke-linecap="round" stroke-linejoin="round" stroke-miterlimit="10" d="
			M808.77,695.06l-49.04,60.59c10.15,8.77,22.18,18.06,36.38,28.14l46.5-62.72L808.77,695.06z"/>
	</g>
	<g>
		<path fill="#1F003B" d="M961.5,579.44c2.99-8.71,8.19-16.96,15.31-23.59c7.1-6.66,15.97-11.57,25.35-14.73
			c9.4-3.2,19.34-4.69,29.17-4.64c4.92,0.03,9.82,0.45,14.66,1.2c2.42,0.39,4.84,0.84,7.24,1.41c1.21,0.28,2.41,0.58,3.62,0.91
			l1.83,0.52l0.94,0.29l1.08,0.35l-8.89,1.14c5.68-3.83,11.82-7.16,18.39-9.68c6.57-2.49,13.54-4.23,20.71-4.83
			c7.16-0.62,14.47-0.19,21.63,1.49c3.58,0.85,7.12,2.01,10.6,3.53c3.48,1.57,6.89,3.47,10.25,6.15l-14.2,0.91
			c4.49-4.77,9.84-9.13,16.07-12.34c6.22-3.22,13.28-5.17,20.3-5.54c7.03-0.41,13.92,0.62,20.3,2.58c3.2,0.98,6.28,2.18,9.26,3.6
			c1.49,0.7,2.96,1.46,4.42,2.29c0.73,0.41,1.45,0.84,2.19,1.29l1.11,0.71l0.58,0.39l0.73,0.52l-17.24,8.9
			c-0.1-4.71,0.3-9.04,0.86-13.26c0.56-4.21,1.36-8.28,2.23-12.28c1.79-7.98,3.99-15.69,6.4-23.28c2.42-7.59,5.04-15.05,7.83-22.43
			c1.39-3.69,2.83-7.37,4.3-11.03c1.49-3.69,2.96-7.25,4.61-11.03l2.87-6.57l7.25-0.01l30.09-0.05l11.39-0.02l-0.27,11.46
			c-0.12,5.02,0.38,10.59,1.07,16.24c0.71,5.67,1.62,11.48,2.53,17.36c1.85,11.77,3.8,23.82,5.03,36.18
			c1.21,12.35,1.77,25.04,0.54,37.98c-1.22,12.89-4.33,26.16-10.57,38.37l-1.24,2.43l-2.18,1.53c-9.96,6.99-19.9,14.28-30.84,21.1
			c-5.48,3.4-11.27,6.63-17.45,9.39c-3.08,1.4-6.3,2.61-9.55,3.73c-3.29,1.04-6.63,2-10.03,2.68c-6.79,1.42-13.72,2.04-20.49,1.98
			c-6.78-0.06-13.42-0.73-19.87-1.79c-12.92-2.13-25.2-5.63-37.17-9.56l10.35-2.49l-1.06,1.02l-0.98,0.92l-1.95,1.77
			c-1.3,1.16-2.61,2.29-3.92,3.4c-2.63,2.22-5.31,4.37-8.03,6.45c-5.44,4.18-11.09,8.06-16.93,11.68
			c-11.7,7.19-24.28,13.21-37.67,17.13c-3.35,0.96-6.74,1.81-10.16,2.52c-3.43,0.67-6.9,1.21-10.38,1.61
			c-6.97,0.74-14.02,0.82-20.99,0.18c-6.95-0.63-13.88-1.94-20.33-4.54c-6.45-2.54-12.44-6.15-17.35-10.99
			c3.45,0.41,6.69,0.99,9.93,1.39c3.23,0.42,6.38,0.84,9.52,1.1c3.13,0.3,6.23,0.5,9.31,0.62c3.08,0.12,6.15,0.16,9.22-0.04
			c6.12-0.32,12.18-1.34,18.11-2.8c5.94-1.46,11.76-3.38,17.45-5.67c11.39-4.57,22.34-10.45,32.77-17.24
			c5.22-3.39,10.3-7.03,15.21-10.86c2.46-1.92,4.87-3.9,7.21-5.92c1.17-1.01,2.33-2.04,3.46-3.07l1.67-1.55l0.8-0.77l0.7-0.69
			l4.44-4.36l5.91,1.88c11.34,3.6,22.77,6.68,34.07,8.41c11.3,1.75,22.39,1.94,32.75-0.38c10.39-2.2,20.21-7.16,30.03-13.38
			c4.9-3.12,9.8-6.52,14.73-10.02l14.94-10.66l-3.43,3.96c4.64-9.18,7.15-19.62,8.13-30.52c0.99-10.92,0.49-22.26-0.7-33.71
			c-1.19-11.47-3.12-23.05-5.04-34.92c-0.96-5.94-1.91-11.96-2.65-18.17c-0.72-6.22-1.33-12.61-1.15-19.56l11.12,11.44l-30.09-0.05
			l10.12-6.58c-1.46,3.3-2.95,6.87-4.37,10.34c-1.43,3.5-2.82,7.02-4.17,10.55c-2.7,7.06-5.23,14.17-7.54,21.3
			c-2.3,7.13-4.36,14.29-5.99,21.38c-0.8,3.54-1.47,7.07-1.99,10.51c-0.51,3.43-0.83,6.82-0.8,9.84l0.23,21.01l-17.47-12.11
			l-0.41-0.28l-0.65-0.42c-0.45-0.29-0.93-0.58-1.41-0.86c-0.97-0.56-1.98-1.1-3.01-1.6c-2.06-1-4.19-1.86-6.33-2.54
			c-4.29-1.37-8.64-2.02-12.79-1.83c-4.16,0.18-8.13,1.23-11.87,3.1c-3.74,1.87-7.26,4.59-10.46,7.93l-6.77,7.04l-7.42-6.13
			c-1.45-1.19-3.42-2.39-5.55-3.37c-2.16-0.97-4.49-1.78-6.9-2.38c-4.84-1.2-9.99-1.58-15.11-1.19c-5.14,0.37-10.26,1.58-15.24,3.39
			c-4.97,1.84-9.78,4.36-14.36,7.37l-4.11,2.69l-4.78-1.55l-1.21-0.39l-1.43-0.42l-2.95-0.8c-1.99-0.5-4.02-0.97-6.05-1.39
			c-4.07-0.85-8.18-1.54-12.3-2.07c-8.24-1.07-16.58-1.47-24.81-0.44c-8.23,1-16.27,3.6-23.67,7.83c-1.87,1.04-3.64,2.24-5.44,3.45
			c-1.78,1.25-3.48,2.61-5.19,4.03C967.73,572.75,964.56,575.97,961.5,579.44z"/>
	</g>
	<g>
		<path fill="#EAA0FF" d="M1259.61,513.29l-72.21,3.63c-1.07-12.39-1.51-26.47-1.37-42.6l72.43-0.56L1259.61,513.29z"/>
		<path fill="#9700D1" d="M1259.04,493.52l-72.82,2.11c-0.19-6.68-0.25-13.77-0.19-21.32l72.43-0.56L1259.04,493.52z"/>
		<path fill="none" stroke="#1F003B" stroke-width="20" stroke-linecap="round" stroke-linejoin="round" stroke-miterlimit="10" d="
			M1259.61,513.29l-72.21,3.63c-1.07-12.39-1.51-26.47-1.37-42.6l72.43-0.56L1259.61,513.29z"/>
	</g>
	<g>
		<g>
			<path fill="#1F003B" d="M1224.08,504.85c-8.45,0-22.05-2.2-30.46-14.81c-8.33-4.07-15.76-12.72-17.73-27.91
				c-2.75-21.24,6.6-46.42,27.01-51.79c7.41-1.95,18.55-4.27,29.57-4.27c26.02,0,35.06,13.44,38.13,21.45
				c4.75,12.39,6.71,38.72-1.98,55.94c-5.76,11.42-14.26,15.82-20.37,17.51C1238.82,503.58,1230.91,504.85,1224.08,504.85z"/>
			<path fill="#FFC384" d="M1232.48,426.07c9.15,0,16.99,2.17,19.46,8.62c4.4,11.46,4.9,43.17-9,47.01
				c-8,2.21-14.13,3.16-18.86,3.16c-11.37,0-14.65-5.47-16.43-12c-0.5,0.07-0.98,0.11-1.45,0.11c-15.73,0-13.41-39.27,1.8-43.28
				C1215.34,427.76,1224.42,426.07,1232.48,426.07"/>
		</g>
		<path fill="#A3463F" d="M1209.2,462.46c6.44,9.35,46.63-6.6,44.15,4.49c-1.64,7.3-4.88,13.22-10.41,14.75
			c-27.24,7.52-32.76,0.4-35.29-8.84c-7.68,1.1-11.56-6.47-12.13-15.59C1197.13,465.38,1207.3,473.93,1209.2,462.46z"/>
	</g>
</g>
</svg>
