<?xml version="1.0" encoding="utf-8"?>
<!-- Generator: Adobe Illustrator 24.3.0, SVG Export Plug-In . SVG Version: 6.00 Build 0)  -->
<svg version="1.1" xmlns="http://www.w3.org/2000/svg" xmlns:xlink="http://www.w3.org/1999/xlink" x="0px" y="0px" width="1920px"
	 height="1080px" viewBox="0 0 1920 1080" enable-background="new 0 0 1920 1080" xml:space="preserve">
<g id="bg">
	<rect y="0" transform="matrix(-1 -1.224647e-16 1.224647e-16 -1 1920 1080)" fill="#8153FE" width="1920" height="1080"/>
	<ellipse fill="#5412A7" cx="960" cy="874.33" rx="223.24" ry="11.44"/>
</g>
<g id="tail">
	<g>
		<path fill="#1F003B" d="M1024.48,675.47l0.51,2.43l0.33,1.77c0.21,1.14,0.37,2.24,0.52,3.32c0.29,2.17,0.51,4.29,0.67,6.43
			c0.32,4.27,0.29,8.58,0,13c-0.58,8.81-2.48,18.19-6.59,27.58c-2.06,4.68-4.68,9.35-7.9,13.71c-3.21,4.36-6.98,8.43-11.12,11.96
			c-8.32,7.06-17.87,11.85-26.91,14.59c-9.07,2.82-17.76,3.97-25.85,4.28c-8.12,0.35-15.76-0.2-23.05-1.08
			c-14.56-1.88-27.88-5.35-40.55-9.51c-6.35-2.06-12.51-4.38-18.55-6.78l-4.49-1.8c-0.27-0.11-0.54-0.24-0.81-0.37
			c-0.26-0.09-0.53-0.2-0.79-0.32c-1.03-0.39-2-0.66-3.03-0.84c-2.04-0.41-4.45-0.45-7.78,0.18c-1.65,0.31-3.48,0.8-5.46,1.47
			c-1.99,0.64-4.12,1.45-6.37,2.43c-2.24,0.99-4.63,2.06-7.1,3.27l-7.79,3.87c-2.72,1.37-5.57,2.82-8.62,4.25
			c-3.04,1.44-6.24,2.93-9.78,4.32c-3.52,1.4-7.31,2.76-11.6,3.84c-4.24,1.1-9.03,1.89-14.21,1.99c-2.61,0.01-5.29-0.14-7.99-0.55
			c-2.7-0.43-5.4-1.07-7.97-2c-2.57-0.9-5.02-2.06-7.25-3.37c-2.27-1.29-4.25-2.77-6.1-4.3c-7.58-6.29-8.63-17.54-2.34-25.13
			c3.99-4.81,9.97-6.99,15.74-6.34l6.63,0.8c1.43,0.17,2.4,0.03,3.09-0.35c0.69-0.35,1.18-0.78,1.98-1.29l3.36-2.12
			c1.4-0.91,3.1-2.09,4.94-3.43c3.7-2.7,7.99-6.15,12.74-9.81c2.38-1.86,4.89-3.76,7.57-5.69c2.67-1.92,5.49-3.91,8.53-5.82
			c3.04-1.92,6.3-3.82,9.81-5.63c3.53-1.78,7.33-3.46,11.44-4.92c8.17-2.95,17.87-4.78,27.89-4.5c4.99,0.16,10,0.85,14.8,1.99
			l3.56,0.93l3.47,1.08l4.02,1.23c2.66,0.85,5.31,1.55,7.96,2.32c2.64,0.69,5.29,1.43,7.89,2.07c5.23,1.36,10.41,2.46,15.46,3.39
			c5.05,0.96,9.99,1.62,14.68,2.05c4.68,0.44,9.12,0.48,13.05,0.28c1.02-0.02,1.89-0.17,2.84-0.22l1.31-0.18
			c0.44-0.05,0.88-0.11,1.26-0.19c1.68-0.24,3.07-0.62,4.32-0.98c2.49-0.77,3.89-1.57,4.82-2.26c0.94-0.68,1.66-1.36,2.61-2.95
			c0.9-1.58,1.84-4.09,2.44-7.27c0.3-1.58,0.46-3.31,0.6-5.06c0.06-0.87,0.1-1.76,0.12-2.59l0.01-1.17l0.02-0.47
			c0.01-0.05,0.01-0.11,0.02-0.13c0.02,0.05-0.01-0.19,0.11,0.33c-3.24-16.25,7.3-32.05,23.54-35.29S1021.24,659.22,1024.48,675.47z
			"/>
		<path fill="#F90B3C" d="M1004.87,679.39l0.33,1.55l0.25,1.33c0.15,0.88,0.28,1.74,0.39,2.6c0.23,1.72,0.39,3.44,0.51,5.16
			c0.24,3.44,0.2,6.9-0.04,10.4c-0.47,6.98-2.04,14.13-5.03,21.03c-2.97,6.89-7.7,13.38-13.63,18.39
			c-5.92,5.03-12.83,8.59-19.77,10.69c-6.94,2.15-13.92,3.13-20.68,3.39c-6.77,0.29-13.38-0.14-19.83-0.9
			c-12.89-1.62-25.2-4.71-37.09-8.52c-5.96-1.89-11.8-4.01-17.58-6.24l-4.32-1.68l-1.69-0.64l-1.7-0.56
			c-2.28-0.68-4.6-1.14-6.96-1.35c-4.72-0.48-9.62,0.01-14.66,1.29c-2.52,0.64-5.06,1.47-7.6,2.45c-2.56,0.96-5.12,2.08-7.69,3.31
			c-5.15,2.44-10.32,5.28-15.65,8.14c-5.33,2.87-10.81,5.81-16.72,8.29c-2.96,1.23-6.01,2.36-9.23,3.19c-3.2,0.86-6.58,1.38-10,1.44
			c-3.43,0-6.9-0.53-10.09-1.7c-1.6-0.57-3.11-1.31-4.53-2.17c-1.43-0.82-2.73-1.82-3.97-2.84c-0.78-0.65-0.89-1.81-0.24-2.59
			c0.55-0.66,1.45-0.84,2.19-0.49l0.05,0.02c5.24,2.44,10.69,3.1,15.81,1.88c5.15-1.14,10.06-3.74,14.87-6.76
			c9.63-6.13,18.9-13.93,29.75-20.61c2.72-1.67,5.54-3.27,8.49-4.75c2.96-1.46,6.06-2.8,9.3-3.94c6.47-2.3,13.68-3.6,21.01-3.39
			c3.66,0.12,7.32,0.62,10.87,1.47l2.64,0.7l2.59,0.82l4.2,1.36c2.79,0.93,5.6,1.73,8.4,2.59c2.81,0.78,5.61,1.61,8.42,2.34
			c5.61,1.53,11.24,2.82,16.85,3.92c5.6,1.12,11.21,1.96,16.74,2.51c11.02,1.07,21.99,0.81,31.18-2c4.58-1.42,8.62-3.44,11.96-6.16
			c3.33-2.72,5.96-6.15,8-10.22c2.01-4.09,3.28-8.82,3.99-13.83c0.35-2.5,0.5-5.08,0.56-7.66c0.02-1.29,0.01-2.59-0.05-3.87
			l-0.11-1.89l-0.12-1.59l-0.08-1.11c-0.42-5.49,3.69-10.28,9.18-10.7C999.41,671.11,1003.86,674.56,1004.87,679.39z"/>
	</g>
</g>
<g id="body">
	<polygon fill="#A3463F" stroke="#1F003B" stroke-width="20" stroke-miterlimit="10" points="905.43,727.21 890.23,813.68 
		918.47,808.7 988.6,712.55 	"/>
	
		<path fill="#F90B3C" stroke="#1F003B" stroke-width="20" stroke-linecap="round" stroke-linejoin="round" stroke-miterlimit="10" d="
		M849.48,850.82L849.48,850.82l95.76-39.94l-10.84-25.98L864.62,814C850.27,819.99,843.49,836.47,849.48,850.82z"/>
	<polygon fill="#A3463F" stroke="#1F003B" stroke-width="20" stroke-miterlimit="10" points="1094.77,693.83 1118.13,782.9 
		1089.89,787.88 1011.6,708.49 	"/>
	
		<path fill="#F90B3C" stroke="#1F003B" stroke-width="20" stroke-linecap="round" stroke-linejoin="round" stroke-miterlimit="10" d="
		M1162.97,826.16L1162.97,826.16l-99.02-30.99l8.41-26.87l72.15,22.59C1159.35,795.53,1167.62,811.33,1162.97,826.16z"/>
	<path fill="#A3463F" stroke="#1F003B" stroke-width="20" stroke-miterlimit="10" d="M947.99,414.96l-53.08,9.36
		c0,0-29.22,60.72-38.66,86.1c-8.1,21.78-33.81,107.31,24.45,150.73l24.75,66.07l94.67-16.69l94.67-16.69l0.66-70.55
		c39.9-60.72-13.52-132.31-28.58-150c-17.55-20.62-65.78-67.68-65.78-67.68L947.99,414.96z"/>
	<path fill="#FDC286" d="M1035.88,670.46c4.74-5.8,4.27-23.72-18.03-22.75c-20.75,0.9-25.34,5.63-22.63,12.73
		C999.11,670.65,1025,683.78,1035.88,670.46z"/>
	<path fill="#FDC286" d="M977.99,608.13c0,0-5.62,14.57-28.86,24.48c-16.27,6.94-14.22,28.16,10.31,21.52
		C996.41,644.11,977.99,608.13,977.99,608.13z"/>
	<path fill="#FDC286" d="M985.86,606.74c0,0,10.26,11.76,35.5,13.14c17.66,0.96,22.99,21.6-2.33,23.74
		C980.86,646.85,985.86,606.74,985.86,606.74z"/>
	<path fill="#FDC286" d="M952.78,685.11c-6.44-3.83-12.13-20.83,9.17-27.55c19.81-6.25,25.74-3.38,25.62,4.22
		C987.4,672.72,967.55,693.91,952.78,685.11z"/>
	<polygon fill="#1F003B" stroke="#1F003B" stroke-width="20" stroke-miterlimit="10" points="1000.1,710.52 905.43,727.21 
		911.84,742 983.18,742.45 1026.92,734.73 1093.81,709.92 1094.77,693.83 	"/>
</g>
<g id="head">
	<g>
		<path fill="#FFDD94" d="M850.24,260.71c-11.17,0-20.94-2.28-29.03-6.77c-8.33-4.63-13.16-15.05-12.9-27.88
			c0.32-16.01,8.39-34.34,22.72-51.59c17.65-21.26,44.25-40.93,79.04-58.45c1.42-0.72,2.96-1.07,4.5-1.07
			c2.08,0,4.14,0.65,5.89,1.91c3.03,2.21,4.57,5.92,4,9.62l-1.36,8.73c12.44-5.64,29.71-11.89,46.88-12.93
			c0.2-0.01,0.41-0.02,0.61-0.02c4.04,0,7.71,2.44,9.25,6.22c1.62,3.97,0.53,8.52-2.7,11.33c-0.07,0.06-3.62,3.17-8.04,7.68
			c8.45,1.16,14.49,4.1,18.35,8.89c2.58,3.21,5.29,8.74,3.51,16.83c-1.91,8.7-8.19,18.49-18.65,29.11
			c-9.22,9.36-21.23,18.85-34.73,27.47C906.81,249.45,874.98,260.71,850.24,260.71z"/>
		<path fill="#1F003B" d="M914.57,124.94L914.57,124.94 M914.57,124.94l-4.39,28.24c0,0,30.87-19.14,60.4-20.92
			c0,0-14.85,12.89-22.89,25.56c0,0,5.62-0.9,12.28-0.9c10.6,0,23.82,2.29,21.22,14.15c-6.13,27.95-80.88,79.64-130.95,79.64
			c-9.05,0-17.29-1.69-24.18-5.51C810.13,236.35,809.76,177.75,914.57,124.94 M970.58,132.27L970.58,132.27 M914.57,104.94
			c-0.19,0-0.38,0-0.58,0.01c-3.17,0.09-6.15,0.92-8.79,2.31c-35.85,18.1-63.39,38.56-81.87,60.81
			c-20.21,24.34-24.77,44.86-25.03,57.78c-0.33,16.6,6.41,30.37,18.04,36.83c9.59,5.32,20.99,8.02,33.88,8.02
			c26.59,0,60.38-11.84,92.71-32.48c14.12-9.01,26.73-19,36.47-28.88c11.81-11.98,18.98-23.42,21.3-33.99
			c2.05-9.33,0.1-18.3-5.49-25.24c-2.18-2.71-4.83-5.01-7.92-6.89c2.07-3.15,3.27-6.91,3.27-10.96c0-10.77-8.51-19.55-19.17-19.98
			c-0.27-0.01-0.55-0.02-0.83-0.02c-0.14,0-0.28,0-0.42,0c-0.33,0.01-0.67,0.02-1,0.05c-12.25,0.77-24.48,3.95-35.19,7.75
			c-2.16-8.63-9.93-15.03-19.21-15.12C914.7,104.94,914.64,104.94,914.57,104.94L914.57,104.94z"/>
	</g>
	<g>
		<path fill="#F77568" d="M738.58,338.85c-34.92,0-67.2-21.09-76.78-50.13c-10.37-31.46-6.24-67.71,10.76-94.61
			c14.86-23.5,38.41-38.38,66.31-41.88c3.57-0.45,7.17-0.68,10.71-0.68c27.74,0,53.7,14.22,69.45,38.04
			c16.41,24.82,19.27,55.92,7.67,83.19C808.81,314.76,776.7,338.85,738.58,338.85C738.58,338.85,738.58,338.85,738.58,338.85z"/>
		<path fill="#1F003B" d="M749.58,161.54c52.92,0,89.41,56.82,67.91,107.31c-18.5,43.45-49.8,60-78.91,60
			c-30.78,0-59.12-18.5-67.28-43.26c-16.84-51.1,7.62-115.75,68.82-123.44C743.32,161.74,746.48,161.54,749.58,161.54
			 M749.58,141.54c-3.95,0-7.98,0.25-11.96,0.75c-30.92,3.88-57.03,20.39-73.51,46.46c-9.25,14.64-15.21,31.96-17.22,50.1
			c-1.99,17.88-0.11,36.2,5.42,52.99c5.38,16.34,17.21,31.07,33.3,41.46c15.52,10.03,34.33,15.55,52.98,15.55
			c19.61,0,38.57-5.97,54.85-17.28c18-12.5,32.29-30.96,42.47-54.89c12.93-30.37,9.74-64.99-8.53-92.62
			c-8.38-12.68-19.64-23.25-32.55-30.59C781.08,145.67,765.43,141.54,749.58,141.54L749.58,141.54z"/>
	</g>
	<path fill="#F90B3C" d="M794.03,256.03c-7.62-96.56-94.1-66.34-94.1-66.34s-8.75,7.59-8.07,15.3c0.68,7.7,56.31,18.3,46.88,34.54
		c-9.89,17.03-16.69,43.23,16.73,62.03C787.19,319.38,795.29,271.9,794.03,256.03z"/>
	<path fill="#FFDD94" d="M817.49,268.85c22.75-53.45-19.46-113.98-77.38-106.71c-29.27,3.68-50.14,20.39-62.1,42.42
		c0,0,35.53-40.59,94.38-3.57C807.26,222.92,817.49,268.85,817.49,268.85z"/>
	<g>
		<path fill="#1F003B" d="M794.03,256.03c-1.42-2.76-2.58-5.47-3.67-8.15c-1.26-2.65-2.38-5.26-3.51-7.83l-1.82-3.76
			c-0.61-1.24-1.12-2.5-1.8-3.68c-1.31-2.37-2.43-4.78-3.84-6.97c-2.57-4.54-5.54-8.57-8.67-12.21c-0.4-0.45-0.81-0.89-1.2-1.34
			c-0.39-0.45-0.76-0.92-1.21-1.3c-0.87-0.8-1.69-1.64-2.53-2.46l-2.68-2.24c-0.43-0.4-0.91-0.72-1.38-1.06l-1.41-1.01
			c-7.58-5.3-16.71-8.7-26.96-10.78c-5.12-1.03-10.48-1.79-16.04-2.34c-2.78-0.26-5.61-0.49-8.5-0.69l-8.88-0.52
			c2.38-1.96,5-3.52,7.7-4.93c2.7-1.42,5.52-2.56,8.41-3.61c5.79-1.98,11.91-3.27,18.22-3.64c6.3-0.39,12.82,0.14,19.23,1.77
			c6.4,1.63,12.69,4.43,18.27,8.33l2.05,1.52c0.68,0.51,1.38,1,1.99,1.59c1.25,1.15,2.53,2.27,3.74,3.45
			c1.12,1.26,2.26,2.51,3.35,3.8c0.57,0.62,1.04,1.32,1.52,1.99l1.43,2.05c3.68,5.53,6.46,11.52,8.05,17.64
			c0.96,3.03,1.41,6.13,1.89,9.19c0.28,1.52,0.34,3.07,0.43,4.61c0.07,1.54,0.16,3.06,0.21,4.58c-0.07,3.06-0.26,6.09-0.57,9.08
			C795.39,250.12,794.83,253.1,794.03,256.03z"/>
	</g>
	<g>
		<path fill="#F77568" d="M1089.52,276.98c-18.93,0-47.51-6.44-76.19-37.13c-21.46-22.96-29.04-55.97-19.79-86.13
			c8.93-29.13,31.77-50.5,61.09-57.19c7.16-1.63,14.36-2.46,21.41-2.46c26.46,0,51.21,11.65,69.7,32.8
			c16.99,19.45,27.2,45.53,28,71.57c0.56,18.07-7.41,36.98-21.85,51.88C1135.45,267.27,1112.72,276.98,1089.52,276.98z"/>
		<path fill="#1F003B" d="M1076.04,104.08c50.31-0.01,86.23,46.78,87.7,94.67c1.02,33.29-32.38,68.23-74.21,68.23
			c-21.89,0-46.09-9.57-68.88-33.96c-39.66-42.44-20.7-113.77,36.21-126.74C1063.44,104.79,1069.85,104.08,1076.04,104.08
			 M1076.05,84.08v20V84.08L1076.05,84.08h-0.01c-7.79,0-15.74,0.91-23.63,2.71c-32.85,7.49-58.43,31.41-68.43,64
			c-4.91,16.02-5.68,33.13-2.21,49.49c3.68,17.31,12.06,33.36,24.25,46.4c31.13,33.31,62.59,40.3,83.5,40.3
			c25.89,0,51.23-10.82,69.53-29.7c16.32-16.83,25.31-38.39,24.67-59.15c-0.87-28.31-11.97-56.68-30.46-77.84
			C1132.86,96.94,1105.43,84.08,1076.05,84.08L1076.05,84.08z"/>
	</g>
	<path fill="#F90B3C" d="M1038.3,212.96c-25.87-93.34,65.74-94.53,65.74-94.53s10.82,4.14,12.82,11.61s-46.65,36.46-32.24,48.49
		c15.12,12.62,30.47,34.91,5.5,64.01C1066.4,270.15,1042.55,228.3,1038.3,212.96z"/>
	<path fill="#FFDD94" d="M1020.64,233.03c-39.66-42.44-20.7-113.77,36.21-126.74c28.76-6.56,54.09,2.01,72.86,18.62
		c0,0-47.27-25.99-89.91,28.93C1014.54,186.38,1020.64,233.03,1020.64,233.03z"/>
	<g>
		<path fill="#1F003B" d="M1038.3,212.96c-1.75-2.48-3.29-5.09-4.76-7.75c-1.32-2.71-2.53-5.49-3.64-8.34
			c-0.48-1.44-0.91-2.9-1.37-4.37c-0.44-1.47-0.92-2.95-1.17-4.47c-0.6-3.04-1.23-6.11-1.36-9.28c-0.6-6.3-0.04-12.87,1.53-19.33
			l0.65-2.42c0.23-0.8,0.43-1.62,0.75-2.4c0.58-1.58,1.22-3.14,1.85-4.71c0.73-1.53,1.55-3.02,2.33-4.53
			c0.37-0.77,0.86-1.47,1.33-2.18l1.41-2.13c3.91-5.58,8.86-10.35,14.32-14.08c5.47-3.73,11.41-6.45,17.46-8.24
			c6.06-1.81,12.24-2.69,18.36-2.81c3.07,0,6.11,0.11,9.14,0.51c3.02,0.4,6.02,0.96,8.92,2l-8.16,3.53
			c-2.65,1.18-5.23,2.36-7.75,3.56c-5.04,2.41-9.82,4.96-14.27,7.68c-8.92,5.46-16.33,11.78-21.65,19.35l-0.98,1.43
			c-0.33,0.47-0.67,0.95-0.94,1.46l-1.75,3.02c-0.5,1.06-0.99,2.13-1.53,3.18c-0.29,0.51-0.48,1.08-0.69,1.64
			c-0.21,0.56-0.44,1.11-0.67,1.67c-1.7,4.49-3.11,9.3-3.97,14.44c-0.58,2.54-0.81,5.19-1.23,7.87c-0.24,1.34-0.29,2.7-0.44,4.07
			l-0.43,4.16c-0.18,2.8-0.33,5.64-0.62,8.56C1038.85,206.94,1038.68,209.89,1038.3,212.96z"/>
	</g>
	<g>
		<path fill="#FFC384" d="M924.13,499.15c-40.35,0-79.15-11.62-109.28-32.72c-31.04-21.74-51.48-52.64-57.54-87.01
			c-7.03-39.89,5.24-80.59,34.56-114.61c28.82-33.44,70.8-56.47,118.21-64.82c12.65-2.23,25.47-3.36,38.11-3.36
			c40.35,0,79.15,11.62,109.28,32.71c31.04,21.74,51.48,52.64,57.54,87.01c7.03,39.89-5.24,80.59-34.56,114.61
			c-28.82,33.44-70.8,56.47-118.21,64.83C949.59,498.02,936.77,499.15,924.13,499.15C924.13,499.15,924.13,499.15,924.13,499.15z"/>
		<path fill="#1F003B" d="M948.19,206.63c78.49,0,145.29,45.26,156.96,111.46c13.44,76.24-51.32,151.39-144.65,167.85
			c-12.29,2.17-24.47,3.21-36.37,3.21c-78.49,0-145.29-45.26-156.96-111.46c-13.44-76.24,51.32-151.39,144.65-167.85
			C924.11,207.67,936.28,206.63,948.19,206.63 M948.19,186.63c-13.22,0-26.63,1.18-39.85,3.51c-49.67,8.76-93.72,32.96-124.05,68.14
			c-15.08,17.5-25.98,36.79-32.42,57.35c-6.78,21.66-8.26,43.7-4.41,65.52c3.34,18.97,10.59,36.81,21.52,53.05
			c10.42,15.47,23.92,29.07,40.13,40.42c31.79,22.26,72.63,34.52,115.01,34.52c13.22,0,26.63-1.18,39.85-3.51
			c49.67-8.76,93.72-32.96,124.05-68.14c15.08-17.5,25.98-36.79,32.42-57.35c6.78-21.66,8.26-43.7,4.41-65.52
			c-3.34-18.97-10.58-36.81-21.52-53.05c-10.42-15.47-23.92-29.07-40.13-40.42C1031.42,198.89,990.57,186.63,948.19,186.63
			L948.19,186.63z"/>
	</g>
	<path fill="#A3463F" d="M1087.78,274.39c1.88,5.63,6.19,27.17,7.24,33.15c13.44,76.24-50.5,135-139.41,150.68
		s-169.09-17.67-182.53-93.91c-1.05-5.98-4.38-27.7-4.54-33.63c-3.54,15.28-4.18,31.11-1.38,47
		c13.44,76.24,100,124.71,193.34,108.25c93.33-16.46,158.1-91.61,144.65-167.85C1102.35,302.2,1096.33,287.53,1087.78,274.39z"/>
	<path fill="#EAA0FF" d="M915.83,232.6c-132.65,23.39-154.82,98.44-154.82,98.44c-5.12-29.02-10.22-63.48-1.69-79.13
		c21.07-38.67,83.9-62.48,146.94-73.59s130.23-10.23,163.25,18.9c13.37,11.79,20.36,45.92,25.47,74.94
		C1094.99,272.16,1048.48,209.21,915.83,232.6"/>
	<path fill="#9700D1" d="M1086.7,233.01c-4.27-15.7-60.69-49.41-175.93-29.09s-156.73,71.29-155.37,87.51
		c1.08,12.87,3.34,26.77,5.6,39.61c0,0,22.17-75.05,154.82-98.44s179.15,39.55,179.15,39.55
		C1092.72,259.32,1090.09,245.48,1086.7,233.01z"/>
	<g>
		<path fill="#1F003B" d="M915.83,232.6c-15.56,3.53-30.9,7.84-45.76,13.35l-5.54,2.13c-0.92,0.36-1.85,0.69-2.76,1.08l-2.73,1.16
			l-5.45,2.32l-5.37,2.48c-3.6,1.6-7.06,3.49-10.57,5.25c-1.74,0.92-3.43,1.91-5.15,2.86l-2.57,1.44l-2.51,1.53
			c-6.74,4-13.13,8.54-19.28,13.29c-6.13,4.79-11.93,9.97-17.25,15.56c-5.31,5.59-10.17,11.59-14.38,17.94
			c-2.1,3.18-4,6.46-5.75,9.79c-0.44,0.83-0.86,1.67-1.25,2.51c-0.41,0.84-0.79,1.68-1.15,2.53c-0.37,0.84-0.71,1.69-1.03,2.53
			c-0.15,0.42-0.32,0.84-0.45,1.24l-0.2,0.6l-0.14,0.47l-6.75,22.16l-4.44-22.79c-1.99-10.24-3.92-20.56-5.3-31.06
			c-0.69-5.25-1.27-10.55-1.62-15.92c-0.35-5.37-0.48-10.83-0.13-16.42c0.43-5.6,1.18-11.38,3.64-17.39
			c0.28-0.75,0.68-1.5,1.04-2.25c0.19-0.4,0.36-0.69,0.54-1l0.53-0.93c0.71-1.24,1.4-2.51,2.2-3.68c1.52-2.42,3.19-4.7,4.92-6.94
			c3.48-4.45,7.37-8.48,11.49-12.19c4.11-3.7,8.43-7.12,12.9-10.26c17.92-12.52,37.73-21.12,57.8-28.03
			c20.12-6.89,40.75-11.77,61.52-15.53c20.8-3.59,41.85-6.04,63.12-6.46c10.63-0.23,21.3,0.09,31.99,1.04
			c5.34,0.51,10.68,1.18,16.01,2.07c5.33,0.93,10.64,2.06,15.91,3.46c5.27,1.42,10.5,3.15,15.63,5.23
			c5.13,2.08,10.17,4.52,14.97,7.52c2.39,1.51,4.75,3.08,7,4.83c1.16,0.83,2.23,1.78,3.32,2.71l0.82,0.7
			c0.27,0.23,0.54,0.45,0.85,0.76c0.6,0.58,1.23,1.15,1.75,1.76c4.37,4.81,7.05,9.99,9.37,15.1c2.26,5.14,3.99,10.31,5.5,15.48
			c1.51,5.17,2.78,10.35,3.93,15.52c2.29,10.34,4.02,20.7,5.64,31l3.62,23.01l-13.96-18.57l-0.29-0.39l-0.39-0.49
			c-0.26-0.33-0.56-0.67-0.85-1.01c-0.59-0.68-1.2-1.36-1.83-2.02c-0.63-0.67-1.27-1.34-1.95-1.98c-0.66-0.66-1.34-1.3-2.03-1.93
			c-2.77-2.53-5.69-4.96-8.75-7.23c-6.13-4.53-12.74-8.5-19.65-11.94c-6.91-3.44-14.13-6.32-21.53-8.73
			c-7.41-2.37-14.96-4.44-22.66-5.9l-2.88-0.58l-2.9-0.48c-1.94-0.31-3.87-0.66-5.82-0.93c-3.9-0.46-7.8-1.05-11.73-1.32l-5.89-0.49
			l-5.91-0.31l-2.96-0.16c-0.99-0.05-1.98-0.04-2.96-0.07l-5.94-0.1C947.55,229.41,931.66,230.61,915.83,232.6
			c15.56-3.5,31.42-5.98,47.44-7l6.01-0.33c1-0.05,2.01-0.13,3.01-0.15l3.01-0.06l6.04-0.1l6.04,0.14c4.03,0.03,8.06,0.4,12.09,0.63
			c2.01,0.16,4.02,0.4,6.04,0.6l3.02,0.31l3.01,0.42c8.04,1.05,16.03,2.64,23.9,4.8c7.87,2.15,15.63,4.83,23.15,8.14
			c7.52,3.31,14.83,7.23,21.75,11.86c3.45,2.32,6.8,4.83,10.01,7.57c0.8,0.68,1.6,1.37,2.38,2.1c0.79,0.7,1.56,1.45,2.32,2.19
			c0.77,0.75,1.52,1.52,2.27,2.32c0.37,0.41,0.74,0.8,1.12,1.24l0.56,0.65c0.2,0.25,0.36,0.42,0.63,0.78l-10.34,4.44
			c-1.99-10.15-4.09-20.22-6.57-30.1c-2.51-9.83-5.43-19.59-9.48-28.28c-2.03-4.28-4.43-8.34-7.16-11.15
			c-0.33-0.38-0.68-0.65-1.02-0.98c-0.14-0.15-0.39-0.34-0.62-0.52l-0.68-0.55c-0.91-0.73-1.79-1.49-2.77-2.14
			c-1.88-1.39-3.88-2.66-5.91-3.87c-8.19-4.79-17.42-8.15-26.96-10.58c-4.79-1.18-9.66-2.13-14.58-2.9
			c-4.93-0.73-9.91-1.3-14.91-1.72c-10.02-0.78-20.14-0.98-30.27-0.66c-20.28,0.59-40.61,2.94-60.72,6.49
			c-20.12,3.53-40.02,8.29-59.29,14.66c-9.64,3.17-19.08,6.82-28.22,10.98c-4.55,2.12-9.04,4.34-13.43,6.71
			c-4.36,2.41-8.61,4.97-12.71,7.72c-8.13,5.55-15.66,11.85-21.72,19.16c-1.49,1.84-2.94,3.71-4.23,5.66
			c-0.7,0.95-1.26,1.97-1.87,2.96l-0.45,0.75c-0.15,0.25-0.32,0.51-0.4,0.7c-0.21,0.42-0.44,0.8-0.62,1.27
			c-1.6,3.58-2.47,8.21-2.91,12.93c-0.85,9.56-0.24,19.72,0.76,29.82c1.05,10.13,2.51,20.32,4.12,30.53l-11.19-0.63
			c0.14-0.43,0.22-0.64,0.33-0.95l0.31-0.81c0.2-0.54,0.42-1.03,0.63-1.54c0.43-1.01,0.87-1.99,1.33-2.96
			c0.46-0.97,0.93-1.92,1.43-2.86c0.48-0.95,0.99-1.87,1.52-2.78c2.07-3.67,4.37-7.16,6.82-10.53c4.91-6.71,10.44-12.89,16.37-18.58
			c5.94-5.69,12.31-10.86,18.97-15.57c6.65-4.72,13.62-8.95,20.81-12.68l2.68-1.43l2.73-1.33c1.82-0.87,3.63-1.79,5.47-2.62
			c3.71-1.6,7.37-3.32,11.14-4.73l5.63-2.2l5.71-1.97l2.85-0.98c0.95-0.32,1.92-0.59,2.88-0.89l5.76-1.75
			C884.27,237.74,900.01,234.64,915.83,232.6z"/>
	</g>
	<g>
		<path fill="none" d="M976.25,600.35"/>
	</g>
</g>
<g id="face">
	<g>
		<path fill="#FFFFFF" d="M942.17,382c1.36,7.72-12.01,16.56-27.97,19.47l11.07,62.8c1.89,10.75,12.14,17.92,22.89,16.03l21.99-3.88
			c10.75-1.89,17.92-12.14,16.03-22.89l-11.07-62.8C959.13,393.46,943.54,389.72,942.17,382z"/>
		<path fill="#1F003B" d="M942.17,382c0.25,1.51,0,3.07-0.58,4.51c-0.59,1.43-1.42,2.79-2.36,4.06c-1.9,2.53-4.17,4.88-6.63,7.08
			c-2.47,2.19-5.17,4.19-8.06,5.88c-2.9,1.67-5.99,3.09-9.23,3.98l4.95-7.11c0.26,1.08,0.36,2.18,0.49,3.28
			c0.12,1.1,0.33,2.18,0.52,3.27l1.15,6.52l2.3,13.04l4.6,26.09l1.15,6.52l0.58,3.26l0.14,0.82l0.14,0.57
			c0.1,0.37,0.13,0.77,0.29,1.12c0.87,2.95,2.83,5.52,5.35,7.29c2.55,1.75,5.66,2.57,8.72,2.39l1.15-0.14l0.29-0.03l0.4-0.07
			l0.82-0.14l3.26-0.58l6.52-1.15l6.52-1.15l3.26-0.58l0.82-0.14l0.4-0.07l0.28-0.07l1.13-0.26c2.94-0.88,5.59-2.71,7.38-5.23
			c1.76-2.53,2.73-5.6,2.54-8.68c0.02-0.39-0.09-0.77-0.12-1.15l-0.07-0.58l-0.14-0.82l-0.58-3.26l-1.15-6.52l-4.6-26.09l-2.3-13.04
			c-0.76-4.35-1.52-8.7-2.4-13.03l7.04,4.96c-6.73,0.39-13.48-1-19.6-3.4c-3.06-1.22-5.99-2.61-8.65-4.33
			c-1.32-0.86-2.56-1.84-3.61-2.99C943.24,384.89,942.43,383.52,942.17,382z M942.17,382c0.16,0.75,0.44,1.46,0.82,2.11
			c0.4,0.65,0.93,1.2,1.48,1.71c1.16,0.97,2.51,1.66,3.93,2.13c2.85,0.93,5.89,1.04,8.85,0.78c2.97-0.28,5.86-0.89,8.67-1.62
			c2.81-0.72,5.52-1.58,8.17-2.4c2.85-0.88,5.88,0.71,6.77,3.57c0.08,0.26,0.14,0.52,0.18,0.77l0.09,0.61
			c0.65,4.37,1.42,8.72,2.2,13.06l2.3,13.04l4.6,26.09l1.15,6.52l0.58,3.26l0.14,0.82l0.14,1.06c0.07,0.71,0.21,1.42,0.21,2.14
			c0.34,5.77-1.44,11.59-4.76,16.27c-3.33,4.69-8.31,8.18-13.84,9.79c-0.69,0.18-1.4,0.33-2.1,0.49l-0.53,0.12l-0.41,0.07
			l-0.82,0.14l-3.26,0.58l-6.52,1.15l-6.52,1.15l-3.26,0.58l-0.82,0.14l-0.41,0.07l-0.53,0.07c-0.71,0.09-1.42,0.19-2.14,0.25
			c-5.75,0.38-11.62-1.2-16.36-4.46c-4.72-3.26-8.38-8.13-10.03-13.66c-0.25-0.68-0.36-1.39-0.54-2.08l-0.23-1.04l-0.14-0.82
			l-0.58-3.26l-1.15-6.52l-4.6-26.09l-2.3-13.04l-1.15-6.52c-0.19-1.09-0.37-2.18-0.63-3.25c-0.25-1.08-0.54-2.15-0.66-3.25
			l-0.09-0.77c-0.36-3.14,1.89-5.98,5.04-6.34c1.37-0.16,2.78-0.16,4.19-0.27c1.41-0.09,2.84-0.2,4.28-0.34
			c2.88-0.27,5.81-0.67,8.69-1.41c2.87-0.75,5.71-1.86,8.07-3.7c1.17-0.92,2.21-2.03,2.97-3.33c0.34-0.67,0.65-1.36,0.81-2.11
			C942.27,383.53,942.29,382.76,942.17,382z"/>
	</g>
	<g>
		<path fill="#1F003B" d="M942.17,382c2.61,5.2,4.41,10.55,5.99,15.93c1.55,5.39,2.78,10.84,3.76,16.33
			c0.97,5.49,1.67,11.03,2.06,16.63c0.35,5.6,0.49,11.24-0.19,17.02c-2.62-5.2-4.42-10.55-6-15.93c-1.55-5.39-2.78-10.84-3.75-16.33
			c-0.96-5.49-1.66-11.03-2.05-16.63C941.64,393.42,941.5,387.79,942.17,382z"/>
	</g>
	<circle fill="#1F003B" cx="850.45" cy="316.64" r="36"/>
	<path fill="#1F003B" d="M965.61,351.61c1.96,11.13-8.01,27.68-23.44,30.4c-15.43,2.72-30.46-9.42-32.42-20.55
		c-1.96-11.13,8.95-22.35,24.38-25.07C949.56,333.67,963.65,340.48,965.61,351.61z"/>
	<g>
		<path fill="#1F003B" d="M868.1,379.41c1.2,1.62,2.38,3.17,3.65,4.59c1.27,1.42,2.63,2.69,4.02,3.84c2.79,2.29,5.84,3.96,8.99,5.09
			c3.13,1.16,6.4,1.76,9.69,2.01c1.65,0.1,3.3,0.15,4.96,0.09c1.66-0.04,3.32-0.24,4.98-0.42c6.6-0.87,13.2-2.85,18.94-5.66
			c2.83-1.4,5.51-3.06,7.33-4.71c0.46-0.41,0.83-0.79,1.14-1.14c0.28-0.34,0.5-0.65,0.59-0.82c0.08-0.16,0.05-0.17-0.03,0.09
			c-0.07,0.24-0.14,0.8-0.04,1.38l19.69-3.47c-0.09-0.58-0.35-1.08-0.5-1.29c-0.16-0.22-0.18-0.19-0.05-0.08
			c0.14,0.13,0.45,0.34,0.83,0.56c0.42,0.22,0.9,0.46,1.47,0.68c2.27,0.93,5.35,1.57,8.49,1.91c6.36,0.68,13.22,0.27,19.73-1.16
			c1.62-0.39,3.24-0.79,4.82-1.31c1.58-0.51,3.11-1.13,4.63-1.78c3.01-1.35,5.87-3.03,8.42-5.19c2.57-2.14,4.86-4.74,6.71-7.85
			c0.91-1.55,1.76-3.21,2.47-4.98c0.72-1.77,1.3-3.62,1.87-5.56c0.58,1.93,0.93,3.93,1.13,5.99c0.15,2.06,0.11,4.17-0.17,6.29
			c-0.51,4.26-2.09,8.49-4.4,12.34c-1.17,1.91-2.53,3.72-4.03,5.41c-1.5,1.68-3.17,3.2-4.9,4.62c-1.73,1.43-3.59,2.68-5.5,3.83
			c-1.91,1.15-3.88,2.19-5.91,3.06c-8.11,3.58-16.83,5.35-25.89,5.26c-4.56-0.1-9.2-0.61-14.21-2.3c-2.5-0.88-5.13-2.05-7.9-4.16
			c-1.37-1.09-2.78-2.44-4.04-4.24c-1.25-1.78-2.31-4.09-2.75-6.58l0-0.02c-0.94-5.44,2.7-10.62,8.14-11.56
			c5.44-0.94,10.61,2.67,11.55,8.11c0.44,2.48,0.23,5.02-0.33,7.12c-0.57,2.12-1.42,3.88-2.35,5.37c-1.88,2.92-3.95,4.93-6,6.6
			c-4.13,3.3-8.32,5.37-12.57,7.02c-8.48,3.19-17.28,4.49-26.12,3.91c-2.21-0.12-4.41-0.44-6.6-0.86c-2.18-0.42-4.36-0.97-6.47-1.72
			c-4.24-1.44-8.3-3.56-11.81-6.36c-3.49-2.81-6.42-6.25-8.36-10.07c-0.99-1.89-1.75-3.87-2.31-5.85
			C868.57,383.42,868.22,381.42,868.1,379.41z"/>
	</g>
	<circle fill="#FFFFFF" cx="863.53" cy="293.36" r="8.16"/>
	<circle fill="#FFFFFF" cx="858.43" cy="312.74" r="6.11"/>
	
		<ellipse transform="matrix(0.9848 -0.1736 0.1736 0.9848 -45.5344 167.8529)" fill="#EAA0FF" cx="936.52" cy="344.16" rx="13.45" ry="8.07"/>
	<g>
		<path fill="#1F003B" d="M800.3,379.89c4.27-2.74,8.7-4.45,13.16-5.9c4.47-1.4,9-2.42,13.58-3.1c4.58-0.68,9.21-1.02,13.89-0.97
			c4.69,0.1,9.42,0.46,14.31,1.86c-4.27,2.75-8.7,4.47-13.16,5.92c-4.47,1.4-9,2.42-13.58,3.08c-4.58,0.67-9.21,1-13.89,0.96
			C809.92,381.64,805.19,381.28,800.3,379.89z"/>
	</g>
	<g>
		<path fill="#1F003B" d="M804.07,401.25c3.77-3.11,7.79-5.2,11.88-7.05c4.1-1.82,8.3-3.2,12.58-4.3c4.28-1.08,8.64-1.86,13.11-2.21
			c4.47-0.33,9.01-0.39,13.81,0.56c-3.77,3.12-7.79,5.22-11.88,7.06c-4.1,1.81-8.3,3.2-12.58,4.28c-4.28,1.07-8.64,1.85-13.11,2.2
			C813.4,402.12,808.86,402.19,804.07,401.25z"/>
	</g>
	<circle fill="#1F003B" cx="1006.01" cy="289.21" r="36"/>
	<circle fill="#FFFFFF" cx="1019.09" cy="265.93" r="8.16"/>
	<circle fill="#FFFFFF" cx="1013.99" cy="285.32" r="6.11"/>
	<g>
		<path fill="#1F003B" d="M1074.77,331.49c-4.11,2.98-8.44,4.93-12.81,6.63c-4.39,1.65-8.85,2.92-13.38,3.85
			c-4.53,0.94-9.13,1.53-13.81,1.75c-4.69,0.17-9.43,0.07-14.39-1.06c4.11-2.99,8.43-4.95,12.81-6.64
			c4.39-1.65,8.85-2.92,13.38-3.84c4.53-0.93,9.14-1.52,13.82-1.73C1065.07,330.29,1069.81,330.38,1074.77,331.49z"/>
	</g>
	<g>
		<path fill="#1F003B" d="M1078.53,352.85c-4.18,2.53-8.47,4.01-12.78,5.24c-4.32,1.2-8.68,1.96-13.07,2.42
			c-4.39,0.45-8.82,0.58-13.29,0.28c-4.47-0.33-8.97-0.93-13.58-2.57c4.18-2.54,8.47-4.03,12.78-5.25c4.32-1.2,8.68-1.96,13.07-2.4
			c4.39-0.44,8.82-0.57,13.29-0.27C1069.43,350.63,1073.93,351.22,1078.53,352.85z"/>
	</g>
</g>
<g id="hands">
	<path fill="#FDC286" d="M979.41,590.31c-52.51,57.69-144.49-1.87-144.49-1.87s4.39,15.02-1.15,20.95
		c-44.34,47.47-115.6,2.04-115.6,2.04c-20.64,2.5-25.18-5.94-38.24-12.18c-9.71-37.04-16.03-92.9-8.72-130.66
		c10.73-55.46,60.22-60.32,77.48-39.98c9.88,11.64,3.76,39.35-5.78,48.42c-5.71,5.42-18.55,6.67-18.55,6.67s12.25,16.91,14.23,41.06
		c0,0,26.03-15.09,50.93-6.38c0,0,30.17-38.94,77.53-15.95c0,0,70.25-34.61,99.99,17.7"/>
	<path fill="#FDC286" d="M979.41,590.31c69.07,36.25,135.14-51.18,135.14-51.18s13.48-4.25,21.59-4.55
		c64.91-2.45,72.21-68.66,72.21-68.66c14.17-12.85,8.84-18.3,16.74-27.93c1.41-1.72,2.02-3.95,1.71-6.15
		c-5.25-37.74,17.72-84.54,14.69-121.67c-4.59-56.3-53.24-66.55-72.63-48.23c-11.09,10.49-8.06,38.7,0.44,48.76
		c5.08,6.02,17.7,8.67,17.7,8.67s-14.03,15.46-18.65,39.25c0,0-5.04,21.72-11.01,30.69c-7.78,11.7-29.36,33.73-33.79,44.92
		c0,0-31.98-2.74-68.62,35.07c0,0-77.85-8.5-87.91,50.83"/>
	<path fill="#FFE6BE" d="M858.78,528.46c47.79-38.09,105.92-12.98,105.92-12.98C940.21,483.52,869.35,493.58,858.78,528.46z"/>
	<g>
		<path fill="#A3463F" d="M734.4,461.75c-3.72,6.14-11.6-0.29-14.44,2.08c-14.7,12.28-18.78-8.41-23.87,10.82
			c-7.86,29.72,7.35,21.58,18.82,22.24c6.69,0.38,23.68,27.86,23.68,27.86c-1.98-24.15-14.23-41.06-14.23-41.06
			s12.83-1.25,18.55-6.67C752.45,467.96,742.31,448.7,734.4,461.75z"/>
	</g>
	<path fill="#A3463F" d="M962.87,583.12c-64.8,37.7-128.61-29.47-128.61-29.47c-24.9-8.72-71.15,23.14-88.83,13.09
		c11.13,24.34,59.97,35.73,59.97,35.73s-63.73,20.3-79.96-23.78c-0.87,15.94-0.87,15.94-0.87,15.94s-2.16-1.17-18.3,0.83
		c-11.89,1.47-30.94-13.85-26.32,3.78c13.07,6.24,17.6,14.68,38.24,12.18c0,0,71.26,45.43,115.6-2.04
		c5.54-5.93,1.15-20.95,1.15-20.95s91.99,59.57,144.49,1.87l-12.38-70.18C964.91,541.95,976.38,575.26,962.87,583.12z"/>
	<g>
		<path fill="#1F003B" d="M979.41,590.31c-0.95,1.34-1.91,2.7-2.9,4.04c-0.5,0.67-0.97,1.37-1.51,2.01l-1.68,1.86
			c-1.14,1.23-2.23,2.54-3.47,3.69c-1.25,1.13-2.51,2.28-3.8,3.4c-0.63,0.59-1.32,1.09-2.01,1.59l-2.08,1.52l-2.1,1.52
			c-0.73,0.45-1.48,0.88-2.22,1.32l-2.24,1.31c-0.75,0.44-1.5,0.89-2.29,1.24c-1.56,0.76-3.15,1.47-4.73,2.2
			c-6.45,2.64-13.25,4.49-20.17,5.63l-5.21,0.72c-1.74,0.16-3.48,0.28-5.24,0.42c-1.76,0.18-3.49,0.13-5.25,0.19l-2.63,0.04
			l-2.61-0.09c-14.01-0.37-27.68-3.46-40.6-8.09c-6.47-2.3-12.76-5.01-18.94-7.94c-3.1-1.46-6.14-3.02-9.17-4.63
			c-1.51-0.81-3.02-1.65-4.53-2.5l-2.27-1.32c-0.78-0.47-1.47-0.88-2.38-1.46l15.3-11.4l0.23,0.83l0.18,0.7l0.32,1.36
			c0.2,0.9,0.39,1.79,0.54,2.7c0.32,1.82,0.58,3.66,0.71,5.61c0.16,1.92,0.16,4,0,6.19c-0.13,1.15-0.22,2.23-0.51,3.5
			c-0.15,0.63-0.23,1.19-0.45,1.87c-0.21,0.67-0.44,1.33-0.67,1.99c-0.1,0.32-0.26,0.67-0.44,1.03l-0.53,1.06l-0.56,1.04
			c-0.19,0.34-0.48,0.72-0.73,1.07c-0.26,0.36-0.53,0.71-0.8,1.05l-0.42,0.51c-0.14,0.17-0.3,0.36-0.35,0.4l-0.92,0.93l-3.72,3.7
			c-1.33,1.15-2.68,2.29-4.03,3.42l-1.01,0.85l-1.08,0.78l-2.16,1.54c-5.81,4.05-12.24,7.32-18.96,9.6
			c-6.72,2.3-13.7,3.57-20.61,4.05c-13.86,0.94-27.35-1.21-40.02-4.89c-6.35-1.85-12.52-4.11-18.53-6.72
			c-3.01-1.29-5.97-2.69-8.91-4.17c-1.47-0.74-2.93-1.51-4.39-2.31l-2.2-1.23c-0.77-0.44-1.42-0.82-2.35-1.4l7.17,1.63
			c-4.21,0.48-8.65,0.74-13.39,0.28c-2.36-0.2-4.8-0.67-7.21-1.29c-2.39-0.67-4.78-1.52-6.92-2.55c-2.19-1-4.11-2.12-5.89-3.18
			l-4.78-2.97l-2.13-1.28l-1.02-0.58l-0.51-0.29c-0.39-0.22-0.93-0.53-1.37-0.83c-3.7-2.43-6.42-6.17-7.66-10.32l-0.22-0.78
			l-0.1-0.41l-0.17-0.69l-0.33-1.39l-0.66-2.77c-0.46-1.85-0.85-3.7-1.24-5.55c-0.83-3.7-1.52-7.41-2.23-11.13
			c-1.34-7.43-2.56-14.88-3.49-22.37c-1.96-14.96-3.09-30.04-3.25-45.28c-0.05-1.9-0.01-3.81,0.01-5.72
			c0.04-1.91,0.02-3.82,0.1-5.74c0.17-3.84,0.29-7.67,0.65-11.54c0.23-3.85,0.8-7.74,1.26-11.62c0.66-3.91,1.21-7.75,2.2-11.8
			c0.4-2,1.05-3.99,1.59-5.98c0.56-1.99,1.32-3.96,1.98-5.93c1.54-3.91,3.23-7.81,5.4-11.54c4.19-7.49,9.88-14.45,16.95-19.99
			c7.03-5.56,15.48-9.52,24.44-11.35c8.97-1.78,18.49-1.41,27.55,1.76c4.52,1.59,8.92,3.92,12.86,7.11
			c0.97,0.83,1.93,1.67,2.85,2.56l1.33,1.42c0.45,0.5,0.85,0.88,1.35,1.55c1.95,2.43,3.35,5.02,4.37,7.56
			c1.98,5.08,2.63,9.92,2.78,14.51c0.13,4.6-0.31,8.99-1.1,13.28c-0.81,4.29-2,8.47-3.68,12.62c-0.83,2.07-1.82,4.14-2.98,6.21
			c-1.17,2.07-2.52,4.15-4.31,6.25c-0.44,0.52-0.9,1.05-1.44,1.57l-0.78,0.78l-0.95,0.82l-0.97,0.79c-0.32,0.26-0.62,0.44-0.94,0.67
			c-0.62,0.41-1.27,0.88-1.86,1.19c-2.46,1.44-4.75,2.36-6.98,3.13c-2.23,0.76-4.39,1.33-6.54,1.79c-1.07,0.23-2.14,0.43-3.22,0.61
			c-0.54,0.09-1.08,0.17-1.63,0.25c-0.59,0.08-1.04,0.14-1.83,0.22l7.61-16.9l0.59,0.85l0.47,0.72c0.31,0.47,0.59,0.93,0.87,1.38
			c0.57,0.91,1.07,1.81,1.6,2.72c1,1.81,1.96,3.63,2.84,5.47c1.77,3.68,3.32,7.45,4.62,11.31c1.31,3.86,2.43,7.79,3.25,11.81
			c0.89,4,1.4,8.1,1.79,12.2l-15.69-8.2l0.58-0.32l0.46-0.24l0.9-0.46c0.58-0.28,1.16-0.59,1.73-0.85c1.14-0.54,2.28-1.05,3.43-1.53
			c2.29-0.97,4.6-1.83,6.95-2.61c4.7-1.55,9.56-2.73,14.55-3.48c4.98-0.81,10.18-0.95,15.39-0.63l3.92,0.38
			c1.31,0.18,2.61,0.46,3.92,0.7l1.96,0.38c0.65,0.17,1.29,0.37,1.93,0.55l3.85,1.15l-11.46,3.39l0.67-0.82l0.56-0.65
			c0.36-0.41,0.73-0.82,1.09-1.2c0.72-0.78,1.45-1.53,2.18-2.25c1.47-1.45,2.98-2.83,4.54-4.14c3.12-2.63,6.42-5.03,9.91-7.17
			c6.97-4.29,14.77-7.49,22.96-9.23c8.2-1.74,16.75-1.82,24.9-0.49c8.14,1.42,15.89,4.13,22.93,7.76l-8.3,0.02
			c0.78-0.36,1.3-0.58,1.93-0.85l1.79-0.73c1.18-0.47,2.36-0.92,3.55-1.34c2.37-0.82,4.74-1.61,7.14-2.3
			c4.78-1.43,9.66-2.53,14.59-3.38c9.87-1.64,20.08-2.18,30.23-0.72c5.07,0.73,10.1,1.95,14.95,3.72c4.85,1.76,9.49,4.23,13.59,7.32
			c4.15,3.05,7.63,6.89,10.41,11.03c0.67,1.06,1.36,2.09,1.97,3.17c0.56,1.11,1.1,2.23,1.62,3.34c0.25,0.56,0.52,1.1,0.74,1.68
			l0.59,1.75c0.39,1.16,0.75,2.32,1.06,3.49c-0.92-0.82-1.81-1.64-2.65-2.47c-0.84-0.83-1.68-1.64-2.6-2.38
			c-0.88-0.77-1.75-1.52-2.59-2.28l-2.69-2.08c-3.59-2.69-7.22-5.06-11.11-6.84c-3.85-1.8-7.76-3.35-11.87-4.27
			c-4.11-0.93-8.32-1.4-12.58-1.47c-8.52-0.11-17.13,1.31-25.54,3.53c-4.21,1.11-8.37,2.5-12.48,4c-2.05,0.75-4.07,1.58-6.07,2.43
			l-2.95,1.31l-1.43,0.67c-0.44,0.21-0.98,0.48-1.26,0.63l-3.76,2.04l-4.54-2.02c-5.81-2.58-11.75-4.44-17.71-5.29
			c-5.95-0.85-11.91-0.65-17.67,0.62c-5.76,1.29-11.35,3.61-16.51,6.85c-2.58,1.62-5.05,3.45-7.37,5.45
			c-1.16,0.99-2.28,2.04-3.34,3.1c-0.53,0.53-1.05,1.07-1.53,1.61l-0.7,0.79l-0.49,0.59l-4.46,5.35l-7-1.96l-2.48-0.69l-1.24-0.36
			l-1.29-0.22c-0.86-0.14-1.7-0.33-2.57-0.45l-2.64-0.22c-3.55-0.16-7.2-0.08-10.9,0.57c-3.69,0.6-7.39,1.52-11.03,2.76
			c-1.81,0.63-3.62,1.31-5.37,2.08c-0.88,0.38-1.74,0.77-2.58,1.18c-0.43,0.2-0.81,0.41-1.23,0.61l-0.57,0.3l-0.42,0.23l-13.95,7.63
			l-1.74-15.83c-0.35-3.17-0.75-6.35-1.49-9.48c-0.66-3.15-1.59-6.25-2.66-9.31c-1.06-3.06-2.34-6.06-3.76-8.96
			c-0.71-1.45-1.47-2.87-2.25-4.25c-0.4-0.67-0.8-1.37-1.2-2c-0.2-0.33-0.4-0.64-0.6-0.94l-0.48-0.71l-9.81-14.51l17.42-2.39
			l0.9-0.12l1.09-0.18c0.73-0.13,1.47-0.28,2.19-0.44c1.45-0.32,2.83-0.72,4.08-1.15c1.24-0.43,2.36-0.93,3.06-1.38
			c0.23-0.11,0.3-0.21,0.45-0.3c0.06-0.04,0.16-0.09,0.19-0.13c0.03-0.03,0.05-0.07,0.09-0.09c0.03-0.03,0.07-0.05,0.11-0.07
			l0.18-0.2c0.12-0.11,0.26-0.28,0.41-0.46c1.21-1.44,2.59-3.93,3.62-6.58c1.05-2.68,1.87-5.6,2.41-8.53
			c0.53-2.93,0.79-5.9,0.7-8.65c-0.08-2.74-0.56-5.27-1.27-7.05c-0.36-0.87-0.76-1.53-1.11-1.96c-0.03-0.09-0.31-0.34-0.47-0.52
			l-0.55-0.6l-1.25-1.12c-1.78-1.42-3.96-2.6-6.37-3.43c-4.83-1.68-10.51-1.98-15.93-0.86c-5.43,1.15-10.66,3.57-15.13,7.15
			c-4.49,3.56-8.32,8.16-11.27,13.5c-1.53,2.63-2.74,5.51-3.9,8.42c-0.48,1.51-1.06,2.98-1.49,4.52c-0.4,1.56-0.92,3.06-1.22,4.67
			c-0.76,3.1-1.24,6.54-1.79,9.87c-0.39,3.42-0.86,6.81-1.09,10.3c-0.34,3.45-0.45,6.96-0.63,10.46c-0.08,1.75-0.07,3.52-0.11,5.28
			c-0.03,1.76-0.08,3.52-0.03,5.3c0.1,14.15,1.11,28.44,2.92,42.62c0.86,7.1,1.99,14.16,3.23,21.2c0.66,3.51,1.3,7.02,2.07,10.49
			c0.36,1.74,0.72,3.49,1.14,5.21l1.09,4.67c-0.19-0.63-0.62-1.22-1.24-1.64c-0.06-0.04-0.2-0.12-0.2-0.11l0.69,0.39l1.37,0.79
			l2.59,1.57c3.33,2.08,6.07,3.9,8.36,4.94c2.31,1.11,4.42,1.66,7.03,1.93c2.57,0.26,5.52,0.15,8.6-0.19l3.79-0.42l3.39,2.05
			l1.59,0.96l1.8,1.03c1.22,0.68,2.46,1.36,3.73,2.01c2.52,1.3,5.09,2.55,7.7,3.7c5.21,2.32,10.55,4.35,15.95,5.97
			c10.79,3.26,21.89,5.04,32.53,4.41c10.66-0.56,20.67-3.82,29.18-9.65l1.59-1.11l0.8-0.55l0.75-0.63l3.01-2.49l2.82-2.76l0.71-0.69
			c0.1-0.09,0.04-0.05,0.02-0.03c-0.02,0.02-0.05,0.04-0.07,0.06c-0.04,0.04-0.08,0.09-0.11,0.14c-0.03,0.04-0.05,0.13-0.06,0.14
			c-0.02,0-0.03,0.01-0.04,0.02c-0.01,0.01-0.01,0.02-0.01,0.04c0,0.02,0.01,0.03,0.02-0.02c0.01-0.07,0.03-0.13,0.07-0.19
			c0.04-0.05,0.05-0.25,0.08-0.37c0.09-0.22,0.1-0.67,0.17-1.04c0.06-0.87,0.1-1.86,0.01-3c-0.06-1.11-0.21-2.3-0.41-3.51
			c-0.1-0.6-0.22-1.21-0.34-1.81l-0.2-0.88l-0.17-0.7l-6.32-25.44l21.62,14.04c0.46,0.3,1.17,0.74,1.79,1.11l1.96,1.17
			c1.33,0.77,2.67,1.53,4.03,2.28c2.73,1.48,5.48,2.93,8.28,4.29c5.59,2.75,11.33,5.19,17.11,7.44c5.79,2.22,11.64,4.23,17.52,6.03
			c1.47,0.43,2.95,0.89,4.43,1.29c1.49,0.37,2.96,0.8,4.45,1.2c2.98,0.69,5.96,1.44,8.97,1.98c6.01,1.11,12.1,1.96,18.21,1.98
			c6.1,0.05,12.21-0.53,18.24-1.79c6.01-1.35,11.88-3.44,17.6-6.17c1.38-0.75,2.81-1.47,4.23-2.21c0.73-0.34,1.37-0.82,2.05-1.24
			l2.05-1.28l2.07-1.29c0.67-0.46,1.31-0.96,1.97-1.44C976.71,592.24,978.06,591.28,979.41,590.31z"/>
	</g>
	<g>
		<path fill="#EAA0FF" d="M664.6,518.48l77.75,5.61c1.4-13.34,2.14-28.52,2.3-45.94l-78.04-2.31L664.6,518.48z"/>
		<path fill="#9700D1" d="M665.61,497.16l78.43,3.99c0.34-7.2,0.54-14.86,0.61-23l-78.04-2.31L665.61,497.16z"/>
		<path fill="none" stroke="#1F003B" stroke-width="20" stroke-linecap="round" stroke-linejoin="round" stroke-miterlimit="10" d="
			M664.6,518.48l77.75,5.61c1.4-13.34,2.14-28.52,2.3-45.94l-78.04-2.31L664.6,518.48z"/>
	</g>
	<g>
		<path fill="#A3463F" d="M992.5,577.9c73.79,13.27,110.78-71.68,110.78-71.68c20.42-16.71,49.48-29,53.46-48.95
			c11.12,24.35-12.05,43.88-12.05,43.88s36.91-20.44,35.17-51.18c12.62,9.77,11.62,9.77,11.62,9.77s0.53,1.61,12.61-9.29
			c8.89-8.02,20.92-33.08,23.2-14.99c-9.8,10.66-3.53,16.49-18.94,30.45c0,0-14.56,70.81-79.47,73.25
			c-8.11,0.31-14.33-0.04-14.33-0.04s-66.07,87.43-135.14,51.18l-12.38-70.18C976.5,539.9,977.12,575.13,992.5,577.9z"/>
		<path fill="#FFE6BE" d="M1071.62,490.93c-57.93-19.45-103.97,24.02-103.97,24.02C979.72,476.55,1049.75,461.77,1071.62,490.93z"/>
		<g>
			<path fill="#A3463F" d="M1179.43,296.46c3.02,6.51,11.56,0.98,14.13,3.65c13.26,13.82,19.59-6.3,22.54,13.37
				c4.56,30.4-9.67,20.65-21.15,20.04c-6.69-0.35-26.59,25.1-26.59,25.1c4.62-23.79,18.65-39.25,18.65-39.25s-12.62-2.65-17.7-8.67
				C1160.81,300.64,1173,282.61,1179.43,296.46z"/>
		</g>
		<g>
			<path fill="#1F003B" d="M979.41,590.31c6.31,2.03,12.61,3.57,18.93,4.22c6.3,0.71,12.56,0.58,18.66-0.21
				c12.24-1.58,23.75-6.28,34.24-12.58c2.64-1.56,5.2-3.26,7.75-4.96c2.54-1.72,5.02-3.56,7.49-5.39c1.24-0.92,2.45-1.87,3.66-2.83
				c1.22-0.94,2.43-1.91,3.63-2.88c1.19-0.98,2.38-1.97,3.55-2.99c1.19-0.99,2.37-1.99,3.54-3.02c4.65-4.11,9.2-8.37,13.52-12.86
				c2.16-2.24,4.27-4.54,6.31-6.87c1.02-1.16,2.03-2.34,3.01-3.52l1.44-1.77l0.69-0.87l0.6-0.78l11.06-3.6
				c-0.23-0.07-0.04-0.02-0.03-0.02l0.22,0.05c0.15,0.04,0.37,0.07,0.56,0.11c0.4,0.07,0.83,0.15,1.28,0.2
				c0.89,0.12,1.85,0.19,2.8,0.24c1.92,0.09,3.91,0.02,5.9-0.16c3.99-0.39,8-1.28,11.91-2.66c3.92-1.36,7.74-3.18,11.41-5.35
				c0.91-0.57,1.84-1.07,2.73-1.69l2.68-1.81c1.74-1.31,3.49-2.59,5.16-4.03l1.27-1.05l1.23-1.11c0.81-0.75,1.64-1.48,2.44-2.25
				c1.56-1.6,3.18-3.11,4.66-4.81l2.26-2.5l2.17-2.61c1.48-1.7,2.8-3.58,4.21-5.37c1.37-1.82,2.65-3.74,3.98-5.6l3.76-5.81
				l3.55-5.98c1.07-1.91,2.13-3.89,3.19-6.01c2.11-4.19,4.2-8.6,6.36-13.04c2.16-4.45,4.36-8.96,6.82-13.54
				c1.25-2.29,2.51-4.59,4-6.95c0.7-1.16,1.52-2.37,2.35-3.57c0.38-0.59,0.91-1.23,1.37-1.85l0.72-0.93l0.15-0.2
				c-0.42,0.51-0.8,1.07-1.12,1.67c-0.41,0.81-0.38,0.82-0.41,0.85c-0.06,0.13-0.12,0.31-0.16,0.42l0,0l0.3-1.14l0.39-1.61
				l0.76-3.41c0.5-2.32,0.98-4.67,1.45-7.03c3.74-18.92,6.92-38.12,9.39-57.23c1.22-9.56,2.26-19.12,2.9-28.57
				c0.31-4.72,0.53-9.42,0.56-14.01c0.02-2.29-0.01-4.56-0.11-6.76c-0.05-1.1-0.12-2.18-0.21-3.24c-0.11-1.08-0.19-2.17-0.34-3.23
				c-1.06-8.55-3.37-16.72-7.34-23.61c-3.93-6.88-9.5-12.47-16.16-15.84c-3.31-1.7-6.88-2.84-10.49-3.37
				c-3.6-0.51-7.24-0.42-10.55,0.35c-3.31,0.75-6.27,2.16-8.47,4.03c-0.14,0.11-0.27,0.24-0.4,0.36l-0.2,0.18
				c-0.05,0.05-0.07,0.08-0.1,0.12c-0.06,0.07-0.13,0.14-0.21,0.2c-0.07,0.07-0.14,0.18-0.21,0.26c-0.3,0.33-0.59,0.83-0.9,1.35
				c-0.59,1.12-1.13,2.59-1.53,4.24c-1.6,6.7-0.91,15.79,1.58,22.65c0.61,1.68,1.35,3.25,2.04,4.24c0.17,0.27,0.32,0.46,0.46,0.64
				c0.08,0.12,0.08,0.08,0.11,0.13l0.15,0.15c0.26,0.24,0.72,0.6,1.31,0.98c1.19,0.76,2.86,1.55,4.65,2.24
				c0.9,0.34,1.84,0.66,2.79,0.96l1.43,0.41l1.23,0.31l17.36,4.44l-11.58,13.4l-0.37,0.43l-0.51,0.62c-0.35,0.43-0.7,0.87-1.05,1.34
				c-0.7,0.92-1.38,1.87-2.05,2.85c-1.34,1.95-2.59,4-3.77,6.08c-2.33,4.18-4.32,8.56-5.87,13.05c-0.78,2.24-1.44,4.52-2,6.81
				l-0.21,0.86l-0.2,0.94l-0.2,0.95l-0.16,0.72l-0.13,0.54c-0.35,1.41-0.71,2.78-1.08,4.15c-1.49,5.48-3.14,10.89-5.22,16.43
				c-1.06,2.78-2.2,5.57-3.72,8.54c-0.39,0.75-0.78,1.49-1.25,2.28c-0.22,0.39-0.46,0.78-0.72,1.19l-0.39,0.6l-0.32,0.48
				c-0.83,1.24-1.66,2.4-2.48,3.56c-3.3,4.59-6.59,8.9-9.81,13.2c-3.22,4.29-6.38,8.55-9.31,12.79c-1.46,2.12-2.86,4.23-4.12,6.29
				c-1.24,2.03-2.37,4.12-3.01,5.67l-2.63,6.44l-7.33-0.01l-0.64,0l-0.99,0.03c-0.69,0.03-1.4,0.08-2.13,0.14
				c-1.45,0.12-2.93,0.31-4.42,0.56c-2.98,0.48-5.99,1.16-8.96,2.01c-5.96,1.69-11.79,4.09-17.4,6.97c-2.8,1.45-5.56,3.02-8.25,4.71
				c-2.68,1.72-5.32,3.5-7.89,5.42c-2.59,1.88-5.07,3.94-7.52,6.03c-1.24,1.04-2.42,2.14-3.64,3.21l-3.54,3.34l-3.52,3.33
				l-4.24-0.53l-0.63-0.08l-0.76-0.08l-1.58-0.14c-1.06-0.09-2.14-0.18-3.22-0.24c-2.17-0.13-4.35-0.2-6.54-0.21
				c-4.37-0.01-8.76,0.09-13.1,0.5c-4.34,0.4-8.66,0.96-12.88,1.87c-4.22,0.9-8.38,2.01-12.35,3.55c-3.98,1.51-7.79,3.4-11.32,5.71
				c-3.52,2.31-6.76,5.02-9.73,8.07c-2.98,3.05-5.68,6.47-8.1,10.25c-2.46,3.77-4.54,7.91-6.67,12.29
				c-1.02-9.64,1.45-19.9,7.06-28.56c2.78-4.33,6.33-8.19,10.27-11.51c3.94-3.34,8.26-6.19,12.78-8.59
				c9.04-4.83,18.81-7.83,28.64-9.65c4.93-0.88,9.88-1.52,14.86-1.82c2.49-0.16,4.99-0.24,7.5-0.27c1.26-0.01,2.52-0.01,3.79,0.02
				l1.93,0.08l0.99,0.05l1.11,0.08l-7.76,2.8l3.83-3.98c1.33-1.28,2.61-2.6,3.98-3.86c2.73-2.49,5.53-4.94,8.47-7.22
				c5.82-4.64,12.15-8.72,18.78-12.3c6.67-3.51,13.69-6.48,21.04-8.64c3.67-1.09,7.43-1.98,11.28-2.64c1.92-0.33,3.87-0.6,5.87-0.79
				c1-0.1,2.01-0.17,3.05-0.23c0.53-0.02,1.04-0.05,1.61-0.06l0.86-0.01l0.47,0l0.63,0.02l-9.97,6.43c1.39-3.46,2.91-6.12,4.44-8.72
				c1.54-2.56,3.11-4.97,4.7-7.32c3.18-4.69,6.43-9.14,9.66-13.53c3.22-4.38,6.45-8.7,9.43-12.92c0.73-1.05,1.46-2.1,2.13-3.11
				l0.24-0.36l0.15-0.25c0.1-0.16,0.21-0.35,0.32-0.55c0.22-0.38,0.46-0.83,0.69-1.28c0.93-1.85,1.84-4.08,2.68-6.36
				c1.68-4.6,3.15-9.56,4.45-14.53c0.32-1.24,0.64-2.5,0.93-3.71l0.1-0.44l0.02-0.1c0.01-0.03-0.02,0.08-0.02,0.11
				c-0.02,0.07,0-0.02,0-0.02l0.05-0.26l0.21-1.04l0.22-1.04l0.26-1.11c0.69-2.97,1.52-5.9,2.48-8.78
				c1.93-5.75,4.37-11.29,7.26-16.58c1.45-2.64,3.01-5.23,4.7-7.75c0.85-1.26,1.72-2.51,2.65-3.76c0.46-0.62,0.94-1.24,1.44-1.87
				l0.77-0.95l0.42-0.5l0.54-0.62l5.78,17.84l-1.26-0.29l-1.08-0.27c-0.71-0.19-1.41-0.38-2.11-0.59c-1.39-0.41-2.78-0.87-4.17-1.39
				c-2.79-1.05-5.61-2.27-8.58-4.12c-1.48-0.93-3-2.02-4.55-3.44c-0.38-0.35-0.78-0.75-1.16-1.14c-0.37-0.41-0.82-0.88-1.1-1.25
				c-0.63-0.77-1.22-1.55-1.72-2.31c-2.07-3.07-3.36-5.99-4.46-8.9c-2.12-5.8-3.2-11.48-3.67-17.29
				c-0.42-5.81-0.22-11.72,1.21-17.94c0.74-3.11,1.8-6.3,3.49-9.52c0.89-1.61,1.87-3.22,3.14-4.77c0.32-0.39,0.62-0.78,0.96-1.15
				l1.07-1.12l0.54-0.54l0.48-0.44c0.32-0.29,0.64-0.59,0.97-0.86c5.28-4.5,11.48-7.28,17.69-8.74c12.49-2.88,25.22-0.74,36.05,4.71
				c10.89,5.44,19.66,14.39,25.45,24.48c5.86,10.12,8.92,21.22,10.2,32.07c0.18,1.36,0.28,2.72,0.41,4.08
				c0.11,1.38,0.19,2.74,0.25,4.09c0.11,2.69,0.13,5.32,0.11,7.93c-0.06,5.21-0.32,10.3-0.67,15.35
				c-0.72,10.09-1.84,20.02-3.14,29.89c-2.63,19.74-5.93,39.2-9.85,58.71c-0.5,2.44-1.01,4.89-1.55,7.36l-0.85,3.75l-0.48,1.96
				l-0.28,1.07l-0.17,0.6l-0.22,0.73l-0.14,0.44c-0.09,0.25-0.21,0.57-0.32,0.85c-0.05,0.1-0.05,0.19-0.5,1.06
				c-0.35,0.66-0.77,1.29-1.23,1.87l-0.13,0.17l-0.4,0.53c-0.27,0.37-0.54,0.66-0.82,1.1c-0.56,0.82-1.13,1.62-1.69,2.56
				c-1.14,1.78-2.27,3.76-3.38,5.76c-2.22,4.03-4.37,8.3-6.52,12.64c-2.16,4.35-4.31,8.78-6.65,13.31
				c-1.15,2.25-2.42,4.59-3.77,6.93l-4.01,6.61c-1.43,2.16-2.84,4.33-4.29,6.48c-1.53,2.11-2.99,4.25-4.59,6.33
				c-1.63,2.05-3.16,4.16-4.91,6.15l-2.56,3.01c-0.88,0.98-1.8,1.95-2.7,2.92c-1.76,1.97-3.73,3.8-5.62,5.68
				c-0.98,0.91-1.99,1.8-2.99,2.7l-1.51,1.34l-1.57,1.28c-2.06,1.74-4.27,3.34-6.47,4.95l-3.42,2.27c-1.14,0.76-2.36,1.43-3.53,2.14
				c-4.78,2.76-9.87,5.13-15.23,6.93c-5.35,1.82-10.97,3.03-16.74,3.54c-2.89,0.24-5.81,0.31-8.78,0.15
				c-1.49-0.09-2.98-0.21-4.51-0.43c-0.76-0.1-1.54-0.24-2.34-0.39c-0.41-0.08-0.79-0.15-1.24-0.26l-0.67-0.16
				c-0.29-0.08-0.4-0.1-0.92-0.25l11.06-3.6l-0.9,1.15l-0.84,1.04l-1.68,2.01c-1.12,1.32-2.25,2.62-3.4,3.9
				c-2.29,2.56-4.63,5.06-7.03,7.5c-4.8,4.87-9.79,9.57-15.1,13.93c-10.56,8.76-22.42,16.23-35.41,21.42
				c-6.49,2.58-13.21,4.64-20.1,5.96c-3.44,0.66-6.91,1.16-10.39,1.44c-3.49,0.27-6.99,0.33-10.46,0.18
				c-6.96-0.34-13.83-1.67-20.25-3.97C990.67,597.53,984.71,594.28,979.41,590.31z"/>
		</g>
		<g>
			<path fill="#EAA0FF" d="M1242.59,360.49l-77.89-2.94c0.07-13.41,1-28.58,2.75-45.91l77.83,6.26L1242.59,360.49z"/>
			<path fill="#9700D1" d="M1243.93,339.19l-78.4-4.63c0.45-7.2,1.09-14.83,1.91-22.93l77.83,6.26L1243.93,339.19z"/>
			
				<path fill="none" stroke="#1F003B" stroke-width="20" stroke-linecap="round" stroke-linejoin="round" stroke-miterlimit="10" d="
				M1242.59,360.49l-77.89-2.94c0.07-13.41,1-28.58,2.75-45.91l77.83,6.26L1242.59,360.49z"/>
		</g>
	</g>
</g>
</svg>
