<?xml version="1.0" encoding="utf-8"?>
<!-- Generator: Adobe Illustrator 24.3.0, SVG Export Plug-In . SVG Version: 6.00 Build 0)  -->
<svg version="1.1" xmlns="http://www.w3.org/2000/svg" xmlns:xlink="http://www.w3.org/1999/xlink" x="0px" y="0px" width="1920px"
	 height="1080px" viewBox="0 0 1920 1080" enable-background="new 0 0 1920 1080" xml:space="preserve">
<g id="bg">
	<rect y="0" transform="matrix(-1 -1.224647e-16 1.224647e-16 -1 1920 1080)" fill="#8153FE" width="1920" height="1080"/>
	<ellipse fill="#5412A7" cx="960" cy="874.33" rx="223.24" ry="11.44"/>
</g>
<g id="tail">
	<g>
		<path fill="#1F003B" d="M989.66,747.56l0.09-0.56l0.04-0.2c0.02-0.08,0.03-0.19,0.04-0.21l0.03-0.12l0.03-0.06
			c0.03-0.07,0.06-0.06,0.09-0.04c0.06,0.06,0.09,0.18,0.14,0.35c0.1,0.33,0.21,0.76,0.36,1.2c0.3,0.89,0.58,1.87,1.03,2.8
			c0.87,1.88,1.95,3.67,3.42,5.47c1.48,1.78,3.32,3.62,5.68,5.42c2.35,1.83,5.22,3.57,8.46,5.25c3.29,1.63,6.92,3.2,10.88,4.56
			c3.97,1.34,8.18,2.61,12.6,3.64c4.42,1.05,9.01,2,13.74,2.75c4.72,0.79,9.58,1.43,14.51,1.94c4.93,0.53,9.95,0.97,15.03,1.26
			l3.77,0.21l3.12,0.12l3.1,0l3.1-0.11c4.14-0.14,8.28-0.64,12.55-1.32l3.22-0.58l3.28-0.71c2.22-0.49,4.46-1.02,6.78-1.67
			c2.29-0.63,4.69-1.3,7.13-2.04l7.59-2.36c2.64-0.83,5.31-1.7,8.17-2.56l4.33-1.3c1.5-0.44,2.99-0.84,4.55-1.25
			c6.18-1.64,12.98-3.08,20.33-3.65c7.29-0.62,15.16-0.08,22.47,1.76c9.82,2.47,15.78,12.42,13.31,22.24
			c-1.68,6.69-6.84,11.59-13.06,13.25l-3.71,0.98c-1.88,0.5-3.64,0.88-5.4,1.56c-0.87,0.25-1.76,0.68-2.62,0.97
			c-0.9,0.4-1.74,0.71-2.65,1.15c-1.77,0.75-3.62,1.75-5.52,2.71c-0.97,0.53-1.92,1.02-2.93,1.6c-0.99,0.53-2.02,1.12-3.06,1.71
			c-8.32,4.76-18.14,10.87-29.69,16.23c-11.48,5.43-24.82,9.78-38.64,11.84c-1.73,0.22-3.46,0.47-5.19,0.66l-5.21,0.47l-5.21,0.28
			l-4.56,0.16c-6.03,0.17-12.11,0.26-18.27,0.06c-6.15-0.21-12.36-0.52-18.66-1.19c-6.29-0.68-12.66-1.55-19.1-2.84
			c-12.86-2.58-26.14-6.46-39.41-13.25c-6.63-3.39-13.21-7.59-19.51-12.75c-6.25-5.21-12.19-11.44-17.11-18.74
			c-4.94-7.27-8.82-15.57-11.1-24.35c-1.15-4.39-1.96-8.88-2.31-13.5c-0.17-2.32-0.24-4.66-0.19-7.11c0.02-1.22,0.08-2.48,0.19-3.82
			c0.06-0.67,0.12-1.36,0.21-2.12l0.15-1.22l0.29-2c2.49-16.38,17.78-27.64,34.17-25.15C980.89,715.89,992.15,731.18,989.66,747.56z
			"/>
		<path fill="#F90B3C" d="M969.89,744.56c0.02-0.12,0.02-0.1,0.02-0.1c0-0.01,0,0,0.01,0.02l0,0.1l0,0.29l0.02,0.68
			c0.02,0.48,0.04,0.98,0.08,1.5c0.08,1.03,0.21,2.09,0.4,3.15c0.39,2.11,0.87,4.24,1.6,6.29c1.44,4.1,3.45,8,6.11,11.53
			c2.67,3.52,5.82,6.76,9.46,9.64c3.64,2.88,7.73,5.36,12.05,7.6c8.71,4.41,18.45,7.61,28.57,9.93c10.13,2.33,20.64,3.85,31.29,4.81
			c5.32,0.49,10.69,0.86,16.09,1.08l4.03,0.16l3.82,0.05l3.81-0.09c1.27-0.05,2.54-0.15,3.81-0.23c5.08-0.34,10.15-1.09,15.22-2.1
			l3.8-0.83c1.26-0.32,2.53-0.62,3.8-0.96c2.54-0.66,5.08-1.37,7.62-2.18c10.19-3.1,20.48-7.29,31.55-10.55
			c5.53-1.62,11.29-2.94,17.18-3.48c5.88-0.56,11.88-0.22,17.52,1.1c0.99,0.23,1.61,1.23,1.37,2.22c-0.19,0.81-0.89,1.37-1.69,1.42
			l-0.03,0c-10.89,0.62-20.68,4.37-30.29,9.22c-9.62,4.83-19.29,10.5-29.91,15.19c-10.56,4.76-22.1,8.37-34.04,10.06
			c-1.49,0.18-2.99,0.39-4.48,0.54l-4.5,0.38l-4.51,0.21l-4.3,0.1c-5.71,0.1-11.45,0.12-17.21-0.11
			c-5.76-0.24-11.53-0.58-17.32-1.23c-5.79-0.66-11.59-1.49-17.39-2.67c-11.57-2.35-23.21-5.84-34.32-11.53
			c-5.55-2.83-10.91-6.29-15.91-10.4c-4.98-4.12-9.61-8.94-13.34-14.51c-3.75-5.54-6.71-11.74-8.41-18.29
			c-0.87-3.27-1.47-6.62-1.73-10.01c-0.13-1.7-0.18-3.41-0.15-5.16c0.02-0.87,0.06-1.76,0.13-2.66c0.04-0.45,0.08-0.92,0.14-1.4
			l0.1-0.75l0.15-1.01c0.83-5.46,5.93-9.21,11.39-8.38S970.72,739.1,969.89,744.56z"/>
	</g>
</g>
<g id="body">
	<polygon fill="#A3463F" stroke="#1F003B" stroke-width="20" stroke-miterlimit="10" points="863.37,772.67 885.26,864.33 
		913.94,864.33 947.83,772.67 	"/>
	
		<path fill="#F90B3C" stroke="#1F003B" stroke-width="20" stroke-linecap="round" stroke-linejoin="round" stroke-miterlimit="10" d="
		M822.18,864.33L822.18,864.33h103.76v-28.15h-75.6C834.79,836.18,822.18,848.78,822.18,864.33z"/>
	<polygon fill="#A3463F" stroke="#1F003B" stroke-width="20" stroke-miterlimit="10" points="1055.63,772.67 1033.74,864.33 
		1005.06,864.33 971.17,772.67 	"/>
	
		<path fill="#F90B3C" stroke="#1F003B" stroke-width="20" stroke-linecap="round" stroke-linejoin="round" stroke-miterlimit="10" d="
		M1096.82,864.33L1096.82,864.33H993.06v-28.15h75.6C1084.21,836.18,1096.82,848.78,1096.82,864.33z"/>
	<path fill="#A3463F" stroke="#1F003B" stroke-width="20" stroke-miterlimit="10" d="M959.5,472.54h-53.9
		c0,0-39.32,54.72-53.03,78.08c-11.76,20.04-51.93,99.81-2.1,152.68l12.9,69.37h96.13h96.13l12.9-69.37
		c49.84-52.87,9.66-132.64-2.1-152.68c-13.7-23.36-53.03-78.08-53.03-78.08H959.5z"/>
	<path fill="#FDC286" d="M1001.69,739.43c5.67-4.89,8.33-22.62-13.81-25.54c-20.59-2.72-25.93,1.14-24.5,8.61
		C965.44,733.23,988.67,750.65,1001.69,739.43z"/>
	<path fill="#FDC286" d="M955.5,667.99c0,0-8.07,13.37-32.68,19.1c-17.23,4.01-18.89,25.26,6.42,22.98
		C967.39,706.62,955.5,667.99,955.5,667.99z"/>
	<path fill="#FDC286" d="M963.5,667.99c0,0,8.07,13.37,32.68,19.1c17.23,4.01,18.89,25.26-6.42,22.98
		C951.61,706.62,963.5,667.99,963.5,667.99z"/>
	<path fill="#FDC286" d="M917.31,739.43c-5.67-4.89-8.33-22.62,13.81-25.54c20.59-2.72,25.93,1.14,24.5,8.61
		C953.56,733.23,930.33,750.65,917.31,739.43z"/>
	<polygon fill="#1F003B" stroke="#1F003B" stroke-width="20" stroke-miterlimit="10" points="959.5,772.67 863.37,772.67 
		867.11,788.34 937.29,801.17 981.71,801.17 1051.89,788.34 1055.63,772.67 	"/>
</g>
<g id="head">
	<g>
		<path fill="#FFDD94" d="M907.35,305.09c-18.94,0-34-4.42-44.74-13.12c-7.4-6-10.34-17.11-7.86-29.7
			c3.1-15.71,14.23-32.36,31.33-46.87c21.08-17.87,50.68-32.62,87.99-43.84c0.95-0.29,1.92-0.42,2.88-0.42
			c2.68,0,5.29,1.08,7.2,3.06c2.6,2.7,3.47,6.62,2.27,10.17l-2.85,8.36c10.41-2.67,23.82-5.2,37.37-5.2c3.82,0,7.54,0.2,11.04,0.61
			c4.26,0.49,7.73,3.63,8.63,7.82c0.91,4.19-0.96,8.49-4.63,10.69c-0.08,0.05-4.11,2.48-9.24,6.15c6.3,2.09,12.26,5.4,15.72,10.65
			c3.55,5.38,4.02,11.95,1.32,18.49c-8.19,19.89-40.35,36.48-53.8,42.69C961.83,297.63,931.7,305.09,907.35,305.09z"/>
		<path fill="#1F003B" d="M976.95,181.13L976.95,181.13 M976.95,181.13l-9.23,27.05c0,0,26.65-10.66,53.21-10.66
			c3.32,0,6.64,0.17,9.91,0.54c0,0-16.86,10.12-26.98,21.2c0,0,38.22,0.57,30.69,18.86c-9.81,23.83-77.77,56.95-127.2,56.95
			c-15.38,0-28.96-3.2-38.44-10.89C854.75,272.71,864.56,214.93,976.95,181.13 M976.95,161.13c-0.41,0-0.81,0.01-1.22,0.04
			c-1.73,0.1-3.41,0.43-4.99,0.95c-38.42,11.6-69.07,26.96-91.12,45.65c-24.13,20.46-32.18,39.88-34.68,52.56
			c-3.21,16.29,1.04,31.02,11.38,39.4c12.57,10.19,29.74,15.36,51.04,15.36c25.75,0,57.4-7.79,86.84-21.38
			c18.03-8.32,49.66-25.62,58.86-47.96c3.93-9.56,3.12-19.69-2.22-27.8c-1.5-2.28-3.3-4.34-5.39-6.2
			c4.41-4.71,6.37-11.38,4.95-17.91c-1.81-8.37-8.76-14.66-17.27-15.64c-3.88-0.45-7.98-0.67-12.18-0.67
			c-8.26,0-16.46,0.87-24.04,2.15c-0.73-10.12-8.97-18.15-19.18-18.53C977.47,161.14,977.21,161.13,976.95,161.13L976.95,161.13z"/>
	</g>
	<g>
		<path fill="#F77568" d="M781.41,362.53c-40.01,0-76.71-28.72-81.82-64.01c-4.67-32.26,4.83-65.71,25.41-89.48
			c17.69-20.43,42.25-31.68,69.17-31.68c1.66,0,3.35,0.04,5.03,0.13c30.03,1.49,56.24,18.58,70.09,45.71
			c14.35,28.1,12.61,61.92-4.54,88.26C843.3,344.39,813.7,362.53,781.41,362.53C781.41,362.53,781.41,362.53,781.41,362.53z"/>
		<path fill="#1F003B" d="M794.16,187.36c1.49,0,3,0.04,4.53,0.11c58.3,2.89,89.36,69.84,57.67,118.52
			c-21.9,33.65-49.54,46.54-74.95,46.54c-36.08,0-67.66-25.99-71.92-55.45C701.96,245.16,735.36,187.36,794.16,187.36
			 M794.16,167.36c-29.86,0-57.11,12.48-76.73,35.14c-22.45,25.94-32.82,62.37-27.74,97.46c2.83,19.56,14,37.89,31.46,51.62
			c17.18,13.52,38.58,20.96,60.26,20.96c35.79,0,68.37-19.76,91.72-55.63c9.74-14.96,15.21-32.22,15.82-49.91
			c0.58-16.71-3.14-33.43-10.76-48.35c-15.5-30.36-44.85-49.48-78.5-51.15C797.84,167.4,795.98,167.36,794.16,167.36L794.16,167.36z
			"/>
	</g>
	<path fill="#F90B3C" d="M835.48,289.3c9.27-96.42-81.15-81.68-81.15-81.68s-9.93,5.96-10.6,13.66s52.27,27.8,40.17,42.15
		c-12.7,15.06-23.95,39.67,5.7,63.99C817.74,350.5,833.96,305.14,835.48,289.3z"/>
	<path fill="#FFDD94" d="M856.36,305.99c31.69-48.69,0.63-115.63-57.67-118.52c-29.47-1.46-52.92,11.37-68.52,30.99
		c0,0,42.04-33.81,93.57,12.88C854.26,258.99,856.36,305.99,856.36,305.99z"/>
	<g>
		<path fill="#1F003B" d="M835.48,289.3c-0.92-2.96-1.59-5.84-2.2-8.67c-0.79-2.83-1.43-5.6-2.09-8.32l-1.14-4.02
			c-0.38-1.33-0.66-2.66-1.14-3.93c-0.87-2.57-1.56-5.13-2.57-7.54c-1.74-4.92-3.97-9.41-6.42-13.53c-0.32-0.51-0.64-1.01-0.94-1.53
			c-0.31-0.51-0.59-1.04-0.97-1.5c-0.72-0.94-1.38-1.91-2.06-2.86l-2.25-2.67c-0.35-0.47-0.77-0.87-1.18-1.28l-1.22-1.24
			c-6.55-6.54-14.94-11.47-24.68-15.3c-4.86-1.9-10.01-3.59-15.39-5.09c-2.69-0.74-5.44-1.46-8.25-2.16l-8.65-2.05
			c2.68-1.52,5.54-2.6,8.44-3.52c2.91-0.92,5.89-1.56,8.91-2.09c6.05-0.95,12.29-1.15,18.57-0.42c6.28,0.71,12.6,2.36,18.63,5.09
			c6.02,2.72,11.73,6.56,16.54,11.38l1.76,1.85c0.58,0.62,1.18,1.22,1.68,1.91c1.04,1.35,2.1,2.68,3.08,4.05
			c0.89,1.44,1.79,2.87,2.64,4.32c0.45,0.71,0.79,1.48,1.16,2.23l1.06,2.27c2.66,6.09,4.36,12.46,4.86,18.77
			c0.42,3.15,0.33,6.28,0.27,9.38c0.02,1.55-0.2,3.08-0.38,4.61c-0.2,1.53-0.37,3.04-0.59,4.55c-0.6,3-1.31,5.95-2.14,8.84
			C837.84,283.71,836.78,286.55,835.48,289.3z"/>
	</g>
	<g>
		<path fill="#F77568" d="M1137.59,362.53c-32.3,0-61.89-18.14-83.33-51.08c-17.15-26.34-18.88-60.16-4.54-88.26
			c13.85-27.13,40.06-44.22,70.09-45.71c1.68-0.08,3.37-0.13,5.03-0.13c26.92,0,51.48,11.25,69.17,31.68
			c20.58,23.77,30.08,57.22,25.41,89.48C1214.3,333.82,1177.6,362.53,1137.59,362.53z"/>
		<path fill="#1F003B" d="M1124.84,187.36c58.79,0,92.19,57.8,84.68,109.73c-4.26,29.46-35.85,55.45-71.92,55.45
			c-25.41,0-53.05-12.89-74.95-46.54c-31.69-48.69-0.63-115.63,57.67-118.52C1121.84,187.39,1123.35,187.36,1124.84,187.36
			 M1124.84,167.36C1124.84,167.36,1124.84,167.36,1124.84,167.36C1124.84,167.36,1124.84,167.36,1124.84,167.36
			C1124.84,167.36,1124.84,167.36,1124.84,167.36L1124.84,167.36c-1.83,0-3.68,0.05-5.52,0.14c-33.65,1.67-63,20.79-78.5,51.15
			c-7.62,14.93-11.34,31.65-10.76,48.35c0.61,17.69,6.09,34.95,15.82,49.91c23.35,35.87,55.92,55.63,91.72,55.63
			c21.68,0,43.08-7.44,60.26-20.96c17.46-13.73,28.63-32.07,31.46-51.62c5.08-35.09-5.29-71.52-27.74-97.46
			C1181.95,179.84,1154.7,167.36,1124.84,167.36L1124.84,167.36L1124.84,167.36z"/>
	</g>
	<path fill="#F90B3C" d="M1083.52,289.3c-9.27-96.42,81.15-81.68,81.15-81.68s9.93,5.96,10.6,13.66s-52.27,27.8-40.17,42.15
		c12.7,15.06,23.95,39.67-5.7,63.99C1101.26,350.5,1085.04,305.14,1083.52,289.3z"/>
	<path fill="#FFDD94" d="M1062.64,305.99c-31.69-48.69-0.63-115.63,57.67-118.52c29.47-1.46,52.92,11.37,68.52,30.99
		c0,0-42.04-33.81-93.57,12.88C1064.74,258.99,1062.64,305.99,1062.64,305.99z"/>
	<g>
		<path fill="#1F003B" d="M1083.52,289.3c-1.3-2.75-2.36-5.58-3.34-8.46c-0.83-2.89-1.53-5.85-2.14-8.84
			c-0.22-1.5-0.39-3.02-0.59-4.55c-0.18-1.53-0.39-3.06-0.38-4.61c-0.06-3.1-0.15-6.23,0.27-9.38c0.5-6.31,2.2-12.68,4.86-18.77
			l1.06-2.27c0.36-0.75,0.7-1.52,1.16-2.23c0.85-1.45,1.75-2.88,2.64-4.32c0.99-1.38,2.05-2.7,3.08-4.05
			c0.5-0.69,1.1-1.29,1.68-1.91l1.76-1.85c4.81-4.81,10.52-8.66,16.54-11.38c6.03-2.73,12.35-4.38,18.63-5.09
			c6.28-0.73,12.52-0.53,18.57,0.42c3.02,0.53,6,1.17,8.91,2.09c2.9,0.92,5.76,1.99,8.44,3.52l-8.65,2.05
			c-2.81,0.7-5.56,1.41-8.25,2.16c-5.38,1.5-10.53,3.18-15.39,5.09c-9.73,3.83-18.13,8.76-24.68,15.3l-1.22,1.24
			c-0.41,0.41-0.83,0.81-1.18,1.28l-2.25,2.67c-0.68,0.96-1.34,1.92-2.06,2.86c-0.38,0.46-0.66,0.99-0.97,1.5
			c-0.3,0.51-0.63,1.02-0.94,1.53c-2.45,4.13-4.68,8.62-6.42,13.53c-1.02,2.4-1.7,4.97-2.57,7.54c-0.47,1.27-0.75,2.61-1.14,3.93
			l-1.14,4.02c-0.67,2.72-1.31,5.49-2.09,8.32C1085.11,283.46,1084.43,286.34,1083.52,289.3z"/>
	</g>
	<g>
		<path fill="#FFC384" d="M959.5,554.62c-48.14,0-93.48-15.38-127.67-43.31c-34.78-28.41-53.93-66.37-53.93-106.87
			c0-40.5,19.15-78.46,53.93-106.87c34.19-27.93,79.53-43.31,127.67-43.31s93.48,15.38,127.67,43.31
			c34.78,28.41,53.93,66.36,53.93,106.87c0,40.5-19.15,78.46-53.93,106.87C1052.98,539.24,1007.64,554.62,959.5,554.62z"/>
		<path fill="#1F003B" d="M959.5,264.26c94.77,0,171.6,62.76,171.6,140.18s-76.83,140.18-171.6,140.18s-171.6-62.76-171.6-140.18
			S864.73,264.26,959.5,264.26 M959.5,244.26c-50.43,0-98.02,16.18-133.99,45.57c-17.89,14.61-31.98,31.72-41.88,50.85
			c-10.43,20.15-15.72,41.6-15.72,63.76c0,22.16,5.29,43.61,15.72,63.76c9.91,19.13,24,36.24,41.88,50.85
			c35.97,29.39,83.56,45.57,133.99,45.57s98.02-16.18,133.99-45.57c17.89-14.61,31.98-31.72,41.88-50.85
			c10.43-20.15,15.72-41.6,15.72-63.76c0-22.16-5.29-43.61-15.72-63.76c-9.91-19.13-24-36.24-41.88-50.85
			C1057.52,260.44,1009.93,244.26,959.5,244.26L959.5,244.26z"/>
	</g>
	<path fill="#A3463F" d="M1121.58,358.39c0.87,5.87,1.37,27.83,1.37,33.9c0,77.42-73.18,124.18-163.45,124.18
		s-163.45-46.76-163.45-124.18c0-6.07,0.5-28.04,1.37-33.9c-6.14,14.43-9.52,29.91-9.52,46.05c0,77.42,76.83,140.18,171.6,140.18
		s171.6-62.76,171.6-140.18C1131.1,388.3,1127.72,372.82,1121.58,358.39z"/>
	<path fill="#EAA0FF" d="M959.5,287.38c-134.7,0-169.56,70.06-169.56,70.06c0-29.47,0.96-64.29,12.07-78.22
		c27.47-34.42,93.47-46.96,157.49-46.96s130.02,12.54,157.49,46.96c11.12,13.93,12.07,48.76,12.07,78.22
		C1129.06,357.44,1094.2,287.38,959.5,287.38"/>
	<path fill="#9700D1" d="M1127.71,317.45c-1.48-16.21-51.19-59.2-168.21-59.2s-166.73,42.99-168.21,59.2
		c-1.17,12.86-1.36,26.95-1.36,39.99c0,0,34.87-70.06,169.56-70.06s169.56,70.06,169.56,70.06
		C1129.06,344.4,1128.88,330.31,1127.71,317.45z"/>
	<g>
		<path fill="#1F003B" d="M959.5,287.38c-15.93,0.78-31.79,2.35-47.38,5.2l-5.83,1.13c-0.97,0.2-1.94,0.36-2.91,0.58l-2.89,0.67
			l-5.77,1.33l-5.72,1.51c-3.83,0.95-7.56,2.21-11.32,3.34c-1.87,0.6-3.71,1.29-5.57,1.93l-2.78,0.97l-2.74,1.07
			c-7.34,2.77-14.41,6.13-21.3,9.74c-6.87,3.65-13.48,7.75-19.69,12.33c-6.21,4.59-12.03,9.64-17.28,15.17
			c-2.62,2.77-5.07,5.67-7.36,8.64c-0.57,0.74-1.14,1.49-1.67,2.26c-0.55,0.75-1.07,1.52-1.58,2.29c-0.51,0.77-0.99,1.54-1.45,2.31
			c-0.22,0.38-0.46,0.77-0.66,1.14l-0.3,0.55l-0.22,0.44l-10.49,20.65l-0.41-23.21c-0.19-10.43-0.29-20.93,0.17-31.51
			c0.23-5.29,0.58-10.61,1.17-15.96c0.59-5.35,1.41-10.75,2.72-16.2c1.39-5.44,3.13-11,6.6-16.49c0.41-0.69,0.93-1.36,1.42-2.03
			c0.26-0.36,0.48-0.62,0.71-0.9l0.68-0.83c0.92-1.1,1.81-2.23,2.8-3.24c1.91-2.12,3.96-4.08,6.05-5.97
			c4.2-3.78,8.74-7.07,13.43-10.01c4.69-2.93,9.54-5.54,14.48-7.86c19.83-9.22,40.82-14.24,61.79-17.57
			c21.01-3.29,42.17-4.52,63.28-4.61c21.11,0.08,42.27,1.32,63.28,4.6c10.5,1.62,20.97,3.79,31.32,6.58
			c5.17,1.43,10.32,3.01,15.41,4.82c5.08,1.84,10.12,3.88,15.07,6.17c4.94,2.32,9.79,4.93,14.49,7.86c4.69,2.94,9.23,6.22,13.43,10
			c2.09,1.9,4.14,3.86,6.06,5.98c0.99,1.02,1.89,2.14,2.8,3.24l0.68,0.83c0.23,0.28,0.45,0.53,0.71,0.9
			c0.49,0.67,1.01,1.35,1.42,2.04c3.47,5.5,5.21,11.06,6.6,16.5c1.33,5.45,2.14,10.85,2.73,16.2c0.59,5.36,0.94,10.67,1.17,15.97
			c0.46,10.58,0.36,21.08,0.17,31.51l-0.43,23.29l-10.52-20.72l-0.22-0.44l-0.3-0.55c-0.2-0.37-0.44-0.76-0.66-1.14
			c-0.46-0.77-0.94-1.55-1.45-2.31c-0.51-0.77-1.02-1.54-1.58-2.29c-0.53-0.76-1.09-1.51-1.67-2.26c-2.29-2.97-4.74-5.87-7.36-8.64
			c-5.25-5.53-11.07-10.58-17.27-15.17c-6.21-4.59-12.82-8.68-19.69-12.33c-6.88-3.62-13.96-6.97-21.3-9.74l-2.74-1.08l-2.78-0.97
			c-1.86-0.64-3.7-1.32-5.57-1.93c-3.76-1.13-7.5-2.39-11.32-3.34l-5.72-1.51l-5.77-1.33l-2.89-0.67c-0.96-0.22-1.94-0.39-2.91-0.58
			l-5.83-1.13C991.29,289.73,975.43,288.16,959.5,287.38c15.93-0.75,31.98-0.43,47.94,1.34l5.98,0.72c1,0.13,2,0.22,2.99,0.38
			l2.98,0.47l5.96,0.95l5.92,1.19c3.97,0.73,7.86,1.79,11.8,2.72c1.96,0.5,3.89,1.09,5.84,1.63l2.92,0.83l2.89,0.94
			c7.73,2.43,15.33,5.38,22.7,8.88c7.38,3.48,14.55,7.47,21.39,12.04c6.83,4.57,13.35,9.7,19.36,15.46c3,2.89,5.86,5.94,8.54,9.19
			c0.67,0.81,1.34,1.63,1.98,2.48c0.66,0.83,1.28,1.69,1.91,2.56c0.63,0.87,1.23,1.76,1.83,2.68c0.3,0.47,0.59,0.92,0.89,1.41
			l0.44,0.74c0.16,0.28,0.28,0.48,0.49,0.88l-10.95,2.57c-0.2-10.34-0.52-20.62-1.24-30.78c-0.77-10.12-1.94-20.23-4.43-29.5
			c-1.25-4.57-2.91-8.98-5.11-12.22c-0.26-0.43-0.56-0.76-0.83-1.14c-0.12-0.17-0.32-0.4-0.52-0.62l-0.58-0.66
			c-0.77-0.87-1.5-1.78-2.35-2.59c-1.61-1.7-3.36-3.29-5.15-4.84c-7.24-6.14-15.74-11.05-24.71-15.1
			c-4.51-1.99-9.14-3.78-13.85-5.39c-4.73-1.57-9.53-3-14.38-4.29c-9.73-2.51-19.66-4.47-29.7-5.91
			c-20.07-2.94-40.5-4.16-60.93-4.15c-20.43-0.02-40.86,1.22-60.93,4.14c-10.04,1.44-19.97,3.4-29.7,5.91
			c-4.85,1.29-9.66,2.7-14.39,4.28c-4.71,1.62-9.34,3.4-13.85,5.39c-8.97,4.05-17.48,8.95-24.72,15.1
			c-1.79,1.55-3.54,3.14-5.15,4.84c-0.85,0.82-1.58,1.72-2.35,2.59l-0.58,0.66c-0.19,0.22-0.4,0.45-0.52,0.62
			c-0.28,0.38-0.58,0.71-0.84,1.14c-2.2,3.24-3.86,7.66-5.11,12.23c-2.49,9.27-3.66,19.38-4.43,29.5
			c-0.72,10.16-1.05,20.44-1.24,30.78l-10.91-2.56c0.21-0.4,0.33-0.6,0.49-0.88l0.44-0.74c0.29-0.5,0.59-0.95,0.89-1.41
			c0.6-0.92,1.2-1.81,1.83-2.68c0.62-0.87,1.25-1.73,1.91-2.56c0.64-0.85,1.3-1.67,1.98-2.48c2.68-3.25,5.55-6.3,8.55-9.19
			c6.01-5.76,12.52-10.88,19.35-15.46c6.84-4.57,14.01-8.55,21.38-12.04c7.37-3.5,14.97-6.44,22.7-8.88l2.89-0.94l2.92-0.83
			c1.95-0.54,3.88-1.13,5.84-1.64c3.93-0.93,7.83-1.99,11.8-2.72l5.92-1.19l5.96-0.95l2.98-0.47c0.99-0.15,1.99-0.25,2.99-0.38
			l5.98-0.72C927.52,286.95,943.57,286.64,959.5,287.38z"/>
	</g>
	<g>
		<path fill="none" d="M955.14,660.02"/>
	</g>
</g>
<g id="face">
	<g>
		<path fill="#F90B3C" d="M960,439.08c0,16.55,65.53,26.67,72.5-15.42c0,41.55-32.46,75.24-72.5,75.24s-72.5-33.69-72.5-75.24
			C894.47,465.75,960,455.63,960,439.08"/>
		<path fill="#1F003B" d="M960,439.08c0.12,1.96,1.2,3.65,2.51,4.97c1.34,1.32,2.95,2.35,4.63,3.2c3.38,1.68,7.05,2.74,10.76,3.42
			c7.44,1.29,15.11,1.29,22.39-0.18c7.24-1.49,14.22-4.38,19.4-9.18c5.22-4.75,8.28-11.27,9.24-18.24c0.27-1.98,2.1-3.36,4.08-3.09
			c1.79,0.25,3.09,1.76,3.12,3.51l0,0.17c0.2,10.11-1.44,20.33-5,29.9c-3.58,9.56-9.01,18.47-16.01,26
			c-6.96,7.56-15.5,13.72-24.95,17.93c-9.45,4.22-19.82,6.38-30.17,6.4c-10.35-0.02-20.72-2.18-30.17-6.4
			c-9.45-4.22-17.99-10.37-24.95-17.93c-7-7.53-12.43-16.44-16.01-26.01c-3.57-9.57-5.2-19.8-5-29.9l0-0.17c0.04-2,1.7-3.6,3.7-3.56
			c1.81,0.04,3.29,1.39,3.53,3.14c0.96,6.97,4.02,13.49,9.24,18.23c5.17,4.8,12.15,7.68,19.39,9.17c7.28,1.47,14.95,1.47,22.39,0.18
			c3.71-0.68,7.38-1.73,10.76-3.42c1.68-0.85,3.29-1.87,4.63-3.19C958.8,442.73,959.88,441.04,960,439.08
			c0.13,1.96-0.75,3.9-1.99,5.43c-1.25,1.55-2.82,2.82-4.48,3.9c-3.34,2.16-7.07,3.58-10.87,4.68c-7.62,2.15-15.68,2.71-23.65,1.78
			c-3.99-0.47-7.97-1.38-11.8-2.86c-3.83-1.46-7.53-3.48-10.8-6.15c-3.27-2.66-6.13-5.94-8.23-9.66c-1.07-1.85-1.93-3.81-2.65-5.81
			c-0.69-2.01-1.22-4.06-1.63-6.12l7.23-0.59c0.41,18.47,7.89,36.46,20.53,49.48c6.31,6.5,13.83,11.8,22.11,15.35
			c8.26,3.57,17.22,5.43,26.22,5.41c9,0.03,17.96-1.84,26.23-5.4c8.27-3.55,15.8-8.85,22.12-15.35
			c12.64-13.02,20.13-31.02,20.53-49.49l7.2,0.59c-0.4,2.07-0.93,4.11-1.62,6.12c-0.71,2-1.59,3.96-2.65,5.81
			c-2.1,3.73-4.96,7-8.23,9.66c-3.27,2.67-6.97,4.68-10.8,6.15c-3.83,1.48-7.81,2.38-11.8,2.86c-7.98,0.93-16.03,0.37-23.65-1.78
			c-3.79-1.09-7.53-2.52-10.87-4.67c-1.66-1.08-3.22-2.34-4.48-3.89C960.75,442.97,959.87,441.04,960,439.08z"/>
	</g>
	<circle fill="#1F003B" cx="880.52" cy="358.78" r="36"/>
	<path fill="#1F003B" d="M987.86,413.21c0,11.3-12.7,25.87-28.36,25.87s-28.36-14.57-28.36-25.87c0-11.3,12.7-20.46,28.36-20.46
		S987.86,401.92,987.86,413.21z"/>
	<g>
		<path fill="#1F003B" d="M887.5,423.66c0.9,1.81,1.79,3.54,2.8,5.15c1.01,1.62,2.12,3.11,3.29,4.48c2.35,2.74,5.07,4.91,7.96,6.57
			c2.88,1.69,6,2.85,9.2,3.66c1.61,0.38,3.23,0.72,4.87,0.95c1.64,0.25,3.31,0.34,4.98,0.45c6.65,0.29,13.49-0.52,19.64-2.29
			c3.03-0.89,5.96-2.06,8.03-3.37c0.52-0.32,0.95-0.64,1.32-0.93c0.33-0.29,0.61-0.55,0.72-0.7c0.1-0.14,0.08-0.16-0.04,0.08
			c-0.11,0.22-0.28,0.76-0.28,1.35h20c0.01-0.59-0.16-1.13-0.27-1.35c-0.12-0.24-0.15-0.22-0.04-0.08c0.11,0.15,0.39,0.41,0.72,0.7
			c0.37,0.29,0.8,0.61,1.33,0.92c2.07,1.31,5,2.47,8.03,3.36c6.15,1.77,12.98,2.56,19.63,2.28c1.66-0.1,3.33-0.21,4.97-0.45
			c1.64-0.23,3.26-0.57,4.87-0.95c3.2-0.81,6.31-1.97,9.19-3.65c2.9-1.66,5.61-3.82,7.97-6.56c1.17-1.37,2.29-2.86,3.3-4.47
			c1.01-1.61,1.91-3.34,2.81-5.15c0.23,2,0.24,4.03,0.07,6.1c-0.21,2.05-0.61,4.13-1.26,6.16c-1.24,4.1-3.53,8-6.48,11.38
			c-1.48,1.68-3.14,3.22-4.9,4.62c-1.77,1.4-3.67,2.6-5.63,3.7c-1.95,1.11-4,2.01-6.08,2.82c-2.08,0.8-4.2,1.48-6.35,1.99
			c-8.61,2.12-17.5,2.35-26.41,0.68c-4.47-0.89-8.95-2.2-13.6-4.74c-2.31-1.3-4.7-2.91-7.06-5.47c-1.16-1.31-2.32-2.89-3.24-4.88
			c-0.92-1.97-1.57-4.43-1.56-6.96l0-0.02c0.02-5.52,4.51-9.99,10.03-9.97s9.99,4.47,9.97,9.99c0,2.52-0.64,4.98-1.56,6.95
			c-0.93,1.99-2.07,3.57-3.25,4.88c-2.36,2.55-4.75,4.16-7.06,5.46c-4.64,2.53-9.12,3.84-13.59,4.73c-8.91,1.67-17.8,1.42-26.4-0.69
			c-2.15-0.5-4.27-1.19-6.35-1.99c-2.08-0.8-4.12-1.71-6.08-2.81c-3.93-2.15-7.56-4.95-10.53-8.32c-2.95-3.38-5.23-7.27-6.48-11.37
			c-0.65-2.04-1.05-4.11-1.26-6.16C887.27,427.7,887.27,425.66,887.5,423.66z"/>
	</g>
	<circle fill="#FFFFFF" cx="897.45" cy="338.13" r="8.16"/>
	<circle fill="#FFFFFF" cx="889.05" cy="356.33" r="6.11"/>
	<ellipse fill="#EAA0FF" cx="960.5" cy="400.83" rx="13.45" ry="8.07"/>
	<g>
		<path fill="#1F003B" d="M820.15,412.36c4.68-1.96,9.34-2.87,13.99-3.53c4.65-0.6,9.28-0.82,13.91-0.69
			c4.63,0.12,9.24,0.6,13.85,1.46c4.6,0.91,9.2,2.09,13.77,4.32c-4.68,1.97-9.34,2.89-13.99,3.54c-4.65,0.6-9.28,0.82-13.91,0.68
			c-4.63-0.13-9.24-0.61-13.85-1.47C829.31,415.75,824.72,414.58,820.15,412.36z"/>
	</g>
	<g>
		<path fill="#1F003B" d="M820.15,434.05c4.25-2.41,8.58-3.77,12.93-4.88c4.35-1.08,8.73-1.71,13.13-2.05
			c4.4-0.32,8.83-0.33,13.29,0.1c4.46,0.46,8.94,1.18,13.5,2.95c-4.25,2.42-8.58,3.79-12.93,4.89c-4.35,1.08-8.73,1.71-13.14,2.03
			c-4.41,0.31-8.83,0.32-13.29-0.11C829.19,436.53,824.71,435.81,820.15,434.05z"/>
	</g>
	<circle fill="#1F003B" cx="1038.48" cy="358.78" r="36"/>
	<circle fill="#FFFFFF" cx="1055.4" cy="338.13" r="8.16"/>
	<circle fill="#FFFFFF" cx="1047.01" cy="356.33" r="6.11"/>
	<g>
		<path fill="#1F003B" d="M1098.85,412.36c-4.57,2.22-9.16,3.39-13.77,4.31c-4.61,0.86-9.22,1.34-13.85,1.47
			c-4.63,0.14-9.26-0.08-13.91-0.68c-4.65-0.65-9.3-1.57-13.99-3.54c4.57-2.23,9.16-3.41,13.77-4.32c4.61-0.86,9.22-1.34,13.85-1.46
			c4.63-0.13,9.26,0.09,13.91,0.69C1089.51,409.49,1094.17,410.4,1098.85,412.36z"/>
	</g>
	<g>
		<path fill="#1F003B" d="M1098.85,434.05c-4.56,1.76-9.04,2.48-13.5,2.94c-4.46,0.43-8.89,0.42-13.29,0.11
			c-4.4-0.32-8.79-0.96-13.14-2.03c-4.35-1.1-8.68-2.47-12.93-4.89c4.56-1.77,9.04-2.5,13.5-2.95c4.46-0.43,8.89-0.42,13.29-0.1
			c4.4,0.33,8.79,0.97,13.13,2.05C1090.27,430.28,1094.6,431.65,1098.85,434.05z"/>
	</g>
	<g>
		<path fill="#FFFFFF" d="M959.5,439.08c0,7.84-14.7,14.22-30.92,14.31v63.77c0,10.91,8.85,19.76,19.76,19.76h22.33
			c10.91,0,19.76-8.85,19.76-19.76v-63.77C974.2,453.3,959.5,446.92,959.5,439.08z"/>
		<path fill="#1F003B" d="M959.5,439.08c-0.01,1.53-0.53,3.03-1.36,4.34c-0.83,1.31-1.88,2.5-3.03,3.58
			c-2.31,2.16-4.95,4.08-7.76,5.83c-2.81,1.73-5.82,3.22-8.96,4.39c-3.15,1.14-6.43,2-9.78,2.32l6.11-6.14
			c0.07,1.1-0.03,2.21-0.09,3.31c-0.07,1.1-0.05,2.21-0.05,3.31v6.62v13.25v26.49V513v3.31v0.83l0.04,0.59
			c0.04,0.38,0,0.78,0.09,1.15c0.35,3.06,1.83,5.92,4.01,8.1c2.21,2.17,5.13,3.51,8.18,3.87l1.16,0.06l0.29,0.02l0.41,0h0.83h3.31
			h6.62h6.62h3.31h0.83l0.41,0l0.29-0.02l1.16-0.06c3.05-0.35,5.97-1.7,8.18-3.87c2.17-2.18,3.66-5.05,4.01-8.1
			c0.09-0.38,0.05-0.77,0.09-1.15l0.04-0.59v-0.83V513v-6.62v-26.49v-13.25c0.01-4.42,0.02-8.83-0.1-13.25l6.07,6.1
			c-6.7-0.79-13.1-3.33-18.72-6.75c-2.8-1.73-5.45-3.61-7.77-5.77c-1.15-1.08-2.21-2.26-3.04-3.57
			C960.05,442.1,959.49,440.62,959.5,439.08z M959.5,439.08c0.03,0.76,0.18,1.51,0.45,2.23c0.28,0.71,0.71,1.34,1.16,1.94
			c0.97,1.16,2.18,2.07,3.5,2.78c2.64,1.41,5.62,2.05,8.58,2.3c2.97,0.24,5.93,0.14,8.82-0.09c2.89-0.22,5.71-0.59,8.46-0.94
			c2.96-0.37,5.67,1.72,6.05,4.69c0.03,0.27,0.05,0.53,0.04,0.79l-0.02,0.62c-0.12,4.42-0.11,8.83-0.1,13.25v13.25v26.49V513v3.31
			v0.83l-0.05,1.07c-0.05,0.72-0.04,1.44-0.17,2.15c-0.67,5.74-3.43,11.16-7.51,15.19c-4.09,4.04-9.6,6.62-15.33,7.24
			c-0.71,0.06-1.43,0.09-2.15,0.12l-0.54,0.02l-0.42,0h-0.83h-3.31h-6.62h-6.62h-3.31h-0.83l-0.42,0l-0.54-0.02
			c-0.72-0.03-1.43-0.06-2.15-0.12c-5.73-0.62-11.24-3.2-15.33-7.24c-4.08-4.03-6.84-9.46-7.51-15.19
			c-0.13-0.71-0.12-1.43-0.17-2.15l-0.05-1.07v-0.83V513v-6.62v-26.49v-13.25v-6.62c0-1.1,0.02-2.21-0.05-3.31
			c-0.06-1.1-0.15-2.21-0.09-3.31l0.05-0.77c0.19-3.16,2.9-5.56,6.06-5.37c1.37,0.08,2.76,0.33,4.17,0.47
			c1.41,0.15,2.83,0.29,4.27,0.41c2.88,0.23,5.84,0.35,8.81,0.12c2.95-0.24,5.94-0.84,8.59-2.24c1.32-0.7,2.53-1.61,3.5-2.76
			c0.45-0.6,0.88-1.23,1.17-1.93C959.33,440.6,959.48,439.84,959.5,439.08z"/>
	</g>
	<g>
		<path fill="#1F003B" d="M959.5,439.08c1.67,5.58,2.51,11.15,3.13,16.73c0.59,5.58,0.86,11.15,0.86,16.73
			c0.01,5.58-0.27,11.15-0.85,16.73c-0.62,5.58-1.46,11.15-3.15,16.73c-1.68-5.58-2.52-11.15-3.15-16.73
			c-0.59-5.58-0.86-11.15-0.85-16.73c0-5.58,0.28-11.15,0.86-16.73C956.99,450.23,957.83,444.66,959.5,439.08z"/>
	</g>
	<g>
		<path fill="#1F003B" d="M878.29,430.09c-0.26-0.25-0.45-0.53-0.66-0.85c-0.2-0.33-0.29-0.63-0.42-0.97
			c-0.26-0.7-0.31-1.36-0.35-2.06c-0.03-0.7,0.07-1.33,0.18-2.01c0.14-0.65,0.35-1.27,0.58-1.9c1.03-2.42,2.99-4.48,5.65-5.66
			c2.61-1.2,6.07-1.29,8.66,0.15c2.58,1.41,4.13,3.85,4.23,6.65c-2.9,0.28-4.72,0.53-5.99,1.02c-1.25,0.47-1.9,0.94-2.88,1.33
			l-3.61,1.49c-0.35,0.16-0.74,0.32-1.16,0.48c-0.36,0.18-0.85,0.35-1.26,0.56C880.35,428.76,879.44,429.15,878.29,430.09z"/>
	</g>
	<g>
		<path fill="#1F003B" d="M1041.71,430.09c-1.15-0.95-2.06-1.34-2.98-1.77c-0.41-0.21-0.9-0.38-1.26-0.56
			c-0.42-0.16-0.8-0.33-1.16-0.48l-3.61-1.49c-0.98-0.39-1.63-0.86-2.88-1.33c-1.27-0.49-3.1-0.74-5.99-1.02
			c0.1-2.81,1.65-5.24,4.23-6.65c2.59-1.44,6.05-1.34,8.66-0.15c2.65,1.18,4.61,3.24,5.65,5.66c0.23,0.63,0.45,1.25,0.58,1.9
			c0.11,0.68,0.21,1.31,0.18,2.01c-0.04,0.7-0.09,1.36-0.35,2.06c-0.13,0.34-0.22,0.64-0.42,0.97
			C1042.16,429.57,1041.97,429.85,1041.71,430.09z"/>
	</g>
</g>
<g id="hands">
	<path fill="#FDC286" d="M1056.43,550.62c84.28-22.47,99.52,56.02,99.52,56.02c54.65,15.03,56.36,55.65,52.65,76.5
		c-5.83,32.71-27.9,60.31-84.71,100.65c-17.68,12.55-42.17,8.43-54.64-9.3h0c-12.04-17.11-8.45-40.67,8.14-53.42l46.61-35.83
		c0,0-28.47-21.54-38.56-46.34c-7.25,14.29-51.71,55.79-121.59,21.12l-3.36-80.59C990.42,527.62,1056.43,550.62,1056.43,550.62z"/>
	<path fill="#FDC286" d="M862.57,550.62c-84.28-22.47-99.52,56.02-99.52,56.02c-54.65,15.03-56.36,55.65-52.65,76.5
		c5.83,32.71,27.9,60.31,84.71,100.65c17.68,12.55,42.17,8.43,54.64-9.3h0c12.04-17.11,8.45-40.67-8.14-53.42L795,685.24
		c0,0,28.47-21.54,38.56-46.34c7.25,14.29,51.71,55.79,121.59,21.12l3.36-80.59C928.58,527.62,862.57,550.62,862.57,550.62z"/>
	<path fill="#FFE6BE" d="M851.94,573.83c53.68-29.21,106.56,5.6,106.56,5.6C939.94,543.71,868.41,541.31,851.94,573.83z"/>
	<path fill="#FFE6BE" d="M1067.06,573.83c-53.68-29.21-106.56,5.6-106.56,5.6C979.06,543.71,1050.59,541.31,1067.06,573.83z"/>
	<path fill="#A3463F" d="M961.86,660.02c69.88,34.68,116.33-6.83,123.59-21.12c10.08,24.8,38.56,46.34,38.56,46.34l-46.61,35.83
		c-16.59,12.75-20.18,36.31-8.14,53.42h0c12.47,17.73,36.97,21.85,54.64,9.3c56.81-40.34,78.88-67.94,84.71-100.65v0
		c3.72-20.85,2-61.47-52.65-76.5c0,0,57.78,31.81,32.38,82.59c-3.36,6.72-6.08-3.98-4.65-17.17c-7.15,29.33-41.4,19.91-44.59,10.31
		c14.52-3.88,21.17-14.08,26.79-25.44c-43.12,11.37-67.7-18.54-78.74-43.4c-6.05,16.8-52.67,49.74-109.06,34.2
		c-15.27-4.21-16.14-41.06-17.59-68.3h-2c-1.46,27.23-2.32,64.09-17.59,68.3c-56.39,15.53-103.01-17.41-109.06-34.2
		c-11.03,24.86-35.61,54.77-78.74,43.4c5.62,11.37,12.27,21.56,26.79,25.44c-3.18,9.6-37.43,19.02-44.59-10.31
		c1.43,13.18-1.29,23.88-4.65,17.17c-25.39-50.78,32.38-82.59,32.38-82.59c-54.65,15.03-56.36,55.65-52.65,76.5v0
		c5.83,32.71,27.9,60.31,84.71,100.65c17.68,12.55,42.17,8.43,54.64-9.3h0c12.04-17.11,8.45-40.67-8.14-53.42L795,685.24
		c0,0,28.47-21.54,38.56-46.34c7.25,14.29,53.71,55.79,123.59,21.12H961.86z"/>
	<g>
		<path fill="#1F003B" d="M958.5,579.44c-3.11-3.42-6.13-6.76-9.55-9.59c-1.62-1.5-3.45-2.75-5.14-4.08
			c-0.89-0.62-1.82-1.19-2.72-1.78c-0.45-0.29-0.88-0.61-1.34-0.88l-1.4-0.79c-3.69-2.15-7.55-3.87-11.53-5.18
			c-1.96-0.72-3.99-1.22-6-1.76l-3.06-0.64c-1.01-0.21-2.06-0.32-3.08-0.49c-8.23-1.18-16.64-1.02-24.93,0.11
			c-4.15,0.53-8.27,1.34-12.33,2.29c-2.03,0.5-4.04,1.03-6.02,1.61l-2.93,0.91l-1.42,0.47c-0.42,0.15-0.98,0.34-1.2,0.44l0,0
			l-3.05,0.97l-2.81-0.75c-9.72-2.6-19.57-3.97-29.08-3.59c-2.4-0.01-4.71,0.39-7.05,0.61c-1.16,0.18-2.29,0.43-3.43,0.64
			c-0.57,0.11-1.15,0.2-1.71,0.33l-1.67,0.46l-1.67,0.45l-0.84,0.22c-0.27,0.09-0.54,0.19-0.81,0.29l-3.23,1.16l-3.12,1.4
			l-0.78,0.35l-0.75,0.41l-1.5,0.82c-7.95,4.43-14.77,10.97-20.09,18.85c-2.66,3.93-4.97,8.18-6.92,12.6
			c-0.97,2.21-1.86,4.47-2.62,6.75c-0.39,1.14-0.75,2.28-1.07,3.41c-0.17,0.57-0.31,1.12-0.46,1.68c-0.13,0.5-0.29,1.18-0.34,1.42
			l-1.24,5.98l-5.92,1.75c-3.83,1.13-7.65,2.29-11.24,3.82l-1.36,0.54l-1.32,0.6c-0.88,0.41-1.77,0.8-2.63,1.22
			c-1.7,0.89-3.41,1.76-5.01,2.76c-3.24,1.95-6.27,4.14-8.99,6.58c-2.7,2.46-5.11,5.16-7.17,8.09c-4.14,5.84-6.78,12.67-7.98,19.96
			c-0.62,3.64-0.85,7.4-0.77,11.18c0.04,1.89,0.16,3.79,0.37,5.68c0.21,1.9,0.45,3.75,0.87,5.66c1.46,7.68,3.99,15.01,7.55,21.98
			c3.55,6.97,8.12,13.56,13.29,19.84c5.26,6.24,11.11,12.15,17.22,17.88l4.71,4.21c0.79,0.7,1.56,1.41,2.37,2.1l2.44,2.04l4.87,4.08
			l5,3.97c6.67,5.3,13.57,10.4,20.55,15.41c0.85,0.61,1.77,1.3,2.58,1.85c0.7,0.43,1.38,0.87,2.07,1.31
			c0.68,0.45,1.45,0.74,2.16,1.13c0.71,0.41,1.48,0.66,2.24,0.95c3.03,1.14,6.24,1.83,9.49,1.92c6.49,0.12,13.04-1.86,18.21-5.75
			c5.11-3.9,9.1-9.55,10.66-15.82c1.63-6.24,1.23-13.11-1.45-19.04c-1.31-2.97-3.1-5.7-5.29-8.08c-0.58-0.56-1.09-1.2-1.71-1.72
			c-0.63-0.52-1.24-1.05-1.86-1.58l-5.17-3.98l-41.48-31.88l-10.29-7.91l10.35-7.99c0.75-0.58,1.74-1.38,2.63-2.11
			c0.91-0.76,1.82-1.52,2.71-2.31c1.8-1.56,3.57-3.18,5.31-4.82c3.47-3.29,6.77-6.73,9.89-10.27c3.09-3.56,5.92-7.25,8.5-11.02
			c2.49-3.8,4.62-7.69,6.29-11.59l7.78-18.16l10.4,17.4l0,0c0.38,0.63,0.83,1.43,1.47,2.29c0.6,0.85,1.31,1.74,2.04,2.62
			c1.46,1.79,3.19,3.5,4.95,5.18c3.56,3.36,7.55,6.4,11.79,9.08c4.26,2.65,8.76,4.98,13.46,6.87c1.17,0.51,2.37,0.9,3.57,1.33
			c1.19,0.45,2.42,0.79,3.64,1.16c0.61,0.18,1.22,0.39,1.83,0.56l1.86,0.47l1.87,0.47c0.63,0.14,1.26,0.25,1.89,0.38
			c10.09,2.07,20.71,2.22,31.35,0.87c5.3-0.76,10.67-1.59,16.1-2.65c2.75-0.44,5.46-1.07,8.27-1.54c2.81-0.48,5.59-1.12,8.57-1.45
			c-4.28,4.05-9.08,7.47-14.25,10.22c-5.12,2.88-10.67,4.96-16.36,6.62c-11.41,3.19-23.62,4.69-35.85,3.54
			c-0.76-0.07-1.53-0.12-2.29-0.2l-2.29-0.31l-2.29-0.31c-0.76-0.12-1.52-0.28-2.28-0.42c-1.52-0.28-3.03-0.59-4.53-0.99
			c-1.5-0.38-3.01-0.74-4.48-1.22c-5.95-1.76-11.75-4.12-17.24-7.12c-2.76-1.47-5.43-3.12-8.04-4.87c-2.56-1.83-5.1-3.7-7.5-5.82
			c-2.42-2.08-4.71-4.34-6.9-6.84c-1.1-1.25-2.16-2.56-3.19-4.01c-1.03-1.41-2.04-3.02-3-4.87l0-0.01l18.18-0.76
			c-2.3,5.44-5.09,10.46-8.17,15.14c-3.14,4.61-6.5,8.97-10.06,13.07c-3.58,4.07-7.32,7.95-11.21,11.64
			c-1.95,1.85-3.92,3.65-5.95,5.41c-1.01,0.88-2.04,1.75-3.08,2.62c-1.07,0.88-2.05,1.68-3.31,2.65l0.06-15.9l41.48,31.88l5.2,4
			l3.13,2.65c1.03,0.89,1.94,1.93,2.9,2.9c3.72,4.03,6.76,8.68,8.96,13.69c4.47,10.03,5.23,21.54,2.44,32.14
			c-2.74,10.67-9.28,20.11-18.03,26.73c-8.8,6.61-19.82,9.97-30.75,9.72c-5.47-0.15-10.91-1.28-16.03-3.22
			c-1.28-0.49-2.57-0.96-3.77-1.61c-1.21-0.63-2.47-1.18-3.63-1.91l-3.45-2.2c-0.99-0.68-1.82-1.31-2.74-1.96
			c-7.18-5.17-14.31-10.43-21.3-15.98l-5.24-4.16l-5.15-4.32l-2.58-2.16c-0.86-0.73-1.69-1.49-2.53-2.24l-5.04-4.51
			c-6.62-6.19-13.06-12.68-19.04-19.79c-5.91-7.17-11.36-14.98-15.74-23.55c-4.39-8.55-7.59-17.87-9.38-27.32
			c-0.5-2.36-0.85-4.84-1.11-7.27c-0.27-2.44-0.43-4.9-0.47-7.37c-0.11-4.93,0.19-9.92,1.03-14.88c0.82-4.96,2.15-9.89,4.03-14.65
			c1.88-4.76,4.36-9.32,7.31-13.53c2.95-4.21,6.39-8.05,10.14-11.45c3.77-3.38,7.85-6.32,12.07-8.86c2.1-1.31,4.28-2.42,6.45-3.54
			c1.09-0.54,2.2-1.03,3.3-1.54l1.65-0.75l1.67-0.67c4.44-1.88,8.98-3.27,13.51-4.59l-7.16,7.74c0.22-1.09,0.39-1.72,0.59-2.53
			c0.2-0.75,0.39-1.51,0.61-2.23c0.42-1.47,0.87-2.91,1.35-4.33c0.95-2.85,2.05-5.63,3.25-8.37c2.41-5.47,5.28-10.77,8.68-15.8
			c3.4-5.02,7.35-9.76,11.85-14.01c4.5-4.25,9.56-8,15.02-11.06l2.06-1.12l1.03-0.56l1.07-0.49c1.43-0.64,2.85-1.3,4.28-1.91
			l4.4-1.59c0.37-0.13,0.73-0.27,1.1-0.39l1.12-0.31l2.24-0.62l2.25-0.61c0.75-0.18,1.51-0.3,2.27-0.45
			c1.51-0.28,3.03-0.6,4.54-0.83c3.03-0.32,6.08-0.78,9.1-0.8c12.12-0.49,23.92,1.26,35.09,4.24l-5.87,0.22l0,0
			c0.85-0.27,1.38-0.41,2.04-0.59l1.85-0.47c1.22-0.31,2.43-0.55,3.65-0.8c2.42-0.49,4.84-0.87,7.27-1.2
			c4.85-0.65,9.74-0.93,14.63-0.97c4.89,0.03,9.79,0.29,14.66,1.02c4.86,0.73,9.69,1.78,14.38,3.31c4.69,1.5,9.25,3.47,13.53,5.89
			c1.07,0.6,2.14,1.2,3.15,1.91c1.02,0.69,2.06,1.33,3.04,2.05c0.97,0.74,1.94,1.48,2.89,2.24c0.96,0.74,1.82,1.62,2.72,2.42
			l1.33,1.23c0.43,0.42,0.83,0.88,1.25,1.31c0.81,0.89,1.63,1.77,2.41,2.67c1.47,1.9,3.01,3.7,4.22,5.75
			C954.95,570.84,956.88,575.15,958.5,579.44z"/>
	</g>
	<g>
		<path fill="#1F003B" d="M960.5,579.44c1.62-4.28,3.55-8.59,6.21-12.49c1.21-2.05,2.75-3.85,4.22-5.75
			c0.78-0.91,1.6-1.78,2.41-2.67c0.42-0.43,0.82-0.89,1.25-1.31l1.33-1.23c0.9-0.8,1.76-1.68,2.72-2.42
			c0.95-0.76,1.92-1.5,2.89-2.24c0.99-0.72,2.02-1.36,3.04-2.05c1.01-0.7,2.08-1.31,3.15-1.91c4.28-2.42,8.84-4.39,13.53-5.89
			c4.69-1.53,9.52-2.58,14.38-3.31c4.87-0.73,9.77-0.99,14.66-1.02c4.89,0.03,9.78,0.31,14.62,0.97c2.43,0.33,4.85,0.7,7.27,1.2
			c1.21,0.25,2.43,0.5,3.65,0.8l1.85,0.47c0.66,0.18,1.19,0.32,2.04,0.59l0,0l-5.87-0.22c11.17-2.98,22.97-4.73,35.09-4.24
			c3.02,0.02,6.07,0.48,9.1,0.8c1.52,0.23,3.03,0.55,4.54,0.83c0.76,0.15,1.51,0.28,2.27,0.45l2.25,0.61l2.24,0.62l1.12,0.31
			c0.37,0.12,0.74,0.26,1.1,0.39l4.4,1.59c1.44,0.62,2.86,1.27,4.28,1.91l1.07,0.49l1.03,0.56l2.06,1.12
			c5.46,3.06,10.52,6.81,15.02,11.06c4.5,4.25,8.45,8.99,11.85,14.01c3.4,5.02,6.27,10.33,8.68,15.8c1.2,2.74,2.3,5.52,3.25,8.37
			c0.48,1.42,0.94,2.86,1.35,4.33c0.22,0.72,0.41,1.49,0.61,2.23c0.2,0.81,0.36,1.44,0.59,2.53l-7.16-7.74
			c4.53,1.33,9.07,2.72,13.51,4.59l1.67,0.67l1.65,0.75c1.1,0.51,2.21,1,3.3,1.54c2.17,1.13,4.34,2.24,6.45,3.54
			c4.22,2.55,8.3,5.48,12.07,8.86c3.75,3.4,7.19,7.24,10.14,11.45c2.95,4.21,5.43,8.77,7.31,13.53c1.89,4.76,3.21,9.69,4.03,14.65
			c0.84,4.96,1.14,9.95,1.03,14.88c-0.05,2.47-0.21,4.93-0.47,7.37c-0.26,2.43-0.6,4.91-1.11,7.27c-1.79,9.45-4.99,18.77-9.38,27.32
			c-4.38,8.57-9.82,16.38-15.74,23.55c-5.98,7.11-12.42,13.6-19.04,19.79l-5.04,4.51c-0.84,0.75-1.68,1.51-2.53,2.24l-2.58,2.16
			l-5.15,4.32l-5.24,4.16c-6.98,5.55-14.12,10.81-21.3,15.98c-0.92,0.66-1.75,1.28-2.74,1.96l-3.45,2.2
			c-1.16,0.72-2.42,1.28-3.63,1.91c-1.2,0.65-2.49,1.12-3.77,1.61c-5.12,1.94-10.56,3.06-16.03,3.22
			c-10.93,0.26-21.95-3.11-30.75-9.72c-8.75-6.62-15.29-16.06-18.03-26.73c-2.79-10.59-2.02-22.11,2.44-32.14
			c2.2-5.02,5.24-9.67,8.96-13.69c0.96-0.97,1.87-2.01,2.9-2.9l3.13-2.65l5.2-4l41.48-31.88l0.06,15.9
			c-1.26-0.97-2.24-1.77-3.31-2.65c-1.04-0.87-2.07-1.74-3.08-2.62c-2.03-1.76-4.01-3.57-5.95-5.41
			c-3.89-3.69-7.62-7.57-11.21-11.64c-3.56-4.11-6.93-8.46-10.06-13.07c-3.08-4.68-5.87-9.7-8.17-15.14l18.18,0.76l0,0.01
			c-0.96,1.85-1.97,3.46-3,4.87c-1.03,1.45-2.09,2.76-3.19,4.01c-2.19,2.51-4.48,4.76-6.9,6.84c-2.4,2.11-4.94,3.99-7.5,5.82
			c-2.61,1.75-5.28,3.4-8.04,4.87c-5.49,2.99-11.29,5.35-17.24,7.12c-1.47,0.48-2.98,0.84-4.48,1.22c-1.49,0.4-3.01,0.71-4.53,0.99
			c-0.76,0.14-1.52,0.29-2.28,0.42l-2.29,0.31l-2.29,0.31c-0.76,0.09-1.53,0.13-2.29,0.2c-12.24,1.15-24.44-0.35-35.85-3.54
			c-5.69-1.66-11.24-3.74-16.36-6.62c-5.17-2.75-9.96-6.18-14.25-10.22c2.98,0.33,5.76,0.97,8.57,1.45c2.81,0.47,5.52,1.1,8.27,1.54
			c5.43,1.07,10.8,1.89,16.1,2.65c10.63,1.35,21.25,1.19,31.35-0.87c0.63-0.13,1.26-0.24,1.89-0.38l1.87-0.47l1.86-0.47
			c0.62-0.17,1.22-0.38,1.83-0.56c1.22-0.37,2.45-0.71,3.64-1.16c1.2-0.42,2.41-0.82,3.57-1.33c4.71-1.89,9.21-4.22,13.46-6.87
			c4.24-2.68,8.23-5.72,11.79-9.08c1.76-1.69,3.49-3.4,4.95-5.18c0.73-0.89,1.45-1.77,2.04-2.62c0.64-0.86,1.09-1.66,1.47-2.29l0,0
			l10.4-17.4l7.78,18.16c1.67,3.9,3.8,7.79,6.29,11.59c2.57,3.77,5.41,7.46,8.5,11.02c3.12,3.54,6.43,6.98,9.89,10.27
			c1.73,1.65,3.5,3.26,5.31,4.82c0.9,0.79,1.81,1.55,2.71,2.31c0.88,0.73,1.88,1.53,2.63,2.11l10.35,7.99l-10.29,7.91l-41.48,31.88
			l-5.17,3.98c-0.61,0.54-1.23,1.06-1.86,1.58c-0.63,0.52-1.13,1.16-1.71,1.72c-2.19,2.38-3.98,5.11-5.29,8.08
			c-2.68,5.92-3.08,12.8-1.45,19.04c1.56,6.28,5.55,11.93,10.66,15.82c5.17,3.89,11.72,5.87,18.21,5.75
			c3.25-0.09,6.46-0.78,9.49-1.92c0.76-0.29,1.53-0.54,2.24-0.95c0.71-0.39,1.48-0.68,2.16-1.13c0.68-0.45,1.37-0.88,2.07-1.31
			c0.8-0.55,1.72-1.24,2.58-1.85c6.98-5.02,13.88-10.11,20.55-15.41l5-3.97l4.87-4.08l2.44-2.04c0.81-0.68,1.58-1.4,2.37-2.1
			l4.71-4.21c6.11-5.73,11.96-11.64,17.22-17.88c5.18-6.28,9.74-12.88,13.29-19.84c3.57-6.96,6.09-14.3,7.55-21.98
			c0.42-1.91,0.66-3.75,0.87-5.66c0.21-1.89,0.33-3.79,0.37-5.68c0.08-3.78-0.15-7.54-0.77-11.18c-1.2-7.29-3.85-14.11-7.98-19.96
			c-2.06-2.93-4.47-5.63-7.17-8.09c-2.72-2.44-5.75-4.62-8.99-6.58c-1.6-1-3.31-1.87-5.01-2.76c-0.86-0.42-1.76-0.81-2.63-1.22
			l-1.32-0.6l-1.36-0.54c-3.59-1.53-7.41-2.69-11.24-3.82l-5.92-1.75l-1.24-5.98c-0.05-0.24-0.21-0.92-0.33-1.42
			c-0.15-0.56-0.29-1.11-0.46-1.68c-0.32-1.13-0.68-2.27-1.07-3.41c-0.76-2.28-1.66-4.53-2.62-6.75c-1.95-4.42-4.25-8.67-6.92-12.6
			c-5.32-7.88-12.13-14.41-20.09-18.85l-1.5-0.82l-0.75-0.41l-0.78-0.35l-3.12-1.4l-3.23-1.16c-0.27-0.1-0.54-0.2-0.81-0.29
			l-0.84-0.22l-1.67-0.45l-1.67-0.46c-0.56-0.13-1.14-0.22-1.71-0.33c-1.15-0.2-2.28-0.46-3.43-0.64c-2.35-0.22-4.65-0.62-7.05-0.61
			c-9.51-0.39-19.37,0.99-29.08,3.59l-2.81,0.75l-3.05-0.97l0,0c-0.22-0.1-0.78-0.29-1.2-0.44l-1.42-0.47l-2.93-0.91
			c-1.98-0.58-4-1.11-6.02-1.61c-4.06-0.96-8.18-1.77-12.33-2.29c-8.29-1.13-16.7-1.29-24.93-0.11c-1.02,0.17-2.07,0.28-3.08,0.49
			l-3.06,0.64c-2,0.53-4.04,1.04-6,1.76c-3.97,1.31-7.84,3.03-11.53,5.18l-1.4,0.79c-0.46,0.28-0.89,0.59-1.34,0.88
			c-0.89,0.59-1.82,1.16-2.72,1.78c-1.7,1.34-3.52,2.59-5.14,4.08C966.63,572.68,963.61,576.01,960.5,579.44z"/>
	</g>
	<path fill="#EAA0FF" d="M807.77,695.06l-49.04,60.59c10.15,8.77,22.18,18.06,36.38,28.14l46.5-62.72L807.77,695.06z"/>
	<path fill="#9700D1" d="M824.69,708.07l-48.1,62.08c5.72,4.39,11.88,8.93,18.52,13.65l46.5-62.72L824.69,708.07z"/>
	<path fill="none" stroke="#1F003B" stroke-width="20" stroke-linecap="round" stroke-linejoin="round" stroke-miterlimit="10" d="
		M807.77,695.06l-49.04,60.59c10.15,8.77,22.18,18.06,36.38,28.14l46.5-62.72L807.77,695.06z"/>
	<g>
		<path fill="#EAA0FF" d="M1111.23,695.06l49.04,60.59c-10.15,8.77-22.18,18.06-36.38,28.14l-46.5-62.72L1111.23,695.06z"/>
		<path fill="#9700D1" d="M1094.31,708.07l48.1,62.08c-5.72,4.39-11.88,8.93-18.52,13.65l-46.5-62.72L1094.31,708.07z"/>
		<path fill="none" stroke="#1F003B" stroke-width="20" stroke-linecap="round" stroke-linejoin="round" stroke-miterlimit="10" d="
			M1111.23,695.06l49.04,60.59c-10.15,8.77-22.18,18.06-36.38,28.14l-46.5-62.72L1111.23,695.06z"/>
	</g>
</g>
</svg>
